<svg width="32" height="32" viewBox="0 0 32 32" fill="none" xmlns="http://www.w3.org/2000/svg">
<path d="M16.0084 0.242676C9.42848 0.242676 7.50412 0.249464 7.13006 0.280494C5.77975 0.392736 4.93951 0.605342 4.02412 1.0611C3.31866 1.4114 2.7623 1.81746 2.21321 2.38668C1.21321 3.42474 0.607147 4.70183 0.387753 6.21989C0.281087 6.95686 0.250056 7.10716 0.243753 10.8715C0.241329 12.1263 0.243753 13.7777 0.243753 15.9927C0.243753 22.5673 0.251026 24.4897 0.282541 24.863C0.391632 26.177 0.597693 27.0036 1.03406 27.9079C1.868 29.6388 3.46072 30.9382 5.33709 31.423C5.98678 31.5903 6.70436 31.6824 7.62557 31.7261C8.01587 31.743 11.9941 31.7552 15.9747 31.7552C19.9553 31.7552 23.9359 31.7503 24.3165 31.7309C25.3831 31.6807 26.0025 31.5976 26.6874 31.4206C28.5759 30.9333 30.1395 29.6533 30.9904 27.8982C31.4183 27.0158 31.6353 26.1576 31.7334 24.9123C31.7548 24.6407 31.7638 20.3118 31.7638 15.9886C31.7638 11.6647 31.7541 7.34377 31.7327 7.07225C31.6333 5.8068 31.4164 4.95589 30.9747 4.05649C30.6122 3.32025 30.2098 2.77043 29.6256 2.20825C28.5829 1.21237 27.3078 0.606312 25.7882 0.387161C25.052 0.280736 24.9053 0.249221 21.1381 0.242676H16.0084Z" fill="url(#paint0_radial_1505_8511)"/>
<path d="M16.0084 0.242676C9.42848 0.242676 7.50412 0.249464 7.13006 0.280494C5.77975 0.392736 4.93951 0.605342 4.02412 1.0611C3.31866 1.4114 2.7623 1.81746 2.21321 2.38668C1.21321 3.42474 0.607147 4.70183 0.387753 6.21989C0.281087 6.95686 0.250056 7.10716 0.243753 10.8715C0.241329 12.1263 0.243753 13.7777 0.243753 15.9927C0.243753 22.5673 0.251026 24.4897 0.282541 24.863C0.391632 26.177 0.597693 27.0036 1.03406 27.9079C1.868 29.6388 3.46072 30.9382 5.33709 31.423C5.98678 31.5903 6.70436 31.6824 7.62557 31.7261C8.01587 31.743 11.9941 31.7552 15.9747 31.7552C19.9553 31.7552 23.9359 31.7503 24.3165 31.7309C25.3831 31.6807 26.0025 31.5976 26.6874 31.4206C28.5759 30.9333 30.1395 29.6533 30.9904 27.8982C31.4183 27.0158 31.6353 26.1576 31.7334 24.9123C31.7548 24.6407 31.7638 20.3118 31.7638 15.9886C31.7638 11.6647 31.7541 7.34377 31.7327 7.07225C31.6333 5.8068 31.4164 4.95589 30.9747 4.05649C30.6122 3.32025 30.2098 2.77043 29.6256 2.20825C28.5829 1.21237 27.3078 0.606312 25.7882 0.387161C25.052 0.280736 24.9053 0.249221 21.1381 0.242676H16.0084Z" fill="url(#paint1_radial_1505_8511)"/>
<path d="M16.0084 0.242676C9.42848 0.242676 7.50412 0.249464 7.13006 0.280494C5.77975 0.392736 4.93951 0.605342 4.02412 1.0611C3.31866 1.4114 2.7623 1.81746 2.21321 2.38668C1.21321 3.42474 0.607147 4.70183 0.387753 6.21989C0.281087 6.95686 0.250056 7.10716 0.243753 10.8715C0.241329 12.1263 0.243753 13.7777 0.243753 15.9927C0.243753 22.5673 0.251026 24.4897 0.282541 24.863C0.391632 26.177 0.597693 27.0036 1.03406 27.9079C1.868 29.6388 3.46072 30.9382 5.33709 31.423C5.98678 31.5903 6.70436 31.6824 7.62557 31.7261C8.01587 31.743 11.9941 31.7552 15.9747 31.7552C19.9553 31.7552 23.9359 31.7503 24.3165 31.7309C25.3831 31.6807 26.0025 31.5976 26.6874 31.4206C28.5759 30.9333 30.1395 29.6533 30.9904 27.8982C31.4183 27.0158 31.6353 26.1576 31.7334 24.9123C31.7548 24.6407 31.7638 20.3118 31.7638 15.9886C31.7638 11.6647 31.7541 7.34377 31.7327 7.07225C31.6333 5.8068 31.4164 4.95589 30.9747 4.05649C30.6122 3.32025 30.2098 2.77043 29.6256 2.20825C28.5829 1.21237 27.3078 0.606312 25.7882 0.387161C25.052 0.280736 24.9053 0.249221 21.1381 0.242676H16.0084Z" fill="black" fill-opacity="0.3"/>
<path d="M16.0009 4.36377C12.8406 4.36377 12.444 4.37759 11.2028 4.43407C9.96401 4.4908 9.11843 4.68692 8.37856 4.97468C7.61322 5.27189 6.96401 5.66947 6.31722 6.3165C5.66995 6.96328 5.27237 7.6125 4.97419 8.37759C4.68571 9.11771 4.48934 9.96353 4.43359 11.2018C4.37807 12.443 4.36353 12.8399 4.36353 16.0001C4.36353 19.1604 4.37759 19.5558 4.43383 20.797C4.4908 22.0358 4.68692 22.8813 4.97443 23.6212C5.27189 24.3866 5.66946 25.0358 6.31649 25.6826C6.96304 26.3298 7.61225 26.7284 8.3771 27.0256C9.11746 27.3133 9.96328 27.5095 11.2018 27.5662C12.443 27.6227 12.8394 27.6365 15.9994 27.6365C19.1599 27.6365 19.5553 27.6227 20.7965 27.5662C22.0353 27.5095 22.8818 27.3133 23.6222 27.0256C24.3873 26.7284 25.0355 26.3298 25.6821 25.6826C26.3293 25.0358 26.7269 24.3866 27.0251 23.6215C27.3112 22.8813 27.5075 22.0355 27.5657 20.7972C27.6215 19.556 27.636 19.1604 27.636 16.0001C27.636 12.8399 27.6215 12.4433 27.5657 11.2021C27.5075 9.96328 27.3112 9.11771 27.0251 8.37783C26.7269 7.6125 26.3293 6.96328 25.6821 6.3165C25.0348 5.66922 24.3875 5.27165 23.6215 4.97468C22.8796 4.68692 22.0336 4.4908 20.7948 4.43407C19.5536 4.37759 19.1584 4.36377 15.9972 4.36377H16.0009ZM14.957 6.46074C15.2668 6.46025 15.6125 6.46074 16.0009 6.46074C19.1078 6.46074 19.476 6.47189 20.7029 6.52765C21.8375 6.57953 22.4532 6.7691 22.8634 6.92838C23.4064 7.13928 23.7936 7.39141 24.2006 7.79868C24.6079 8.20595 24.86 8.59383 25.0714 9.13686C25.2307 9.54656 25.4205 10.1623 25.4721 11.2969C25.5279 12.5235 25.54 12.892 25.54 15.9975C25.54 19.1029 25.5279 19.4714 25.4721 20.6981C25.4202 21.8326 25.2307 22.4484 25.0714 22.8581C24.8605 23.4011 24.6079 23.7878 24.2006 24.1948C23.7933 24.6021 23.4067 24.8542 22.8634 25.0651C22.4537 25.2251 21.8375 25.4142 20.7029 25.4661C19.4763 25.5218 19.1078 25.534 16.0009 25.534C12.8937 25.534 12.5255 25.5218 11.2988 25.4661C10.1643 25.4137 9.54849 25.2241 9.13807 25.0649C8.59504 24.854 8.20716 24.6018 7.79989 24.1946C7.39262 23.7873 7.14049 23.4004 6.9291 22.8571C6.76983 22.4474 6.58001 21.8316 6.52837 20.6971C6.47262 19.4704 6.46146 19.102 6.46146 15.9946C6.46146 12.8872 6.47262 12.5206 6.52837 11.294C6.58025 10.1594 6.76983 9.54365 6.9291 9.13347C7.14001 8.59044 7.39262 8.20256 7.79989 7.79528C8.20716 7.38801 8.59504 7.13589 9.13807 6.9245C9.54825 6.7645 10.1643 6.57541 11.2988 6.52328C12.3723 6.4748 12.7883 6.46025 14.957 6.45783V6.46074ZM22.2122 8.39286C21.4413 8.39286 20.8159 9.01759 20.8159 9.78874C20.8159 10.5596 21.4413 11.1851 22.2122 11.1851C22.9832 11.1851 23.6086 10.5596 23.6086 9.78874C23.6086 9.01783 22.9832 8.39238 22.2122 8.39238V8.39286ZM16.0009 10.0244C12.7007 10.0244 10.0251 12.7 10.0251 16.0001C10.0251 19.3003 12.7007 21.9747 16.0009 21.9747C19.301 21.9747 21.9756 19.3003 21.9756 16.0001C21.9756 12.7 19.301 10.0244 16.0009 10.0244ZM16.0009 12.1213C18.1429 12.1213 19.8796 13.8578 19.8796 16.0001C19.8796 18.1422 18.1429 19.8789 16.0009 19.8789C13.8586 19.8789 12.1221 18.1422 12.1221 16.0001C12.1221 13.8578 13.8586 12.1213 16.0009 12.1213Z" fill="white"/>
<defs>
<radialGradient id="paint0_radial_1505_8511" cx="0" cy="0" r="1" gradientUnits="userSpaceOnUse" gradientTransform="translate(8.6155 34.1823) rotate(-90) scale(31.2312 29.0554)">
<stop stop-color="#FFDD55"/>
<stop offset="0.1" stop-color="#FFDD55"/>
<stop offset="0.5" stop-color="#FF543E"/>
<stop offset="1" stop-color="#C837AB"/>
</radialGradient>
<radialGradient id="paint1_radial_1505_8511" cx="0" cy="0" r="1" gradientUnits="userSpaceOnUse" gradientTransform="translate(-5.03727 2.51278) rotate(78.6776) scale(13.9606 57.5608)">
<stop stop-color="#3771C8"/>
<stop offset="0.128" stop-color="#3771C8"/>
<stop offset="1" stop-color="#6600FF" stop-opacity="0"/>
</radialGradient>
</defs>
</svg>
