<svg width="32" height="32" viewBox="0 0 32 32" fill="none" xmlns="http://www.w3.org/2000/svg">
<path d="M22.9437 11.5269C25.0055 13 27.5313 13.8667 30.2593 13.8667V8.61992C29.7431 8.62003 29.2281 8.56622 28.723 8.45926V12.5892C25.9952 12.5892 23.4697 11.7225 21.4074 10.2495V20.9567C21.4074 26.313 17.0631 30.6548 11.7044 30.6548C9.70493 30.6548 7.84652 30.0506 6.30273 29.0144C8.06471 30.8151 10.5219 31.9321 13.2404 31.9321C18.5994 31.9321 22.9439 27.5903 22.9439 22.2338V11.5269H22.9437ZM24.839 6.23351C23.7853 5.08293 23.0934 3.59603 22.9437 1.95219V1.27734H21.4878C21.8543 3.36666 23.1043 5.15165 24.839 6.23351ZM9.6921 24.9042C9.10339 24.1327 8.78526 23.1889 8.78668 22.2185C8.78668 19.7687 10.7737 17.7824 13.2253 17.7824C13.6821 17.7823 14.1363 17.8522 14.5717 17.9903V12.6263C14.0628 12.5566 13.5493 12.527 13.036 12.5378V16.713C12.6003 16.5749 12.1459 16.5047 11.6889 16.5052C9.23742 16.5052 7.25046 18.4913 7.25046 20.9413C7.25046 22.6737 8.24367 24.1736 9.6921 24.9042Z" fill="#FF004F"/>
<path d="M22.9437 11.5269C25.0055 13 27.5313 13.8667 30.2593 13.8667V8.61992C29.7431 8.62003 29.2281 8.56622 28.723 8.45926V12.5892C25.9952 12.5892 23.4697 11.7225 21.4074 10.2495V20.9567C21.4074 26.313 17.0631 30.6548 11.7044 30.6548C9.70493 30.6548 7.84652 30.0506 6.30273 29.0144C8.06471 30.8151 10.5219 31.9321 13.2404 31.9321C18.5994 31.9321 22.9439 27.5903 22.9439 22.2338V11.5269H22.9437ZM24.839 6.23351C23.7853 5.08293 23.0934 3.59603 22.9437 1.95219V1.27734H21.4878C21.8543 3.36666 23.1043 5.15165 24.839 6.23351ZM9.6921 24.9042C9.10339 24.1327 8.78526 23.1889 8.78668 22.2185C8.78668 19.7687 10.7737 17.7824 13.2253 17.7824C13.6821 17.7823 14.1363 17.8522 14.5717 17.9903V12.6263C14.0628 12.5566 13.5493 12.527 13.036 12.5378V16.713C12.6003 16.5749 12.1459 16.5047 11.6889 16.5052C9.23742 16.5052 7.25046 18.4913 7.25046 20.9413C7.25046 22.6737 8.24367 24.1736 9.6921 24.9042Z" fill="black" fill-opacity="0.3"/>
<path d="M21.4072 10.2494C23.4696 11.7224 25.9951 12.5891 28.7229 12.5891V8.45915C27.2002 8.13499 25.8523 7.3397 24.8388 6.23351C23.104 5.15154 21.8542 3.36655 21.4877 1.27734H17.6635V22.2336C17.6548 24.6767 15.6711 26.6549 13.2249 26.6549C11.7834 26.6549 10.5027 25.9681 9.69163 24.9042C8.2433 24.1736 7.2501 22.6736 7.2501 20.9415C7.2501 18.4916 9.23705 16.5053 11.6886 16.5053C12.1583 16.5053 12.611 16.5784 13.0356 16.7131V12.5379C7.77108 12.6467 3.53711 16.9461 3.53711 22.2337C3.53711 24.8733 4.59147 27.2662 6.3027 29.0145C7.84648 30.0506 9.70489 30.6549 11.7043 30.6549C17.0631 30.6549 21.4074 26.3129 21.4074 20.9567V10.2494H21.4072Z" fill="black"/>
<path d="M21.4072 10.2494C23.4696 11.7224 25.9951 12.5891 28.7229 12.5891V8.45915C27.2002 8.13499 25.8523 7.3397 24.8388 6.23351C23.104 5.15154 21.8542 3.36655 21.4877 1.27734H17.6635V22.2336C17.6548 24.6767 15.6711 26.6549 13.2249 26.6549C11.7834 26.6549 10.5027 25.9681 9.69163 24.9042C8.2433 24.1736 7.2501 22.6736 7.2501 20.9415C7.2501 18.4916 9.23705 16.5053 11.6886 16.5053C12.1583 16.5053 12.611 16.5784 13.0356 16.7131V12.5379C7.77108 12.6467 3.53711 16.9461 3.53711 22.2337C3.53711 24.8733 4.59147 27.2662 6.3027 29.0145C7.84648 30.0506 9.70489 30.6549 11.7043 30.6549C17.0631 30.6549 21.4074 26.3129 21.4074 20.9567V10.2494H21.4072Z" fill="black" fill-opacity="0.3"/>
<path d="M28.7229 8.45907V7.34236C27.3499 7.34444 26.0038 6.96011 24.8389 6.23332C25.8701 7.36175 27.228 8.13984 28.7229 8.45907ZM21.4878 1.27726C21.4528 1.07759 21.426 0.876603 21.4073 0.674849V0H16.1271V20.9565C16.1187 23.3992 14.1351 25.3774 11.6886 25.3774C10.9704 25.3774 10.2923 25.207 9.69172 24.9042C10.5028 25.968 11.7834 26.6547 13.225 26.6547C15.671 26.6547 17.655 24.6767 17.6636 22.2336V1.27726H21.4878ZM13.0359 12.5379V11.349C12.5947 11.2888 12.1499 11.2585 11.7045 11.2587C6.3453 11.2586 2.00098 15.6007 2.00098 20.9565C2.00098 24.3143 3.70837 27.2735 6.30289 29.0142C4.59166 27.266 3.53731 24.873 3.53731 22.2335C3.53731 16.946 7.77117 12.6466 13.0359 12.5379Z" fill="#00F2EA"/>
<path d="M28.7229 8.45907V7.34236C27.3499 7.34444 26.0038 6.96011 24.8389 6.23332C25.8701 7.36175 27.228 8.13984 28.7229 8.45907ZM21.4878 1.27726C21.4528 1.07759 21.426 0.876603 21.4073 0.674849V0H16.1271V20.9565C16.1187 23.3992 14.1351 25.3774 11.6886 25.3774C10.9704 25.3774 10.2923 25.207 9.69172 24.9042C10.5028 25.968 11.7834 26.6547 13.225 26.6547C15.671 26.6547 17.655 24.6767 17.6636 22.2336V1.27726H21.4878ZM13.0359 12.5379V11.349C12.5947 11.2888 12.1499 11.2585 11.7045 11.2587C6.3453 11.2586 2.00098 15.6007 2.00098 20.9565C2.00098 24.3143 3.70837 27.2735 6.30289 29.0142C4.59166 27.266 3.53731 24.873 3.53731 22.2335C3.53731 16.946 7.77117 12.6466 13.0359 12.5379Z" fill="black" fill-opacity="0.3"/>
</svg>
