<svg width="32" height="32" viewBox="0 0 32 32" fill="none" xmlns="http://www.w3.org/2000/svg">
<path d="M31.298 7.90254C32 10.3596 32 15.6247 32 15.6247C32 15.6247 32 20.8312 31.298 23.3468C30.947 24.7508 29.8355 25.8038 28.4899 26.1548C25.9744 26.7983 16.0293 26.7983 16.0293 26.7983C16.0293 26.7983 6.02559 26.7983 3.51006 26.1548C2.16453 25.8038 1.05302 24.7508 0.702011 23.3468C0 20.8312 0 15.6247 0 15.6247C0 15.6247 0 10.3596 0.702011 7.90254C1.05302 6.49852 2.16453 5.387 3.51006 5.036C6.02559 4.33398 16.0293 4.33398 16.0293 4.33398C16.0293 4.33398 25.9744 4.33398 28.4899 5.036C29.8355 5.387 30.947 6.49852 31.298 7.90254ZM12.7532 20.3632L21.0603 15.6247L12.7532 10.8861V20.3632Z" fill="white"/>
</svg>
