<svg width="32" height="32" viewBox="0 0 32 32" fill="none" xmlns="http://www.w3.org/2000/svg">
<path d="M31.3319 8.49819C30.9631 7.12052 29.8804 6.03787 28.5027 5.66908C26.0083 5 16.0009 5 16.0009 5C16.0009 5 5.99373 5 3.49916 5.66908C2.12149 6.03787 1.03884 7.12052 0.670058 8.49819C0.000976763 10.9928 0.000976562 16.2005 0.000976562 16.2005C0.000976562 16.2005 0.000976763 21.4083 0.670058 23.9029C1.03884 25.2806 2.12149 26.3632 3.49916 26.7319C5.99373 27.401 16.0009 27.401 16.0009 27.401C16.0009 27.401 26.0083 27.401 28.5027 26.7319C29.8804 26.3632 30.9631 25.2806 31.3319 23.9029C32.001 21.4083 32.001 16.2005 32.001 16.2005C32.001 16.2005 31.9983 10.9928 31.3319 8.49819Z" fill="#FF0000"/>
<path d="M31.3319 8.49819C30.9631 7.12052 29.8804 6.03787 28.5027 5.66908C26.0083 5 16.0009 5 16.0009 5C16.0009 5 5.99373 5 3.49916 5.66908C2.12149 6.03787 1.03884 7.12052 0.670058 8.49819C0.000976763 10.9928 0.000976562 16.2005 0.000976562 16.2005C0.000976562 16.2005 0.000976763 21.4083 0.670058 23.9029C1.03884 25.2806 2.12149 26.3632 3.49916 26.7319C5.99373 27.401 16.0009 27.401 16.0009 27.401C16.0009 27.401 26.0083 27.401 28.5027 26.7319C29.8804 26.3632 30.9631 25.2806 31.3319 23.9029C32.001 21.4083 32.001 16.2005 32.001 16.2005C32.001 16.2005 31.9983 10.9928 31.3319 8.49819Z" fill="black" fill-opacity="0.3"/>
<path d="M12.7979 21.0003L21.1113 16.2009L12.7979 11.4014V21.0003Z" fill="white"/>
<path d="M12.7979 21.0003L21.1113 16.2009L12.7979 11.4014V21.0003Z" fill="black" fill-opacity="0.3"/>
</svg>
