<svg width="32" height="32" viewBox="0 0 32 32" fill="none" xmlns="http://www.w3.org/2000/svg">
<path d="M31.3309 8.49819C30.9622 7.12052 29.8794 6.03787 28.5017 5.66908C26.0073 5 15.9999 5 15.9999 5C15.9999 5 5.99275 5 3.49818 5.66908C2.12052 6.03787 1.03787 7.12052 0.669081 8.49819C2.00281e-07 10.9928 0 16.2005 0 16.2005C0 16.2005 2.00281e-07 21.4083 0.669081 23.9029C1.03787 25.2806 2.12052 26.3632 3.49818 26.7319C5.99275 27.401 15.9999 27.401 15.9999 27.401C15.9999 27.401 26.0073 27.401 28.5017 26.7319C29.8794 26.3632 30.9622 25.2806 31.3309 23.9029C32 21.4083 32 16.2005 32 16.2005C32 16.2005 31.9973 10.9928 31.3309 8.49819Z" fill="#FF0000"/>
<path d="M12.7969 21.0003L21.1103 16.2009L12.7969 11.4014V21.0003Z" fill="white"/>
</svg>
