<?xml version="1.0" encoding="UTF-8"?>
<!DOCTYPE svg PUBLIC "-//W3C//DTD SVG 1.1//EN" "http://www.w3.org/Graphics/SVG/1.1/DTD/svg11.dtd">
<!-- Creator: CorelDRAW -->
<svg xmlns="http://www.w3.org/2000/svg" xml:space="preserve" width="297mm" height="210mm" style="shape-rendering:geometricPrecision; text-rendering:geometricPrecision; image-rendering:optimizeQuality; fill-rule:evenodd; clip-rule:evenodd"
viewBox="0 0 297 210"
 xmlns:xlink="http://www.w3.org/1999/xlink">
 <defs>
  <style type="text/css">
   <![CDATA[
    .str0 {stroke:#1F1A17;stroke-width:0.25}
    .fil0 {fill:none}
   ]]>
  </style>
 </defs>
 <g id="Слой_x0020_3">
  <metadata id="CorelCorpID_0Corel-Layer"/>
  <path class="fil0 str0" d="M162.932 151.527l1.8437 3.5718c0.0452,0.0879 0.136,0.1432 0.2349,0.1432l2.7181 0c0.1002,0 0.1918,0.0566 0.2365,0.1463l1.706 3.4115c0.0448,0.0897 0.1363,0.1464 0.2366,0.1464l4.2021 0 3.2406 0c0.0437,0 0.0868,-0.0109 0.1254,-0.0318l3.3221 -1.7886c0.0387,-0.0209 0.0818,-0.0317 0.1254,-0.0317l3.4103 0c0.0613,0 0.1209,0.0214 0.1682,0.0603l2.036 1.6767c0.0841,0.0693 0.2024,0.0799 0.2977,0.0267l2.7553 -1.5431c0.1765,-0.0989 0.394,0.0286 0.394,0.2307l0 2.9882c0,0.1461 0.1185,0.2646 0.2646,0.2646l4.5241 -1.3095 6.0861 -0.7336 6.1908 -1.5025c0,-0.1461 0.1185,-2.0106 0.2646,-2.0106l1.9844 0 2.754 0c0.2223,0 0.3456,-0.2577 0.2059,-0.4308l-2.3502 -3.6457c-0.3095,-0.3845 -2.4,-1.881 -3.073,-2.4107 -1.9501,-1.2661 -2.4753,-3.3118 -1.5605,-5.4246 0.4119,-0.9526 2.439,-3.3667 2.3149,-3.4395 -1.2536,-0.7374 -3.991,-1.4535 -5.057,-2.3925l-3.1232 -2.7485c-0.0955,-0.0841 -0.2379,-0.0881 -0.3381,-0.0092 -1.4291,0.7965 -3.2194,2.1264 -4.4003,2.282 -1.1808,0.1556 -2.1163,-1.9144 -2.9934,-1.4797 -0.8459,0.4191 -0.9465,1.6466 -1.5508,2.5988 -2.7823,4.3834 -7.1993,7.0026 -8.9296,7.0026l-8.377 -0.0042c-0.0481,0 0.2786,2.5189 0.2374,2.544l-5.1664 1.3403 -2.9747 2.0693c-0.0442,0.0309 -0.0969,0.0473 -0.1511,0.0473l-1.5994 0c-0.1982,0 -0.326,0.2099 -0.235,0.3861z"/>
  <path class="fil0 str0" d="M119.127 116.808c-0.0328,0.0453 -0.0505,0.0998 -0.0505,0.1556l0 2.163c0,0.146 0.1185,0.2645 0.2645,0.2645l3.6113 0c0.0601,0 0.1186,0.0204 0.1654,0.058l1.8127 1.4502c0.0627,0.0502 0.0992,0.1262 0.0992,0.2066l0 1.6402c0,0.055 -0.0172,0.1087 -0.0492,0.1537l-1.9164 2.6829c-0.0124,0.0174 -0.027,0.0333 -0.0431,0.0471l-1.5669 1.343c-0.1318,0.113 -0.1209,0.3201 0.022,0.4185l3.4859 2.4041c0.0441,0.0304 0.0965,0.0468 0.15,0.0468l2.1058 0c0.1151,0 0.2169,0.0743 0.2519,0.1839l0.9869 3.084c0.0084,0.0261 0.0127,0.0534 0.0127,0.0807l0 3.0744c0,0.0392 0.0087,0.0775 0.0251,0.1127l1.0115 2.1495c0.0143,0.0304 0.0344,0.0579 0.059,0.0807l1.9471 1.8174 3.0691 2.3019c0.0667,0.05 0.1059,0.1283 0.1059,0.2117l0 2.5241c0,0.0772 -0.0339,0.1505 -0.0924,0.2008l-1.5502 1.3287c-0.1143,0.0979 -0.1238,0.2715 -0.0211,0.3816l1.6637 1.7825 1.6761 1.9156c0.0968,0.1105 0.0847,0.2791 -0.027,0.3749l-1.5748 1.3499c-0.0479,0.0412 -0.109,0.0637 -0.1722,0.0637l-1.6304 0c-0.0783,0 -0.1529,-0.0349 -0.2032,-0.0952l-1.1641 -1.397c-0.0503,-0.0603 -0.1249,-0.0953 -0.2032,-0.0953l-1.8606 0 -2.0161 0c-0.0648,0 -0.1273,-0.0238 -0.1757,-0.0669l-2.231 -1.9828c-0.0484,-0.0431 -0.1108,-0.0669 -0.1757,-0.0669l-1.8838 0 -3.9687 0c-1.6661,0 -0.7366,2.3907 -0.0342,3.6438 0.0225,0.04 0.0342,0.0847 0.0342,0.1307l0 2.8522c0,0.0765 0.0328,0.149 0.0902,0.1993l1.8259 1.5972c0.1103,0.0969 0.1209,0.2652 0.0233,0.375l-1.8606 2.0931c-0.05,0.0566 -0.122,0.0889 -0.1976,0.0889l-1.3364 0c-0.1461,0 -0.2646,0.1185 -0.2646,0.2646l0 3.3072 0 2.7782c0,0.146 -0.1186,0.2646 -0.2646,0.2646l-4.5207 0c-0.0701,0 -0.1373,0.0277 -0.187,0.0775l-1.9617 1.9616c-0.0497,0.0497 -0.0775,0.1169 -0.0775,0.1871l0 1.4779c0,0.1461 -0.1185,0.2646 -0.2646,0.2646l-1.8521 0c-0.146,0 -0.2645,0.1185 -0.2645,0.2646l0 4.2241c0,0.0883 0.0441,0.1709 0.1177,0.2201l2.1968 1.4645c0.0434,0.0291 0.0945,0.0444 0.1469,0.0444l4.4698 0c0.0524,0 0.1035,-0.0153 0.1469,-0.0444l2.2479 -1.4986c0.0434,-0.0291 0.0944,-0.0445 0.1468,-0.0445l3.6269 0c0.0818,0 0.1588,-0.0376 0.2088,-0.1021l1.6933 -2.177c0.05,-0.0646 0.127,-0.1021 0.2088,-0.1021l1.7894 0c0.0431,0 0.0854,0.0105 0.1238,0.0307l4.2989 2.2759c0.0866,0.046 0.1408,0.136 0.1408,0.2339l0 1.1636c0,0.1461 0.1185,0.2646 0.2646,0.2646l1.596 0c0.0783,0 0.1529,-0.0349 0.2032,-0.0952l1.1273 -1.3528c0.0702,-0.0842 0.0813,-0.2025 0.0281,-0.298l-1.2208 -2.1976c-0.0093,-0.0167 -0.0204,-0.0323 -0.0331,-0.0466l-1.7952 -2.0346c-0.0947,-0.1074 -0.0868,-0.2707 0.018,-0.3686l1.7804 -1.6616c0.0106,-0.0097 0.022,-0.0187 0.0339,-0.0267l3.1083 -2.0722c0.032,-0.0214 0.059,-0.0497 0.0791,-0.0825l1.7444 -2.8658c0.0479,-0.0788 0.1336,-0.127 0.226,-0.127l1.9282 0c0.1045,0 0.1993,-0.0616 0.2419,-0.1571l1.4933 -3.3602c0.0161,-0.036 0.0399,-0.0678 0.0696,-0.0934l2.7175 -2.3291c0.0101,-0.0088 0.0198,-0.0186 0.0286,-0.0286l1.5742 -1.8368 2.0693 -2.9747c0.031,-0.0442 0.0474,-0.0968 0.0474,-0.151l0 -3.5018c0,-0.0759 0.0326,-0.1482 0.0894,-0.1984l2.1336 -1.8826c0.0172,-0.015 0.0363,-0.028 0.0569,-0.0381l3.0493 -1.5247c0.0609,-0.0305 0.131,-0.0363 0.1961,-0.0162l5.0199 1.5447c0.0254,0.0076 0.0516,0.0116 0.0778,0.0116l3.4227 0c0.0701,0 0.1373,-0.0278 0.187,-0.0775l1.51 -1.51 2.4096 -2.53c0.1196,-0.1256 0.3254,-0.1042 0.4164,0.0432l1.4621 2.3614c0.0482,0.078 0.1334,0.1254 0.2249,0.1254l3.0276 0c0.1461,0 0.2646,-0.1185 0.2646,-0.2646l0 -2.2489c0,-0.1461 0.1186,-0.2646 0.2646,-0.2646l2.249 0 2.9104 0 2.9086 0 0.6633 0c2.8454,0 7.6309,-3.9512 8.9308,-6.3493 0.473,-0.8726 1.1449,-2.185 1.7692,-3.0932 0.7777,-1.1286 7.9531,2.9873 7.9531,-1.9735 0,-0.0603 -0.0207,-0.1191 -0.0588,-0.1662 -3.9117,-2.9885 -4.3941,-4.0409 -8.7847,-4.0409 -4.5487,0 -7.3332,-0.6382 -9.7652,-4.2863 -0.0291,-0.0434 -0.0444,-0.0945 -0.0444,-0.1468 0,-0.8401 0.5591,-5.3258 -1.7463,-3.3367l-1.8113 1.5526c-0.0096,0.0082 -0.0196,0.0156 -0.0302,0.0222l-2.8751 1.8716c-8.0943,0.2855 -10.036,1.3916 -13.6455,-3.585l0.1551 -3.0366c-2.2853,-0.026 -4.7758,0.6389 -7.0636,0.6389 -0.0662,0 -0.1299,-0.0249 -0.1789,-0.0696l-6.1233 -4.1778c-0.0968,0 -2.7283,2.4381 -3.042,2.6684 -0.611,0.4486 -1.7519,-0.3395 -2.5869,-1.2494 -0.0498,-0.0524 -0.1191,-0.082 -0.1913,-0.082l-3.9906 -0.8022c-1.8954,0.5166 -3.3911,1.4337 -4.9892,1.6107 -2.0546,0.2275 -4.1912,-0.3669 -6.6368,-0.3669l-3.3178 -0.4416c-0.3991,0 -1.9082,2.4385 -2.2008,2.8408z"/>
  <path class="fil0 str0" d="M237.308 95.9068l-1.9119 3.3141c-0.0233,0.0402 -0.0355,0.0857 -0.0355,0.1323l0 3.4269c0,0.0484 0.0133,0.096 0.0384,0.1373l2.1722 3.5777c0.0252,0.0413 0.0384,0.0889 0.0384,0.1373l0 2.7041 0 2.9972c0,0.1074 -0.0651,0.2042 -0.1648,0.245l-3.2422 1.3208c-0.0998,0.0407 -0.1649,0.1376 -0.1649,0.245l0 3.651c0,0.0875 0.0434,0.1693 0.1159,0.2188l3.1239 2.1243c0.044,0.0299 0.0958,0.0458 0.149,0.0458l2.3699 0c0.1156,0 0.218,0.0751 0.2524,0.1857l1.2478 3.9929c0.0113,0.0359 0.0301,0.0693 0.0555,0.0976l2.1431 2.3953c0.0434,0.0486 0.0675,0.1114 0.0675,0.1764l-0.7848 2.3189c0,1.8353 2.6369,2.8888 2.6369,4.4487l0 3.1855c0,0.1461 0.1185,0.2646 0.2646,0.2646l1.4779 0c0.0702,0 0.1374,-0.0278 0.1871,-0.0775l1.9069 -1.9069 2.5664 -3.0797c0.0503,-0.0603 0.1249,-0.0953 0.2032,-0.0953l4.771 0 3.3054 0c0.0844,0 0.1635,-0.0402 0.2135,-0.1082l1.2841 -1.7507c0.0566,-0.0775 0.0669,-0.1794 0.027,-0.2667l-1.3664 -2.9813c-0.0158,-0.0344 -0.024,-0.0715 -0.024,-0.1093l0 -3.7796 0 -2.7329c0,-0.1077 0.0651,-0.204 0.1648,-0.2447l3.3592 -1.3684c0.0314,-0.013 0.0656,-0.0196 0.0997,-0.0196l1.8002 0c0.1461,0 0.2646,-0.1185 0.2646,-0.2646l0 -2.0029c0,-0.0725 0.0299,-0.1421 0.0826,-0.1921l2.3545 -2.2304c0.0489,-0.0466 0.1143,-0.0725 0.1818,-0.0725l2.8051 0 3.3073 0 3.9793 0c0.0773,0 0.1505,-0.0339 0.2008,-0.0924l2.2384 -2.6114c0.0413,-0.0479 0.0638,-0.109 0.0638,-0.1722l0 -4.5324c0,-0.9593 0.5143,-1.3739 1.0054,-1.5224 0.2185,-0.0658 0.3656,-0.3537 0.2286,-0.5363l-1.111 -1.4814c-0.0725,-0.0965 -0.0704,-0.2299 0.005,-0.3241l1.3115 -1.6393c0.0842,-0.1054 0.0757,-0.2572 -0.0195,-0.3525l-1.42 -1.42 -2.3395 -1.8195c-0.0275,-0.0215 -0.0505,-0.0482 -0.068,-0.0786l-1.629 -2.8826c-0.0408,-0.072 -0.0455,-0.1585 -0.013,-0.2345l0.699 -1.6309c0.0275,-0.0645 0.0797,-0.1153 0.145,-0.1415l3.039 -1.2158c0.1006,-0.0399 0.1665,-0.1373 0.1665,-0.2455l0 -2.2249c0,-0.0701 -0.0278,-0.1373 -0.0776,-0.187l-1.8521 -1.8521c-0.1666,-0.1667 -0.0486,-0.4517 0.1871,-0.4517l1.478 0c0.146,0 0.2646,-0.1185 0.2646,-0.2646l0 -2.4254c0,-0.0571 0.0185,-0.113 0.0529,-0.1587l1.4279 -1.9037c0.0646,-0.086 0.0704,-0.2027 0.0151,-0.295l-1.4581 -2.4302c-0.0249,-0.0413 -0.0378,-0.0884 -0.0378,-0.1363l0 -3.234c0,-0.146 -0.1186,-0.2646 -0.2646,-0.2646l-3.7336 0c-0.0661,0 -0.1291,-0.0243 -0.1783,-0.0685 -1.103,-0.9898 -3.6486,-2.8419 -5.6131,-2.8419l-2.7864 0c-0.0788,0 -0.1532,-0.0352 -0.2034,-0.096l-2.2122 -2.6779c-0.1114,-0.1349 -0.3212,-0.1265 -0.4212,0.0175l-1.7508 2.517c-0.0894,0.1283 -0.2698,0.1516 -0.3889,0.0502l-3.2756 -2.7903c-0.0478,-0.0407 -0.1087,-0.0632 -0.1714,-0.0632l-3.2819 0c-0.0397,0 -0.0788,-0.009 -0.1146,-0.0259l-2.8739 -1.3796c-0.1756,-0.0844 -0.3791,0.0437 -0.3791,0.2384l0 4.1423c0,0.0442 -0.0111,0.0879 -0.0323,0.1268l-1.5229 2.7919c-0.0212,0.0389 -0.0323,0.0825 -0.0323,0.1267 0,3.4997 0.003,3.5014 -2.4368,5.9412 -0.1114,0.1114 -0.1014,0.2953 0.0217,0.3937 1.442,4.1384 -1.5006,5.5665 -3.1673,6.1372 -2.1077,0.9115 -2.883,3.3448 -3.9126,5.008 -0.9969,1.6107 -3.326,2.1378 -4.9923,3.0542 -0.0423,0.0233 -0.0775,0.0579 -0.1018,0.0998z"/>
  <path class="fil0 str0" d="M172.823 120.312c-0.0971,0.1439 -8.827,0.2263 -10.3853,-1.515 -0.5548,-0.6198 -0.3668,-1.4816 -0.3668,-2.4411 0.2873,-2.6851 -1.9777,-2.3419 -5.2407,-1.7181 -0.0346,0 -3.2805,0.5063 -3.3125,0.4942l-4.8117 -2.7643 0.5614 -2.8964 -2.1355 -3.5352c0.1945,-1.1828 0.3889,-2.3656 0.5833,-3.5485 1.0453,-1.1916 2.0906,-2.3831 3.1359,-3.5747l17.3053 4.19 17.1561 -6.2208 5.202 3.4226c0.2823,-0.0073 3.7289,-0.4836 4.0352,-0.4836 0.5382,0 4.6209,2.5016 6.4855,2.769 0.077,0 6.3239,0.0066 6.3742,-0.0516 0.665,-0.7698 6.3727,-2.2442 7.4168,-2.2442l4.6532 0.7339c3.779,1.4674 4.4672,4.4388 8.9402,1.0794l2.43 -1.8227c0.0875,-0.0656 0.2063,-0.0706 0.2989,-0.0127 1.2075,1.046 1.567,1.3533 2.2073,2.7564l0.814 2.2228c0,0.0548 0.0169,0.1082 0.0487,0.1529l1.493 2.1077 -0.1447 3.696c-0.2837,0.1093 -1.3337,0.3613 -1.4721,0.6154l-1.6931 1.7122c-0.0212,0.0389 0.1807,1.0836 0.1807,1.1278l0 4.6218c0,0.0478 0.013,0.0949 0.0378,0.1362l1.4727 2.4543c0.0476,0.0799 0.1339,0.1286 0.2268,0.1286l1.9997 0c0.064,0 0.1259,0.0233 0.1743,0.0653l3.0689 2.6856c0.0207,0.0179 0.0384,0.0391 0.0527,0.0629l1.4465 2.4109c0.0685,0.114 0.0415,0.2609 -0.0627,0.3434 -1.0998,1.3918 -1.1813,2.1962 -0.3929,3.6362 0.3213,0.5869 1.66,2.2444 2.0588,3.4499 0.3812,1.1521 -0.8122,2.1505 -1.4836,2.9562l-1.5553 2.4625c-0.0211,0.0336 -0.0497,0.0619 -0.0836,0.0831l-2.9564 1.8478c-0.0992,0.0619 -0.2273,0.0513 -0.3151,-0.0259l-2.0259 -1.7878c-0.0485,-0.0426 -0.1106,-0.0662 -0.1752,-0.0662l-2.8104 0c-0.1461,0 -0.2646,0.1186 -0.2646,0.2646l0 4.2334c0,0.146 -0.1185,0.2645 -0.2646,0.2645l-2.3812 0 -3.4396 0 -2.4321 0c-0.0531,0 -0.105,0.0159 -0.1489,0.0458l-3.2017 2.1773c-0.0252,0.0172 -0.0474,0.0386 -0.0651,0.0632l-2.0103 2.7641c-0.05,0.0685 -0.1294,0.109 -0.2141,0.109l-3.6298 0c-0.0471,0 -0.0929,-0.0124 -0.1336,-0.0362 -0.7903,-0.4678 -2.3429,-1.3984 -4.0947,-2.6351 -2.5502,-2.5143 1.9148,-6.2385 1.9015,-7.4757 -0.0147,-1.3615 -3.584,-2.3848 -4.428,-2.8333 -1.8393,-0.9773 -5.0107,-3.9603 -5.0107,-4.0463 0,-3.0741 -1.1388,-2.2861 -1.1388,-5.3307 0,-0.146 -0.1185,-0.2646 -0.2645,-0.2646 -3.3162,-0.6458 -3.0897,-0.5668 -6.0063,-2.5527 -0.0501,-0.059 -0.1239,-0.0931 -0.2014,-0.0931l-4.3757 0c-2.944,-0.4458 -4.8132,-0.416 -7.0114,-2.7781 -0.615,-3.5269 -0.9421,-5.079 -1.6778,-5.5857 -1.8636,-1.2837 -6.6722,3.0795 -7.943,3.9934z"/>
  <path class="fil0 str0" d="M194.672 55.7515l1.8891 5.2464 1.9462 0.8896 0.1994 2.4047 1.6434 2.0022 3.6244 3.8376 -0.8528 8.8478 -1.7056 5.6498 -3.6786 6.8217 -1.2832 0.4753 -1.8575 5.1901c0.3369,0.331 8.0498,3.6921 7.8731,3.3383l5.9182 -0.168 6.147 -2.2944 8.6778 1.9973c4.0693,2.0817 4.166,-1.6968 7.4117,-2.2628 1.2211,-0.213 2.6455,0.8262 3.1333,-0.2093l1.7168 -3.6444c0.0116,-0.0915 0.0699,-0.1704 0.1537,-0.2085 5.7997,-2.6546 4.7378,-1.6478 7.5102,-6.2903 0.6784,-1.1359 2.2083,-1.3292 3.1444,-2.3299 1.1662,-1.2465 0.8217,-3.2271 0.6232,-4.0891 -0.1369,-0.5948 0.8699,-1.328 1.435,-1.8731 2.021,-2.1563 1.1749,-2.1569 1.1749,-5.0991 0,-0.0651 0.0241,-0.1278 0.0675,-0.1765l2.0529 -2.2945c0.0765,-0.0854 0.0892,-0.2108 0.031,-0.3101l-2.1384 -3.648c-0.0087,-0.0146 -0.0185,-0.0283 -0.0299,-0.041l-1.8883 -2.1405c-0.0503,-0.0569 -0.1225,-0.0895 -0.1985,-0.0895l-2.2227 0c-0.1043,0 -0.199,-0.0613 -0.2416,-0.1566l-2.159 -4.826c-0.013,-0.0294 -0.0315,-0.0561 -0.0542,-0.0788l-1.3864 -1.3864c-0.095,-0.095 -0.2461,-0.1038 -0.3514,-0.0204l-2.9181 2.3101c-0.0468,0.037 -0.1048,0.0571 -0.1643,0.0571l-2.7654 0c-0.035,0 -0.0696,0.0069 -0.1019,0.0204l-1.5092 0.6289c-0.0196,0.0079 -0.0381,0.0185 -0.055,0.0312l-2.4178 1.7815c-0.0455,0.0336 -0.1005,0.0515 -0.1571,0.0515l-3.6624 0c-0.0566,0 -0.1117,-0.0179 -0.1572,-0.0515l-2.3733 -1.7489c-0.0455,-0.0336 -0.1005,-0.0516 -0.1571,-0.0516l-2.5588 0c-1.3671,0.1764 -4.4186,0.4233 -5.6886,0 -1.2512,-0.417 -2.0058,-2.2381 -2.2389,-3.1353 -0.0068,-0.0268 -0.0092,-0.0527 -0.0074,-0.0805 0.0881,-1.3007 0.2069,-4.2643 -0.0026,-6.0447 -0.1993,-1.6925 -1.9749,-2.7373 -2.9925,-3.112 -0.1079,-0.0399 -0.1825,-0.1413 -0.1825,-0.2564l0 -1.3692c0,-0.0968 -0.0514,-0.1857 -0.1381,-0.2288 -1.1018,-0.5473 -4.1074,-1.5158 -8.4609,-1.5158 -1.6081,0 -2.9456,-1.3521 -3.4917,-2.1303 -0.0516,-0.0735 -0.1344,-0.1187 -0.2241,-0.1187l-0.9736 0 0 8.5395 -2.9266 3.3599z"/>
  <path class="fil0 str0" d="M88.2449 49.2607c0.5696,-1.9372 0.4301,-4.5436 0.4301,-6.5967l2.9081 -4.9284c2.0934,-2.173 1.4524,-1.0902 3.4559,-3.1176 0.0305,-0.0765 2.0994,-0.1663 5.0037,-0.1663 0.0854,0 3.404,0.9443 3.4537,0.8748 2.8297,1.689 2.6998,-0.335 5.3608,1.2302 0.0217,0.0128 0.0452,0.0225 0.0698,0.0286l2.0482 0.512c0.0209,0.0053 0.0423,0.0079 0.064,0.0079l1.2904 0 1.3229 0 1.3229 0 1.9532 0c0.1002,0 0.1918,0.0566 0.2365,0.1463l0.8443 1.6884c0.0058,0.0116 0.0124,0.0228 0.0198,0.0334l0.734 1.0486c0.0944,0.1347 0.2876,0.1517 0.404,0.0353l1.0747 -1.0748c0.0167,-0.0167 0.031,-0.0354 0.0426,-0.0559l0.9647 -1.688c0.0471,-0.0824 0.1347,-0.1333 0.2297,-0.1333l2.4924 0 1.5874 0c0.1461,0 0.2646,0.1185 0.2646,0.2646l0 1.5875 0 1.1763c0,0.0912 0.0471,0.176 0.1244,0.2244l1.8423 1.1514c0.0907,0.0567 0.2069,0.0532 0.2939,-0.0091l1.6391 -1.1708c0.045,-0.0321 0.0987,-0.0493 0.1537,-0.0493l1.6352 0 1.4697 0c0.0749,0 0.1463,-0.0318 0.1966,-0.0876l1.033 -1.1477c0.0502,-0.0558 0.1217,-0.0876 0.1965,-0.0876l1.8198 0c0.1083,0 0.2056,0.0659 0.2456,0.1663l0.9255 2.3132c0.0399,0.1005 0.1373,0.1663 0.2455,0.1663l1.2907 0c0.0748,0 0.1463,0.0319 0.1965,0.0876 1.3636,2.2114 1.8702,3.8068 4.7385,5.5235 1.7439,2.1932 2.9391,4.6191 2.2135,7.3152 -0.0127,0.0254 -0.0297,0.0486 -0.0498,0.0688 -1.2619,1.2619 -4.9395,3.0188 -3.6279,4.9315l1.4729 2.1709c0.626,0.9229 2.4307,0.407 3.1553,0.7909 0.2835,0.1502 0.1108,1.214 0.0747,1.3897 -0.3966,1.926 -2.2034,1.5058 -4.4498,2.0188l-2.8509 2.4854 -2.0625 3.4043 -6.9288 0.9817 -8.5595 -1.4979 -3.6482 -1.4261 -5.6028 -1.4373 -4.8214 0.1601 -2.7591 -1.0378c2.0543,-3.3543 3.0982,-5.4302 2.4808,-8.4136 -0.0947,-2.6967 -1.4758,-3.3268 -2.8797,-3.9378 -2.052,-0.8932 -5.7159,-0.9198 -9.1058,-1.0032 -2.7883,-0.0685 -5.611,-0.7837 -7.6759,-4.9171z"/>
  <path class="fil0 str0" d="M83.1979 51.8437c0.0405,-0.0167 3.033,-2.1551 3.0608,-2.189l0.835 -4.4626c0.0209,-0.0254 0.4594,-3.7156 0.4695,-3.7471 1.1237,-1.4602 2.9553,-5.6762 3.9272,-6.0549 0.8415,-0.3279 3.2514,-1.0596 0.2673,-2.4868 -0.0429,-0.0206 -0.0796,-0.0523 -0.1061,-0.0919l-1.2039 -1.8061c-0.0492,-0.0736 -0.1317,-0.1178 -0.2201,-0.1178l-3.298 0c-1.0359,0 -2.4098,-0.845 -3.0052,-1.2943 -0.0251,-0.019 -0.0529,-0.0334 -0.0833,-0.0426l-3.3557 -1.0326c-0.0254,-0.0078 -0.0516,-0.0117 -0.0778,-0.0117l-2.6792 0c-0.0391,0 -0.0775,0.0086 -0.1127,0.0252l-2.086 0.9816c-0.0695,0.0327 -0.15,0.0336 -0.2201,0.0023l-2.2706 -1.0091 -2.9409 -1.0229c-0.0653,-0.0227 -0.1368,-0.019 -0.1995,0.0105l-2.0386 0.9593c-0.0714,0.0336 -0.154,0.0336 -0.2254,0l-2.0828 -0.9801c-0.0352,-0.0166 -0.0736,-0.0252 -0.1127,-0.0252l-3.1158 0 -2.8961 0c-0.0913,0 -0.1759,0.047 -0.2244,0.1244l-1.2128 1.9405c-0.0212,0.0341 -0.05,0.0629 -0.0841,0.0842l-2.0164 1.2603c-0.0321,0.0199 -0.0593,0.0464 -0.0799,0.0776l-1.1915 1.7869c-0.0603,0.0905 -0.1698,0.1349 -0.2762,0.1118l-2.8387 -0.6171c-0.0185,-0.004 -0.0373,-0.0061 -0.0561,-0.0061l-2.8821 0c-0.1461,0 -0.2646,0.1185 -0.2646,0.2646l0 1.8129c0,0.026 -0.0037,0.0518 -0.0114,0.0767l-1.3001 4.2906c-0.0076,0.0249 -0.0114,0.0507 -0.0114,0.0767l0 2.473c0,0.084 0.04,0.1631 0.1076,0.213l2.2983 1.6934c0.0677,0.0499 0.1076,0.129 0.1076,0.213l0 2.909 1.2672 0.3413c2.367,0.487 5.0517,0.1658 8.3163,0.6897 3.4005,0.5458 6.5842,0.6653 10.0023,0.9046 2.0506,0.1436 5.4536,1.0834 7.2035,1.3509 3.9111,0.5979 6.0105,2.6975 6.9176,2.3239z"/>
  <path class="fil0 str0" d="M77.4895 76.6237l-0.3808 5.6747 0.9776 6.663 -1.1395 7.1573 2.8606 6.5035 5.9466 6.0377c-0.01,0.0101 -0.0209,0.0194 -0.0322,0.0276l-2.2948 1.6573c-0.0449,0.0325 -0.0992,0.05 -0.1548,0.05 -0.502,0 -2.5467,-0.2035 -2.8948,0.0513l-3.7751 3.6636 -3.1765 -7.6517 -0.1015 -8.0659c-3.4909,-3.0149 -7.5982,-7.1522 -12.1809,-8.4314l-5.5291 -0.9615 -4.5503 -5.0176 -7.3632 -1.8474 -3.7376 -8.614c-7.279,-1.2983 -9.2084,1.1083 -3.3045,-4.7973l5.2917 -4.6302 2.3813 -2.6458 2.1725 -2.0447c0.0491,-0.0463 0.1139,-0.072 0.1814,-0.072l2.5409 0 2.6458 0c0.146,0 0.2646,-0.1185 0.2646,-0.2646l0 -2.8289c0,-0.2315 0.2765,-0.3514 0.4455,-0.1929l1.1002 1.0315c1.0449,0.9794 2.5592,1.2702 3.5528,2.3311l1.8346 1.9569c0.05,0.0534 0.1199,0.0836 0.1929,0.0836 3.1598,0 7.1615,0.329 7.1615,4.6302l0 2.5313c0,0.073 0.0301,0.1428 0.0836,0.1928 2.0956,1.9645 3.6473,3.1465 6.2381,4.6839 -0.0878,0.1097 4.7434,0.3548 4.7434,3.1386z"/>
  <path class="fil0 str0" d="M73.8987 116.613l-5.3577 0 -4.1902 0c-0.1063,0 -0.2024,0.0635 -0.2436,0.1614l-1.3314 3.147c-0.0347,0.082 -0.1082,0.141 -0.1956,0.1571l-3.3006 0.6112c-0.0826,0.0154 -0.1675,-0.0095 -0.2289,-0.0667l-1.8026 -1.6824c-0.0537,-0.0503 -0.0841,-0.1202 -0.0841,-0.1937l0 -2.1339 0 -1.8521c0,-0.146 -0.1186,-0.2645 -0.2646,-0.2645l-4.7625 0 -4.0299 0c-0.0466,0 -0.0923,-0.0122 -0.1325,-0.0358l-2.4289 -1.406c-0.0155,-0.009 -0.0319,-0.0164 -0.0489,-0.0219l-3.5055 -1.1687c-0.027,-0.009 -0.0553,-0.0135 -0.0837,-0.0135l-3.3051 0c-0.0593,0 -0.1169,-0.0198 -0.1635,-0.0566l-1.7802 -1.3986 -2.3505 -1.6084c-0.0967,-0.0661 -0.2254,-0.0608 -0.3163,0.0132l-1.8904 1.5359c-0.0472,0.0384 -0.1061,0.0593 -0.1669,0.0593l-2.4532 0c-0.0637,0 -0.1252,-0.023 -0.1733,-0.0646l-1.8352 -1.5906c-0.0481,-0.0416 -0.1096,-0.0646 -0.1733,-0.0646l-1.9083 0c-0.2358,0 -0.3538,-0.2849 -0.1871,-0.4516l0.7968 -0.797c0.1107,-0.1105 0.1016,-0.2926 -0.0196,-0.3918l-1.2129 -0.9925c-0.0107,-0.0087 -0.022,-0.0164 -0.0338,-0.0232l-3.6879 -2.1619c-0.081,-0.0477 -0.1308,-0.1345 -0.1308,-0.2284l0 -3.6848 0 -4.1847c0,-0.109 0.0671,-0.2064 0.167,-0.2503 0.8665,-0.3802 2.5806,-1.4226 3.6695,-3.1057 0.802,-1.2393 0.7292,-1.8804 0.4478,-2.1735 -0.1477,-0.1537 -0.2616,-0.431 -0.1251,-0.5951l2.2438 -2.6924c0.0503,-0.0603 0.1247,-0.0952 0.2033,-0.0952l1.8604 0 2.0953 0c0.2219,0 0.3453,-0.2567 0.2066,-0.43l-2.2439 -2.8048c-0.0375,-0.0468 -0.058,-0.1053 -0.058,-0.1654l0 -4.2153c0,-0.0378 0.0081,-0.0752 0.0237,-0.1095l2.3 -5.06 5.6152 1.3887 4.4282 8.5919 7.1569 1.8976 5.6566 5.4752 6.4563 0.9514 5.3185 3.0563 3.9852 4.4121 0.6641 4.8957 4.3957 11.2077 -1.4844 0.674z"/>
  <path class="fil0 str0" d="M58.6009 49.0133l9.5523 0.4767 6.1506 1.4038 7.7061 3.0181c0.7408,0.1841 4.4824,-2.4284 5.6173,-2.006 0.9444,0.3514 1.5739,2.5559 4.3874,3.3824 4.6891,1.3776 12.0428,1.4804 12.0805,1.5144 1.808,1.6303 0.5678,7.2948 -1.5384,8.7408 -0.9573,0.6571 -1.8942,9.3706 -3.6816,7.3834 -0.2627,-0.2921 -4.7374,-0.7329 -4.9744,-0.3062 -0.0177,0.032 -4.2333,-4.3161 -6.9001,-4.3161l-2.4485 -0.2234c-1.24,0 -3.6511,0.7787 -4.4952,-0.0654 -1.1909,-1.1894 -4.8476,0.9393 -7.1551,2.0025 -1.0964,0.4767 -3.319,-0.2945 -4.0328,-1.5684 -0.1481,-0.2644 -0.5621,-1.0005 -0.5208,-1.2527 0,-5.5931 -3.7549,-6.9278 -8.0433,-7.2079 -0.146,0 -1.8674,-1.8002 -1.9542,-1.8194l-3.249 -1.8515c-0.2195,-0.3554 -1.5096,-2.0395 -1.5096,-2.2798l0 -1.323c0,-0.146 -0.1186,-0.2645 -0.2646,-0.2645l-1.7788 0c-0.0479,0 -0.095,-0.013 -0.1363,-0.0379l-1.7928 -1.0758c-0.0799,-0.0476 -0.1286,-0.1339 -0.1286,-0.2267l0 -2.0992 9.1099 0.0018z"/>
  <path class="fil0 str0" d="M103.331 69.1097l4.5181 1.4994 6.2714 0.1721 6.8522 2.4574 11.0135 1.2634 4.4831 0.0364 2.4255 4.4639 -0.7957 6.0193 2.8096 4.9541c1.7544,0.9624 3.8658,-0.3619 5.382,-0.6979 1.2708,-0.2817 1.5565,-0.3207 1.7782,0.5845l0.4963 5.4121 -0.4241 2.5257c-0.1606,0.9568 -1.1534,1.229 -1.7278,2.155 -0.9574,1.5433 -1.612,3.5907 -1.612,4.0263l1.3278 5.3091 -1.7096 1.0269 -1.6941 2.5337 -6.8679 -2.021 -4.659 1.5602 -3.6952 -0.0111 -1.7805 -0.043 -4.8358 -0.6254 -1.6782 1.9913 -3.5718 0 -2.589 0 -2.4744 -2.6046 -0.0484 -0.051 -0.0693 0.0116 -2.3273 0.3879 -1.7878 -1.2771 -1.3094 -1.964 -0.0177 -0.0268 -0.0281 -0.0156 -2.3812 -1.3229 0 0 -0.0032 -0.0016 -3.0427 -1.5875 -0.0286 -0.0151 -0.0325 0 -1.0583 0 -3.0338 -1.0048 -4.905 1.8401 -3.0374 1.2586 -2.3332 -3.122 -3.8573 -2.676 -2.3277 -5.712 0.9942 -6.517 -0.6176 -7.1857 0.8789 -3.2245 -0.2257 -3.6052 -2.8372 -3.5118c-1.1561,-1.4311 4.884,-1.9963 5.0238,-1.2495 0.0399,0.2135 3.4116,0.3086 3.8455,0.0917 2.1859,-1.0935 2.0982,-0.6421 3.0643,0.1645 2.8988,2.4201 2.6112,3.4985 4.1036,3.4985l3.7056 0.3971 4.0239 0.3956c1.3506,-1.9369 2.427,-5.9633 2.427,-5.9633z"/>
  <polygon class="fil0 str0" points="139.695,75.7928 141.432,70.6355 146.643,67.9052 149.402,66.085 152.978,60.321 160.335,56.175 167.999,52.8379 174.162,50.1615 178.362,52.8835 187.004,57.3885 192.702,56.2984 194.424,62.0637 196.896,63.2483 197.15,67.3598 201.459,71.2489 200.688,78.4681 199.025,84.3356 196.671,88.9936 194.43,90.235 191.807,97.5007 184.817,94.6885 167.936,100.62 150.852,97.0693 150.397,88.0984 147.491,86.2328 142.646,88.0944 140.614,85.2983 141.227,78.6242 "/>
  <path class="fil0 str0" d="M185.619 22.1563l2.9877 0 0.3196 0c0.146,0 0.2645,0.1184 0.2645,0.2645l0 1.4553c0,0.1461 0.1186,0.2645 0.2646,0.2645l2.6459 0c0.146,0 0.2645,0.1185 0.2645,0.2646l0 2.9982c0,0.107 0.0646,0.2035 0.1636,0.2445l3.5094 1.4522c0.0989,0.0409 0.1635,0.1374 0.1635,0.2445l0 2.469 0 2.3622c0,0.0937 -0.0497,0.1805 -0.1304,0.228l-1.7926 1.0544c-0.1582,0.0932 -0.1757,0.3155 -0.0339,0.4323l1.8606 1.5322c0.0608,0.0503 0.0963,0.1252 0.0963,0.2043l0 3.0501 -1.115 3.8024c0,1.7291 1.0255,3.1366 0.8385,5.1246l-3.0482 4.9428 -4.659 0.8466 -9.7135 -4.653 -3.635 -3.1001 -5.6475 2.5574 -7.995 3.5178 -7.6752 4.3706c-1.4027,1.1167 -2.8054,2.2334 -4.208,3.35 -1.1979,-1.6772 -1.0107,-1.1548 -3.0329,-1.4406 -1.3624,-0.1925 -2.6079,-0.7829 -0.9341,-2.5968l2.8279 -2.0902c0.0675,-0.05 0.1074,-0.1289 0.1074,-0.2128l0 -2.8495c0,-0.0395 -0.0087,-0.0783 -0.0256,-0.1138l-1.2973 -2.7242c-0.3638,-0.6436 -1.231,-2.6815 -1.765,-3.0762 -2.6572,-1.9639 -3.0683,-2.3891 -4.3043,-5.4229 -0.0709,-0.174 0.0572,-0.3644 0.245,-0.3644l0.7972 0c0.1461,0 0.2646,-0.1184 0.2646,-0.2646l0 -2.3468c0,-0.1019 0.0585,-0.1947 0.1505,-0.2387l2.6263 -1.256c0.1418,-0.0679 0.1937,-0.2441 0.1106,-0.3779l-1.37 -2.2134c-0.0955,-0.1541 -0.0111,-0.3564 0.1654,-0.3971l2.9352 -0.6773c0.0897,-0.0208 0.1622,-0.0867 0.1913,-0.1742l1.2158 -3.647c0.036,-0.1081 0.137,-0.181 0.2511,-0.181l3.1504 0c0.0635,0 0.1249,-0.0227 0.1727,-0.0641l3.6878 -3.179c0.0479,-0.0414 0.1093,-0.0641 0.1728,-0.0641l2.9443 0 2.7781 0 3.4396 0 1.4957 0c0.0595,0 0.1172,-0.0201 0.1637,-0.057l2.3411 -1.848c0.0635,-0.0502 0.1005,-0.1267 0.1005,-0.2076l0 -2.1208c0,-0.1461 0.1185,-0.2646 0.2646,-0.2646l3.3377 0c0.0656,0 0.1289,0.0244 0.1776,0.0684l2.5328 2.2917c0.0974,0.0881 0.2448,0.0914 0.3461,0.0078l2.7929 -2.3073c0.0474,-0.0391 0.1069,-0.0606 0.1686,-0.0606l3.0593 0c0.0945,0 0.1818,0.0504 0.2292,0.1321 1.3395,0.507 2.6233,1.0586 3.76,1.0586z"/>
  <path class="fil0 str0" d="M207.05 159.272l0 3.2536c0,0.0791 0.0355,0.154 0.0963,0.2043l2.0794 1.7124c0.0473,0.0389 0.1069,0.0603 0.1683,0.0603l2.9477 0c0.146,0 0.2646,0.1185 0.2646,0.2646l0 2.6458 0 3.1872c0,0.0765 0.0328,0.1489 0.0902,0.1992l1.9516 1.7076c0.0484,0.0421 0.1103,0.0654 0.1743,0.0654l2.1495 0 5.5039 0c0.0346,0 0.0687,-0.0069 0.1008,-0.0199l4.401 -1.8123c0.0321,-0.013 0.0659,-0.0199 0.1006,-0.0199l3.2551 0 5.9976 0c0.2725,0 0.367,0.3622 0.1291,0.4956l-2.2873 1.2808c-0.0833,0.0466 -0.1352,0.1344 -0.1352,0.2302l0 3.5497c0,1.4554 -2.3831,2.3492 -3.6377,2.6312 -0.044,0.0098 -0.0842,0.0302 -0.1183,0.0601l-3.0438 2.6786c-0.1145,0.1008 -0.2908,0.0839 -0.3842,-0.0367l-1.747 -2.2612c-0.1344,-0.1738 -0.5001,-0.4262 -0.7197,-0.4262l-1.8587 0c-2.1825,0 -3.2956,1.7047 -3.6443,2.7175 -0.0389,0.1127 -0.1426,0.1929 -0.262,0.1929l-1.5404 0c-0.0701,0 -0.1373,0.0278 -0.187,0.0775l-2.0939 2.0939c-0.0498,0.0498 -0.117,0.0776 -0.1871,0.0776l-1.9256 0c-0.0532,0 -0.1051,0.0158 -0.149,0.0457l-3.1724 2.1575c-0.0439,0.0299 -0.0957,0.0457 -0.1489,0.0457l-3.755 0c-0.146,0 -0.2646,0.1186 -0.2646,0.2646l0 2.9038c0,0.0871 -0.0428,0.1683 -0.1145,0.2178l-5.7709 3.9756c-0.0441,0.0302 -0.0963,0.0466 -0.15,0.0466l-5.8105 0c-0.0397,0 -0.0788,-0.009 -0.1146,-0.026l-3.0157 -1.4475c-0.1312,-0.0632 -0.187,-0.2204 -0.1246,-0.3519l1.0525 -2.222c0.0167,-0.0354 0.0254,-0.0741 0.0254,-0.1132l0 -3.1427c0,-0.0675 0.0257,-0.1323 0.072,-0.1815l1.874 -1.9913c0.0958,-0.1019 0.0958,-0.2606 0,-0.3625l-1.9124 -2.032c-0.0222,-0.0235 -0.0399,-0.051 -0.0521,-0.0812l-1.1049 -2.7006c-0.0407,-0.0992 -0.1373,-0.1643 -0.2447,-0.1643l-3.0076 0c-0.0775,0 -0.151,-0.0341 -0.2013,-0.0931l-2.0907 -2.4596c-0.0503,-0.059 -0.1239,-0.0931 -0.2014,-0.0931l-3.3748 0c-0.0489,0 -0.0968,-0.0135 -0.1386,-0.0392l-3.3062 -2.0346c-0.0453,-0.0281 -0.0971,-0.0416 -0.1503,-0.0392 -1.8571,0.0783 -4.9771,-0.1294 -3.2459,-1.5753 0.0121,-0.0101 0.0262,-0.0196 0.0397,-0.0273 2.5842,-1.4518 5.457,-3.9391 6.6505,-5.0752 0.0495,-0.0474 0.1141,-0.0728 0.1826,-0.0728l3.3353 0c0.0821,0 0.1593,-0.0378 0.2093,-0.1029l2.1159 -2.7382c0.0349,-0.045 0.0833,-0.0775 0.1381,-0.0928l5.3104 -1.3318c0.5614,-0.1579 0.9189,-0.5937 0.9189,-1.2034 0,-0.1544 1.4447,-1.0439 2.7542,-1.0537 1.7131,-0.0129 3.9665,-0.685 6.0267,-0.9652 2.4864,-0.3382 4.6019,-0.5787 5.2783,-0.653z"/>
 </g>
</svg>
