<svg width="1160" height="44" viewBox="0 0 1160 44" fill="none" xmlns="http://www.w3.org/2000/svg">
<path d="M557 11.002L561 16.002L557 19.002L548 10.002L556 2.00195L580 25.002" stroke="#C60F18" stroke-width="1.5" stroke-miterlimit="10" stroke-linecap="round" stroke-linejoin="round"/>
<path d="M557 33.002L561 28.002L557 25.002L548 34.002L556 42.002L580 19.002" stroke="#C60F18" stroke-width="1.5" stroke-miterlimit="10" stroke-linecap="round" stroke-linejoin="round"/>
<path d="M539 11.002L535 16.002L539 19.002L548 10.002L540 2.00195L516 25.002" stroke="#C60F18" stroke-width="1.5" stroke-miterlimit="10" stroke-linecap="round" stroke-linejoin="round"/>
<path d="M539 33.002L535 28.002L539 25.002L548 34.002L540 42.002L516 19.002" stroke="#C60F18" stroke-width="1.5" stroke-miterlimit="10" stroke-linecap="round" stroke-linejoin="round"/>
<path d="M544 22.002L548 26.002L552 22.002L548 18.002L544 22.002Z" stroke="#C60F18" stroke-width="1.5" stroke-miterlimit="10" stroke-linecap="round" stroke-linejoin="round"/>
<path d="M520 5.00153L524 9.00153L528 5.00153L524 1.00153L520 5.00153Z" stroke="#C60F18" stroke-width="1.5" stroke-miterlimit="10" stroke-linecap="round" stroke-linejoin="round"/>
<path d="M520 39.0015L524 43.0015L528 39.0015L524 35.0015L520 39.0015Z" stroke="#C60F18" stroke-width="1.5" stroke-miterlimit="10" stroke-linecap="round" stroke-linejoin="round"/>
<path d="M471 5.00116L475 9.00116L479 5.00116L475 1.00116L471 5.00116Z" stroke="#C60F18" stroke-width="1.5" stroke-miterlimit="10" stroke-linecap="round" stroke-linejoin="round"/>
<path d="M471 39.0012L475 43.0012L479 39.0012L475 35.0012L471 39.0012Z" stroke="#C60F18" stroke-width="1.5" stroke-miterlimit="10" stroke-linecap="round" stroke-linejoin="round"/>
<path d="M423 5.00073L427 9.00073L431 5.00073L427 1.00073L423 5.00073Z" stroke="#C60F18" stroke-width="1.5" stroke-miterlimit="10" stroke-linecap="round" stroke-linejoin="round"/>
<path d="M423 39.0007L427 43.0007L431 39.0007L427 35.0007L423 39.0007Z" stroke="#C60F18" stroke-width="1.5" stroke-miterlimit="10" stroke-linecap="round" stroke-linejoin="round"/>
<path d="M509 11.0007L513 16.0007L509 19.0007L500 10.0007L508 2.00073L532 25.0007" stroke="#C60F18" stroke-width="1.5" stroke-miterlimit="10" stroke-linecap="round" stroke-linejoin="round"/>
<path d="M509 33.0007L513 28.0007L509 25.0007L500 34.0007L508 42.0007L532 19.0007" stroke="#C60F18" stroke-width="1.5" stroke-miterlimit="10" stroke-linecap="round" stroke-linejoin="round"/>
<path d="M490 11.0007L486 16.0007L490 19.0007L499 10.0007L491 2.00073L467 25.0007" stroke="#C60F18" stroke-width="1.5" stroke-miterlimit="10" stroke-linecap="round" stroke-linejoin="round"/>
<path d="M490 33.0007L486 28.0007L490 25.0007L499 34.0007L491 42.0007L467 19.0007" stroke="#C60F18" stroke-width="1.5" stroke-miterlimit="10" stroke-linecap="round" stroke-linejoin="round"/>
<path d="M495 22.0007L499 26.0007L503 22.0007L499 18.0007L495 22.0007Z" stroke="#C60F18" stroke-width="1.5" stroke-miterlimit="10" stroke-linecap="round" stroke-linejoin="round"/>
<path d="M460 11.0007L464 16.0007L460 19.0007L451 10.0007L459 2.00073L483 25.0007" stroke="#C60F18" stroke-width="1.5" stroke-miterlimit="10" stroke-linecap="round" stroke-linejoin="round"/>
<path d="M460 33.0007L464 28.0007L460 25.0007L451 34.0007L459 42.0007L483 19.0007" stroke="#C60F18" stroke-width="1.5" stroke-miterlimit="10" stroke-linecap="round" stroke-linejoin="round"/>
<path d="M442 11.0007L438 16.0007L442 19.0007L451 10.0007L443 2.00073L419 25.0007" stroke="#C60F18" stroke-width="1.5" stroke-miterlimit="10" stroke-linecap="round" stroke-linejoin="round"/>
<path d="M442 33.0007L438 28.0007L442 25.0007L451 34.0007L443 42.0007L419 19.0007" stroke="#C60F18" stroke-width="1.5" stroke-miterlimit="10" stroke-linecap="round" stroke-linejoin="round"/>
<path d="M447 22.0007L451 26.0007L455 22.0007L451 18.0007L447 22.0007Z" stroke="#C60F18" stroke-width="1.5" stroke-miterlimit="10" stroke-linecap="round" stroke-linejoin="round"/>
<path d="M412 11.0007L416 16.0007L412 19.0007L403 10.0007L411 2.00073L435 25.0007" stroke="#C60F18" stroke-width="1.5" stroke-miterlimit="10" stroke-linecap="round" stroke-linejoin="round"/>
<path d="M412 33.0007L416 28.0007L412 25.0007L403 34.0007L411 42.0007L435 19.0007" stroke="#C60F18" stroke-width="1.5" stroke-miterlimit="10" stroke-linecap="round" stroke-linejoin="round"/>
<path d="M398 22.0007L402 26.0007L406 22.0007L402 18.0007L398 22.0007Z" stroke="#C60F18" stroke-width="1.5" stroke-miterlimit="10" stroke-linecap="round" stroke-linejoin="round"/>
<path d="M603 11.002L599 16.002L603 19.002L612 10.002L604 2.00195L580 25.002" stroke="#C60F18" stroke-width="1.5" stroke-miterlimit="10" stroke-linecap="round" stroke-linejoin="round"/>
<path d="M603 33.002L599 28.002L603 25.002L612 34.002L604 42.002L580 19.002" stroke="#C60F18" stroke-width="1.5" stroke-miterlimit="10" stroke-linecap="round" stroke-linejoin="round"/>
<path d="M621 11.002L625 16.002L621 19.002L612 10.002L620 2.00195L644 25.002" stroke="#C60F18" stroke-width="1.5" stroke-miterlimit="10" stroke-linecap="round" stroke-linejoin="round"/>
<path d="M621 33.002L625 28.002L621 25.002L612 34.002L620 42.002L644 19.002" stroke="#C60F18" stroke-width="1.5" stroke-miterlimit="10" stroke-linecap="round" stroke-linejoin="round"/>
<path d="M616 22.002L612 26.002L608 22.002L612 18.002L616 22.002Z" stroke="#C60F18" stroke-width="1.5" stroke-miterlimit="10" stroke-linecap="round" stroke-linejoin="round"/>
<path d="M640 5.00153L636 9.00153L632 5.00153L636 1.00153L640 5.00153Z" stroke="#C60F18" stroke-width="1.5" stroke-miterlimit="10" stroke-linecap="round" stroke-linejoin="round"/>
<path d="M640 39.0015L636 43.0015L632 39.0015L636 35.0015L640 39.0015Z" stroke="#C60F18" stroke-width="1.5" stroke-miterlimit="10" stroke-linecap="round" stroke-linejoin="round"/>
<path d="M689 5.00116L685 9.00116L681 5.00116L685 1.00116L689 5.00116Z" stroke="#C60F18" stroke-width="1.5" stroke-miterlimit="10" stroke-linecap="round" stroke-linejoin="round"/>
<path d="M689 39.0012L685 43.0012L681 39.0012L685 35.0012L689 39.0012Z" stroke="#C60F18" stroke-width="1.5" stroke-miterlimit="10" stroke-linecap="round" stroke-linejoin="round"/>
<path d="M737 5.00073L733 9.00073L729 5.00073L733 1.00073L737 5.00073Z" stroke="#C60F18" stroke-width="1.5" stroke-miterlimit="10" stroke-linecap="round" stroke-linejoin="round"/>
<path d="M737 39.0007L733 43.0007L729 39.0007L733 35.0007L737 39.0007Z" stroke="#C60F18" stroke-width="1.5" stroke-miterlimit="10" stroke-linecap="round" stroke-linejoin="round"/>
<path d="M651 11.0007L647 16.0007L651 19.0007L660 10.0007L652 2.00073L628 25.0007" stroke="#C60F18" stroke-width="1.5" stroke-miterlimit="10" stroke-linecap="round" stroke-linejoin="round"/>
<path d="M651 33.0007L647 28.0007L651 25.0007L660 34.0007L652 42.0007L628 19.0007" stroke="#C60F18" stroke-width="1.5" stroke-miterlimit="10" stroke-linecap="round" stroke-linejoin="round"/>
<path d="M670 11.0007L674 16.0007L670 19.0007L661 10.0007L669 2.00073L693 25.0007" stroke="#C60F18" stroke-width="1.5" stroke-miterlimit="10" stroke-linecap="round" stroke-linejoin="round"/>
<path d="M670 33.0007L674 28.0007L670 25.0007L661 34.0007L669 42.0007L693 19.0007" stroke="#C60F18" stroke-width="1.5" stroke-miterlimit="10" stroke-linecap="round" stroke-linejoin="round"/>
<path d="M665 22.0007L661 26.0007L657 22.0007L661 18.0007L665 22.0007Z" stroke="#C60F18" stroke-width="1.5" stroke-miterlimit="10" stroke-linecap="round" stroke-linejoin="round"/>
<path d="M700 11.0007L696 16.0007L700 19.0007L709 10.0007L701 2.00073L677 25.0007" stroke="#C60F18" stroke-width="1.5" stroke-miterlimit="10" stroke-linecap="round" stroke-linejoin="round"/>
<path d="M700 33.0007L696 28.0007L700 25.0007L709 34.0007L701 42.0007L677 19.0007" stroke="#C60F18" stroke-width="1.5" stroke-miterlimit="10" stroke-linecap="round" stroke-linejoin="round"/>
<path d="M718 11.0007L722 16.0007L718 19.0007L709 10.0007L717 2.00073L741 25.0007" stroke="#C60F18" stroke-width="1.5" stroke-miterlimit="10" stroke-linecap="round" stroke-linejoin="round"/>
<path d="M718 33.0007L722 28.0007L718 25.0007L709 34.0007L717 42.0007L741 19.0007" stroke="#C60F18" stroke-width="1.5" stroke-miterlimit="10" stroke-linecap="round" stroke-linejoin="round"/>
<path d="M713 22.0007L709 26.0007L705 22.0007L709 18.0007L713 22.0007Z" stroke="#C60F18" stroke-width="1.5" stroke-miterlimit="10" stroke-linecap="round" stroke-linejoin="round"/>
<path d="M748 11.0007L744 16.0007L748 19.0007L757 10.0007L749 2.00073L725 25.0007" stroke="#C60F18" stroke-width="1.5" stroke-miterlimit="10" stroke-linecap="round" stroke-linejoin="round"/>
<path d="M748 33.0007L744 28.0007L748 25.0007L757 34.0007L749 42.0007L725 19.0007" stroke="#C60F18" stroke-width="1.5" stroke-miterlimit="10" stroke-linecap="round" stroke-linejoin="round"/>
<path d="M762 22.0007L758 26.0007L754 22.0007L758 18.0007L762 22.0007Z" stroke="#C60F18" stroke-width="1.5" stroke-miterlimit="10" stroke-linecap="round" stroke-linejoin="round"/>
</svg>
