<svg width="328" height="29" viewBox="0 0 328 29" fill="none" xmlns="http://www.w3.org/2000/svg">
<path d="M148.928 7L151.928 10L148.928 12L142.928 6L147.928 1L163.928 16" stroke="#C60F18" strokeWidth="1.5" strokeMiterlimit="10" strokeLinecap="round" strokeLinejoin="round"/>
<path d="M148.983 21L151.983 18L148.983 16L142.983 22L147.983 27L163.983 12" stroke="#C60F18" strokeWidth="1.5" strokeMiterlimit="10" strokeLinecap="round" strokeLinejoin="round"/>
<path d="M138.01 7L135.01 10L138.01 12L144.01 6L139.01 1L123.01 16" stroke="#C60F18" strokeWidth="1.5" strokeMiterlimit="10" strokeLinecap="round" strokeLinejoin="round"/>
<path d="M138.01 21L135.01 18L138.01 16L144.01 22L139.01 27L123.01 12" stroke="#C60F18" strokeWidth="1.5" strokeMiterlimit="10" strokeLinecap="round" strokeLinejoin="round"/>
<path d="M141.01 14L143.01 17L146.01 14L143.01 12L141.01 14Z" stroke="#C60F18" strokeWidth="1.5" strokeMiterlimit="10" strokeLinecap="round" strokeLinejoin="round"/>
<path d="M126.01 3L128.01 6L131.01 3L128.01 1L126.01 3Z" stroke="#C60F18" strokeWidth="1.5" strokeMiterlimit="10" strokeLinecap="round" strokeLinejoin="round"/>
<path d="M126.01 25L128.01 28L131.01 25L128.01 23L126.01 25Z" stroke="#C60F18" strokeWidth="1.5" strokeMiterlimit="10" strokeLinecap="round" strokeLinejoin="round"/>
<path d="M94.0103 3L96.0103 6L99.0103 3L96.0103 1L94.0103 3Z" stroke="#C60F18" strokeWidth="1.5" strokeMiterlimit="10" strokeLinecap="round" strokeLinejoin="round"/>
<path d="M94.0103 25L96.0103 28L99.0103 25L96.0103 23L94.0103 25Z" stroke="#C60F18" strokeWidth="1.5" strokeMiterlimit="10" strokeLinecap="round" strokeLinejoin="round"/>
<path d="M63.0103 3L65.0103 6L68.0103 3L65.0103 1L63.0103 3Z" stroke="#C60F18" strokeWidth="1.5" strokeMiterlimit="10" strokeLinecap="round" strokeLinejoin="round"/>
<path d="M63.0103 25L65.0103 28L68.0103 25L65.0103 23L63.0103 25Z" stroke="#C60F18" strokeWidth="1.5" strokeMiterlimit="10" strokeLinecap="round" strokeLinejoin="round"/>
<path d="M118.01 7L121.01 10L118.01 12L112.01 6L117.01 1L133.01 16" stroke="#C60F18" strokeWidth="1.5" strokeMiterlimit="10" strokeLinecap="round" strokeLinejoin="round"/>
<path d="M118.01 21L121.01 18L118.01 16L112.01 22L117.01 27L133.01 12" stroke="#C60F18" strokeWidth="1.5" strokeMiterlimit="10" strokeLinecap="round" strokeLinejoin="round"/>
<path d="M106.01 7L103.01 10L106.01 12L112.01 6L107.01 1L91.0103 16" stroke="#C60F18" strokeWidth="1.5" strokeMiterlimit="10" strokeLinecap="round" strokeLinejoin="round"/>
<path d="M106.01 21L103.01 18L106.01 16L112.01 22L107.01 27L91.0103 12" stroke="#C60F18" strokeWidth="1.5" strokeMiterlimit="10" strokeLinecap="round" strokeLinejoin="round"/>
<path d="M109.01 14L111.01 17L114.01 14L111.01 12L109.01 14Z" stroke="#C60F18" strokeWidth="1.5" strokeMiterlimit="10" strokeLinecap="round" strokeLinejoin="round"/>
<path d="M86.0103 7L89.0103 10L86.0103 12L80.0103 6L85.0103 1L101.01 16" stroke="#C60F18" strokeWidth="1.5" strokeMiterlimit="10" strokeLinecap="round" strokeLinejoin="round"/>
<path d="M86.0103 21L89.0103 18L86.0103 16L80.0103 22L85.0103 27L101.01 12" stroke="#C60F18" strokeWidth="1.5" strokeMiterlimit="10" strokeLinecap="round" strokeLinejoin="round"/>
<path d="M75.0103 7L72.0103 10L75.0103 12L81.0103 6L76.0103 1L60.0103 16" stroke="#C60F18" strokeWidth="1.5" strokeMiterlimit="10" strokeLinecap="round" strokeLinejoin="round"/>
<path d="M75.0103 21L72.0103 18L75.0103 16L81.0103 22L76.0103 27L60.0103 12" stroke="#C60F18" strokeWidth="1.5" strokeMiterlimit="10" strokeLinecap="round" strokeLinejoin="round"/>
<path d="M78.0103 14L80.0103 17L83.0103 14L80.0103 12L78.0103 14Z" stroke="#C60F18" strokeWidth="1.5" strokeMiterlimit="10" strokeLinecap="round" strokeLinejoin="round"/>
<path d="M55.0103 7L58.0103 10L55.0103 12L49.0103 6L54.0103 1L70.0103 16" stroke="#C60F18" strokeWidth="1.5" strokeMiterlimit="10" strokeLinecap="round" strokeLinejoin="round"/>
<path d="M55.0103 21L58.0103 18L55.0103 16L49.0103 22L54.0103 27L70.0103 12" stroke="#C60F18" strokeWidth="1.5" strokeMiterlimit="10" strokeLinecap="round" strokeLinejoin="round"/>
<path d="M47.0103 14L49.0103 17L52.0103 14L49.0103 12L47.0103 14Z" stroke="#C60F18" strokeWidth="1.5" strokeMiterlimit="10" strokeLinecap="round" strokeLinejoin="round"/>
<path d="M178.983 7L175.983 10L178.983 12L184.983 6L179.983 1L163.983 16" stroke="#C60F18" strokeWidth="1.5" strokeMiterlimit="10" strokeLinecap="round" strokeLinejoin="round"/>
<path d="M178.983 21L175.983 18L178.983 16L184.983 22L179.983 27L163.983 12" stroke="#C60F18" strokeWidth="1.5" strokeMiterlimit="10" strokeLinecap="round" strokeLinejoin="round"/>
<path d="M189.99 7L192.99 10L189.99 12L183.99 6L188.99 1L204.99 16" stroke="#C60F18" strokeWidth="1.5" strokeMiterlimit="10" strokeLinecap="round" strokeLinejoin="round"/>
<path d="M189.99 21L192.99 18L189.99 16L183.99 22L188.99 27L204.99 12" stroke="#C60F18" strokeWidth="1.5" strokeMiterlimit="10" strokeLinecap="round" strokeLinejoin="round"/>
<path d="M185.99 14L183.99 17L180.99 14L183.99 12L185.99 14Z" stroke="#C60F18" strokeWidth="1.5" strokeMiterlimit="10" strokeLinecap="round" strokeLinejoin="round"/>
<path d="M201.99 3L199.99 6L196.99 3L199.99 1L201.99 3Z" stroke="#C60F18" strokeWidth="1.5" strokeMiterlimit="10" strokeLinecap="round" strokeLinejoin="round"/>
<path d="M201.99 25L199.99 28L196.99 25L199.99 23L201.99 25Z" stroke="#C60F18" strokeWidth="1.5" strokeMiterlimit="10" strokeLinecap="round" strokeLinejoin="round"/>
<path d="M233.99 3L231.99 6L228.99 3L231.99 1L233.99 3Z" stroke="#C60F18" strokeWidth="1.5" strokeMiterlimit="10" strokeLinecap="round" strokeLinejoin="round"/>
<path d="M233.99 25L231.99 28L228.99 25L231.99 23L233.99 25Z" stroke="#C60F18" strokeWidth="1.5" strokeMiterlimit="10" strokeLinecap="round" strokeLinejoin="round"/>
<path d="M264.99 3L262.99 6L259.99 3L262.99 1L264.99 3Z" stroke="#C60F18" strokeWidth="1.5" strokeMiterlimit="10" strokeLinecap="round" strokeLinejoin="round"/>
<path d="M264.99 25L262.99 28L259.99 25L262.99 23L264.99 25Z" stroke="#C60F18" strokeWidth="1.5" strokeMiterlimit="10" strokeLinecap="round" strokeLinejoin="round"/>
<path d="M208.99 7L205.99 10L208.99 12L214.99 6L209.99 1L193.99 16" stroke="#C60F18" strokeWidth="1.5" strokeMiterlimit="10" strokeLinecap="round" strokeLinejoin="round"/>
<path d="M208.99 21L205.99 18L208.99 16L214.99 22L209.99 27L193.99 12" stroke="#C60F18" strokeWidth="1.5" strokeMiterlimit="10" strokeLinecap="round" strokeLinejoin="round"/>
<path d="M221.99 7L224.99 10L221.99 12L215.99 6L220.99 1L236.99 16" stroke="#C60F18" strokeWidth="1.5" strokeMiterlimit="10" strokeLinecap="round" strokeLinejoin="round"/>
<path d="M221.99 21L224.99 18L221.99 16L215.99 22L220.99 27L236.99 12" stroke="#C60F18" strokeWidth="1.5" strokeMiterlimit="10" strokeLinecap="round" strokeLinejoin="round"/>
<path d="M217.99 14L215.99 17L212.99 14L215.99 12L217.99 14Z" stroke="#C60F18" strokeWidth="1.5" strokeMiterlimit="10" strokeLinecap="round" strokeLinejoin="round"/>
<path d="M240.99 7L237.99 10L240.99 12L246.99 6L241.99 1L225.99 16" stroke="#C60F18" strokeWidth="1.5" strokeMiterlimit="10" strokeLinecap="round" strokeLinejoin="round"/>
<path d="M240.99 21L237.99 18L240.99 16L246.99 22L241.99 27L225.99 12" stroke="#C60F18" strokeWidth="1.5" strokeMiterlimit="10" strokeLinecap="round" strokeLinejoin="round"/>
<path d="M252.99 7L255.99 10L252.99 12L246.99 6L251.99 1L267.99 16" stroke="#C60F18" strokeWidth="1.5" strokeMiterlimit="10" strokeLinecap="round" strokeLinejoin="round"/>
<path d="M252.99 21L255.99 18L252.99 16L246.99 22L251.99 27L267.99 12" stroke="#C60F18" strokeWidth="1.5" strokeMiterlimit="10" strokeLinecap="round" strokeLinejoin="round"/>
<path d="M248.99 14L246.99 17L243.99 14L246.99 12L248.99 14Z" stroke="#C60F18" strokeWidth="1.5" strokeMiterlimit="10" strokeLinecap="round" strokeLinejoin="round"/>
<path d="M271.99 7L268.99 10L271.99 12L277.99 6L272.99 1L256.99 16" stroke="#C60F18" strokeWidth="1.5" strokeMiterlimit="10" strokeLinecap="round" strokeLinejoin="round"/>
<path d="M271.99 21L268.99 18L271.99 16L277.99 22L272.99 27L256.99 12" stroke="#C60F18" strokeWidth="1.5" strokeMiterlimit="10" strokeLinecap="round" strokeLinejoin="round"/>
<path d="M280.99 14L278.99 17L275.99 14L278.99 12L280.99 14Z" stroke="#C60F18" strokeWidth="1.5" strokeMiterlimit="10" strokeLinecap="round" strokeLinejoin="round"/>
</svg>
