<svg width="1160" height="44" viewBox="0 0 1160 44" fill="none" xmlns="http://www.w3.org/2000/svg">
<path d="M557 11.0012L561 16.0012L557 19.0012L548 10.0012L556 2.00122L580 25.0012" stroke="#C60F18" stroke-width="1.5" stroke-miterlimit="10" stroke-linecap="round" stroke-linejoin="round"/>
<path d="M557 33.0012L561 28.0012L557 25.0012L548 34.0012L556 42.0012L580 19.0012" stroke="#C60F18" stroke-width="1.5" stroke-miterlimit="10" stroke-linecap="round" stroke-linejoin="round"/>
<path d="M539 11.0012L535 16.0012L539 19.0012L548 10.0012L540 2.00122L516 25.0012" stroke="#C60F18" stroke-width="1.5" stroke-miterlimit="10" stroke-linecap="round" stroke-linejoin="round"/>
<path d="M539 33.0012L535 28.0012L539 25.0012L548 34.0012L540 42.0012L516 19.0012" stroke="#C60F18" stroke-width="1.5" stroke-miterlimit="10" stroke-linecap="round" stroke-linejoin="round"/>
<path d="M544 22.0012L548 26.0012L552 22.0012L548 18.0012L544 22.0012Z" stroke="#C60F18" stroke-width="1.5" stroke-miterlimit="10" stroke-linecap="round" stroke-linejoin="round"/>
<path d="M520 5.00079L524 9.00079L528 5.00079L524 1.00079L520 5.00079Z" stroke="#C60F18" stroke-width="1.5" stroke-miterlimit="10" stroke-linecap="round" stroke-linejoin="round"/>
<path d="M520 39.0008L524 43.0008L528 39.0008L524 35.0008L520 39.0008Z" stroke="#C60F18" stroke-width="1.5" stroke-miterlimit="10" stroke-linecap="round" stroke-linejoin="round"/>
<path d="M471 5.00043L475 9.00043L479 5.00043L475 1.00043L471 5.00043Z" stroke="#C60F18" stroke-width="1.5" stroke-miterlimit="10" stroke-linecap="round" stroke-linejoin="round"/>
<path d="M471 39.0004L475 43.0004L479 39.0004L475 35.0004L471 39.0004Z" stroke="#C60F18" stroke-width="1.5" stroke-miterlimit="10" stroke-linecap="round" stroke-linejoin="round"/>
<path d="M423 5L427 9L431 5L427 1L423 5Z" stroke="#C60F18" stroke-width="1.5" stroke-miterlimit="10" stroke-linecap="round" stroke-linejoin="round"/>
<path d="M423 39L427 43L431 39L427 35L423 39Z" stroke="#C60F18" stroke-width="1.5" stroke-miterlimit="10" stroke-linecap="round" stroke-linejoin="round"/>
<path d="M509 11L513 16L509 19L500 10L508 2L532 25" stroke="#C60F18" stroke-width="1.5" stroke-miterlimit="10" stroke-linecap="round" stroke-linejoin="round"/>
<path d="M509 33L513 28L509 25L500 34L508 42L532 19" stroke="#C60F18" stroke-width="1.5" stroke-miterlimit="10" stroke-linecap="round" stroke-linejoin="round"/>
<path d="M490 11L486 16L490 19L499 10L491 2L467 25" stroke="#C60F18" stroke-width="1.5" stroke-miterlimit="10" stroke-linecap="round" stroke-linejoin="round"/>
<path d="M490 33L486 28L490 25L499 34L491 42L467 19" stroke="#C60F18" stroke-width="1.5" stroke-miterlimit="10" stroke-linecap="round" stroke-linejoin="round"/>
<path d="M495 22L499 26L503 22L499 18L495 22Z" stroke="#C60F18" stroke-width="1.5" stroke-miterlimit="10" stroke-linecap="round" stroke-linejoin="round"/>
<path d="M460 11L464 16L460 19L451 10L459 2L483 25" stroke="#C60F18" stroke-width="1.5" stroke-miterlimit="10" stroke-linecap="round" stroke-linejoin="round"/>
<path d="M460 33L464 28L460 25L451 34L459 42L483 19" stroke="#C60F18" stroke-width="1.5" stroke-miterlimit="10" stroke-linecap="round" stroke-linejoin="round"/>
<path d="M442 11L438 16L442 19L451 10L443 2L419 25" stroke="#C60F18" stroke-width="1.5" stroke-miterlimit="10" stroke-linecap="round" stroke-linejoin="round"/>
<path d="M442 33L438 28L442 25L451 34L443 42L419 19" stroke="#C60F18" stroke-width="1.5" stroke-miterlimit="10" stroke-linecap="round" stroke-linejoin="round"/>
<path d="M447 22L451 26L455 22L451 18L447 22Z" stroke="#C60F18" stroke-width="1.5" stroke-miterlimit="10" stroke-linecap="round" stroke-linejoin="round"/>
<path d="M412 11L416 16L412 19L403 10L411 2L435 25" stroke="#C60F18" stroke-width="1.5" stroke-miterlimit="10" stroke-linecap="round" stroke-linejoin="round"/>
<path d="M412 33L416 28L412 25L403 34L411 42L435 19" stroke="#C60F18" stroke-width="1.5" stroke-miterlimit="10" stroke-linecap="round" stroke-linejoin="round"/>
<path d="M398 22L402 26L406 22L402 18L398 22Z" stroke="#C60F18" stroke-width="1.5" stroke-miterlimit="10" stroke-linecap="round" stroke-linejoin="round"/>
<path d="M603 11.0012L599 16.0012L603 19.0012L612 10.0012L604 2.00122L580 25.0012" stroke="#C60F18" stroke-width="1.5" stroke-miterlimit="10" stroke-linecap="round" stroke-linejoin="round"/>
<path d="M603 33.0012L599 28.0012L603 25.0012L612 34.0012L604 42.0012L580 19.0012" stroke="#C60F18" stroke-width="1.5" stroke-miterlimit="10" stroke-linecap="round" stroke-linejoin="round"/>
<path d="M621 11.0012L625 16.0012L621 19.0012L612 10.0012L620 2.00122L644 25.0012" stroke="#C60F18" stroke-width="1.5" stroke-miterlimit="10" stroke-linecap="round" stroke-linejoin="round"/>
<path d="M621 33.0012L625 28.0012L621 25.0012L612 34.0012L620 42.0012L644 19.0012" stroke="#C60F18" stroke-width="1.5" stroke-miterlimit="10" stroke-linecap="round" stroke-linejoin="round"/>
<path d="M616 22.0012L612 26.0012L608 22.0012L612 18.0012L616 22.0012Z" stroke="#C60F18" stroke-width="1.5" stroke-miterlimit="10" stroke-linecap="round" stroke-linejoin="round"/>
<path d="M640 5.00079L636 9.00079L632 5.00079L636 1.00079L640 5.00079Z" stroke="#C60F18" stroke-width="1.5" stroke-miterlimit="10" stroke-linecap="round" stroke-linejoin="round"/>
<path d="M640 39.0008L636 43.0008L632 39.0008L636 35.0008L640 39.0008Z" stroke="#C60F18" stroke-width="1.5" stroke-miterlimit="10" stroke-linecap="round" stroke-linejoin="round"/>
<path d="M689 5.00043L685 9.00043L681 5.00043L685 1.00043L689 5.00043Z" stroke="#C60F18" stroke-width="1.5" stroke-miterlimit="10" stroke-linecap="round" stroke-linejoin="round"/>
<path d="M689 39.0004L685 43.0004L681 39.0004L685 35.0004L689 39.0004Z" stroke="#C60F18" stroke-width="1.5" stroke-miterlimit="10" stroke-linecap="round" stroke-linejoin="round"/>
<path d="M737 5L733 9L729 5L733 1L737 5Z" stroke="#C60F18" stroke-width="1.5" stroke-miterlimit="10" stroke-linecap="round" stroke-linejoin="round"/>
<path d="M737 39L733 43L729 39L733 35L737 39Z" stroke="#C60F18" stroke-width="1.5" stroke-miterlimit="10" stroke-linecap="round" stroke-linejoin="round"/>
<path d="M651 11L647 16L651 19L660 10L652 2L628 25" stroke="#C60F18" stroke-width="1.5" stroke-miterlimit="10" stroke-linecap="round" stroke-linejoin="round"/>
<path d="M651 33L647 28L651 25L660 34L652 42L628 19" stroke="#C60F18" stroke-width="1.5" stroke-miterlimit="10" stroke-linecap="round" stroke-linejoin="round"/>
<path d="M670 11L674 16L670 19L661 10L669 2L693 25" stroke="#C60F18" stroke-width="1.5" stroke-miterlimit="10" stroke-linecap="round" stroke-linejoin="round"/>
<path d="M670 33L674 28L670 25L661 34L669 42L693 19" stroke="#C60F18" stroke-width="1.5" stroke-miterlimit="10" stroke-linecap="round" stroke-linejoin="round"/>
<path d="M665 22L661 26L657 22L661 18L665 22Z" stroke="#C60F18" stroke-width="1.5" stroke-miterlimit="10" stroke-linecap="round" stroke-linejoin="round"/>
<path d="M700 11L696 16L700 19L709 10L701 2L677 25" stroke="#C60F18" stroke-width="1.5" stroke-miterlimit="10" stroke-linecap="round" stroke-linejoin="round"/>
<path d="M700 33L696 28L700 25L709 34L701 42L677 19" stroke="#C60F18" stroke-width="1.5" stroke-miterlimit="10" stroke-linecap="round" stroke-linejoin="round"/>
<path d="M718 11L722 16L718 19L709 10L717 2L741 25" stroke="#C60F18" stroke-width="1.5" stroke-miterlimit="10" stroke-linecap="round" stroke-linejoin="round"/>
<path d="M718 33L722 28L718 25L709 34L717 42L741 19" stroke="#C60F18" stroke-width="1.5" stroke-miterlimit="10" stroke-linecap="round" stroke-linejoin="round"/>
<path d="M713 22L709 26L705 22L709 18L713 22Z" stroke="#C60F18" stroke-width="1.5" stroke-miterlimit="10" stroke-linecap="round" stroke-linejoin="round"/>
<path d="M748 11L744 16L748 19L757 10L749 2L725 25" stroke="#C60F18" stroke-width="1.5" stroke-miterlimit="10" stroke-linecap="round" stroke-linejoin="round"/>
<path d="M748 33L744 28L748 25L757 34L749 42L725 19" stroke="#C60F18" stroke-width="1.5" stroke-miterlimit="10" stroke-linecap="round" stroke-linejoin="round"/>
<path d="M762 22L758 26L754 22L758 18L762 22Z" stroke="#C60F18" stroke-width="1.5" stroke-miterlimit="10" stroke-linecap="round" stroke-linejoin="round"/>
</svg>
