<svg width="24" height="24" viewBox="0 0 24 24" fill="none" xmlns="http://www.w3.org/2000/svg">
<rect width="24" height="24" rx="4" fill="#FFDD00"/>
<g clip-path="url(#clip0_3492_9319)">
<path d="M17.9234 6.38573L17.9085 6.37686L17.874 6.36621C17.8879 6.37806 17.9052 6.38494 17.9234 6.38573Z" fill="#0D0C22"/>
<path d="M17.9298 6.38236C17.9278 6.38208 17.9258 6.38158 17.9239 6.38086C17.9238 6.38225 17.9238 6.38366 17.9239 6.38506C17.9261 6.38475 17.9281 6.38382 17.9298 6.38236Z" fill="#0D0C22"/>
<path d="M17.9238 6.3852H17.9259V6.38379L17.9238 6.3852Z" fill="#0D0C22"/>
<path d="M18.1279 7.88217L18.153 7.86833L18.1624 7.86324L18.1709 7.85449C18.1549 7.86113 18.1404 7.87052 18.1279 7.88217Z" fill="#0D0C22"/>
<path d="M17.9664 6.41808L17.9422 6.39547L17.9258 6.38672C17.9346 6.40199 17.9492 6.41325 17.9664 6.41808Z" fill="#0D0C22"/>
<path d="M11.797 20.9756C11.7774 20.9838 11.7602 20.9966 11.7471 21.0129L11.7625 21.0033C11.7731 20.994 11.7879 20.983 11.797 20.9756Z" fill="#0D0C22"/>
<path d="M15.3793 20.2934C15.3793 20.2721 15.369 20.276 15.3715 20.3522C15.3715 20.3461 15.374 20.3399 15.3751 20.334C15.3765 20.3203 15.3776 20.307 15.3793 20.2934Z" fill="#0D0C22"/>
<path d="M15.0079 20.9756C14.9883 20.9838 14.9712 20.9966 14.958 21.0129L14.9735 21.0033C14.984 20.994 14.9989 20.983 15.0079 20.9756Z" fill="#0D0C22"/>
<path d="M9.27325 21.1381C9.25837 21.1256 9.24017 21.1174 9.2207 21.1143C9.23647 21.1216 9.25223 21.129 9.26273 21.1346L9.27325 21.1381Z" fill="#0D0C22"/>
<path d="M8.70559 20.612C8.70323 20.5899 8.69608 20.5684 8.68457 20.5488C8.69272 20.569 8.69954 20.5899 8.70499 20.6109L8.70559 20.612Z" fill="#0D0C22"/>
<path d="M12.5197 11.2006C11.7402 11.5235 10.8555 11.8896 9.70898 11.8896C9.22935 11.8887 8.75204 11.825 8.29004 11.7003L9.08302 19.5783C9.11109 19.9075 9.26611 20.2145 9.51729 20.4383C9.76847 20.6621 10.0975 20.7862 10.4389 20.7862C10.4389 20.7862 11.5632 20.8427 11.9384 20.8427C12.3422 20.8427 13.553 20.7862 13.553 20.7862C13.8944 20.7862 14.2233 20.662 14.4744 20.4382C14.7255 20.2144 14.8805 19.9075 14.9086 19.5783L15.7579 10.8728C15.3784 10.7474 14.9953 10.6641 14.5635 10.6641C13.8166 10.6638 13.2149 10.9127 12.5197 11.2006Z" fill="white"/>
<path d="M5.83496 7.83984L5.84857 7.85257L5.85745 7.85791C5.85062 7.85111 5.84308 7.84506 5.83496 7.83984Z" fill="#0D0C22"/>
<path d="M19.4248 7.11284L19.3054 6.53002C19.1982 6.00709 18.955 5.51297 18.4003 5.32397C18.2225 5.2635 18.0207 5.23752 17.8844 5.11236C17.748 4.98721 17.7077 4.79285 17.6762 4.6126C17.6178 4.28177 17.5629 3.95066 17.5031 3.62041C17.4514 3.33647 17.4105 3.01752 17.2759 2.75704C17.1007 2.40729 16.7373 2.20275 16.3758 2.06743C16.1906 2.00053 16.0016 1.94393 15.8097 1.89792C14.9066 1.66739 13.9572 1.58263 13.0281 1.53432C11.913 1.47478 10.795 1.49272 9.6825 1.588C8.8545 1.66089 7.98239 1.74903 7.19555 2.02618C6.90798 2.1276 6.61162 2.24937 6.39295 2.46436C6.12463 2.72851 6.03704 3.13702 6.23294 3.46643C6.37222 3.70035 6.60813 3.86563 6.85834 3.97496C7.18425 4.11584 7.52462 4.22304 7.8738 4.29477C8.84603 4.5027 9.85301 4.58434 10.8463 4.6191C11.9472 4.66208 13.0498 4.62724 14.1455 4.51484C14.4164 4.48602 14.6869 4.45146 14.9569 4.41117C15.2748 4.36398 15.4789 3.96168 15.3852 3.68142C15.273 3.34637 14.9717 3.21642 14.631 3.26699C14.5808 3.27461 14.5309 3.28167 14.4807 3.28873L14.4445 3.29382C14.329 3.30795 14.2136 3.32112 14.0982 3.33337C13.8597 3.35823 13.6207 3.37857 13.3811 3.3944C12.8445 3.43056 12.3064 3.44722 11.7686 3.44807C11.2401 3.44807 10.7114 3.43366 10.1841 3.40005C9.94352 3.3848 9.70352 3.36539 9.46412 3.34184C9.35522 3.33083 9.2466 3.31925 9.138 3.30625L9.03463 3.29354L9.01217 3.29043L8.90501 3.27546C8.68604 3.24353 8.46706 3.20681 8.25042 3.16245C8.22857 3.15775 8.209 3.146 8.19499 3.12909C8.18097 3.11219 8.17334 3.09117 8.17334 3.0695C8.17334 3.04784 8.18097 3.02682 8.19499 3.00992C8.209 2.99302 8.22857 2.98125 8.25042 2.97656H8.25451C8.44225 2.93785 8.63143 2.9048 8.8212 2.87598C8.88448 2.86638 8.94792 2.85696 9.01157 2.84773H9.01332C9.13215 2.8401 9.25157 2.81948 9.36981 2.80592C10.3986 2.70237 11.4335 2.66707 12.4673 2.70026C12.9691 2.71438 13.4707 2.74292 13.9703 2.79207C14.0777 2.80281 14.1846 2.81411 14.2915 2.82682C14.3323 2.83163 14.3735 2.83728 14.4147 2.84208L14.4976 2.85366C14.7393 2.88851 14.9798 2.93079 15.219 2.98051C15.5735 3.0551 16.0287 3.07939 16.1863 3.45513C16.2365 3.57435 16.2593 3.70686 16.287 3.832L16.3224 3.99163C16.3233 3.99448 16.324 3.99742 16.3244 4.00038C16.4079 4.37707 16.4915 4.75375 16.5752 5.13044C16.5813 5.15827 16.5815 5.18702 16.5756 5.2149C16.5698 5.24279 16.558 5.2692 16.5412 5.29251C16.5243 5.31581 16.5026 5.3355 16.4776 5.35034C16.4525 5.36518 16.4245 5.37485 16.3954 5.37878H16.393L16.3419 5.38556L16.2914 5.39204C16.1314 5.41221 15.9712 5.43104 15.8108 5.44856C15.4949 5.4834 15.1785 5.51353 14.8617 5.53896C14.232 5.58961 13.6011 5.62286 12.9689 5.63869C12.6467 5.64697 12.3247 5.65084 12.0027 5.65027C10.7213 5.6493 9.44099 5.57722 8.16809 5.43442C8.03028 5.41861 7.89248 5.40165 7.75466 5.38443C7.86153 5.39771 7.677 5.37425 7.63963 5.36917C7.55204 5.3573 7.46445 5.34497 7.37686 5.33216C7.08285 5.28949 6.79061 5.23695 6.49717 5.19089C6.14244 5.1344 5.80318 5.16265 5.48231 5.33216C5.21892 5.47163 5.00575 5.68549 4.87123 5.94522C4.73283 6.22208 4.69167 6.52352 4.62977 6.82101C4.56787 7.11849 4.47153 7.43858 4.50802 7.74398C4.58656 8.40309 5.06275 8.93873 5.7477 9.05852C6.39207 9.17152 7.03994 9.26305 7.68955 9.34103C10.2414 9.64345 12.8195 9.67962 15.3793 9.44895C15.5878 9.43012 15.796 9.4096 16.0038 9.38736C16.0688 9.38047 16.1345 9.38769 16.1961 9.40854C16.2578 9.4294 16.3139 9.46333 16.3602 9.50786C16.4066 9.55239 16.442 9.60639 16.464 9.6659C16.486 9.72542 16.494 9.78894 16.4873 9.85181L16.4225 10.4615C16.2919 11.6934 16.1613 12.9253 16.0307 14.157C15.8945 15.4506 15.7573 16.744 15.6193 18.0373C15.5804 18.4016 15.5415 18.7658 15.5025 19.1298C15.4652 19.4884 15.4599 19.8582 15.3895 20.2125C15.2786 20.7696 14.8888 21.1118 14.3201 21.2369C13.799 21.3516 13.2667 21.4119 12.7324 21.4165C12.14 21.4196 11.5479 21.3942 10.9555 21.3973C10.3231 21.4007 9.5485 21.3443 9.06034 20.8888C8.63143 20.4888 8.57216 19.8624 8.51377 19.3208C8.43592 18.6038 8.35875 17.8869 8.28224 17.1701L7.85306 13.1841L7.57541 10.605C7.57072 10.5623 7.56606 10.5202 7.56168 10.4773C7.52839 10.1697 7.30329 9.86849 6.94855 9.88402C6.64492 9.89701 6.29981 10.1468 6.33543 10.4773L6.54126 12.3894L6.96694 16.3446C7.08821 17.468 7.20918 18.5916 7.32986 19.7155C7.35322 19.9307 7.37511 20.1467 7.39963 20.3619C7.53307 21.5383 8.46151 22.1723 9.61127 22.3508C10.2828 22.4553 10.9707 22.4768 11.6521 22.4875C12.5257 22.5011 13.408 22.5337 14.2672 22.3805C15.5405 22.1544 16.4958 21.3318 16.6321 20.0557C16.6711 19.6872 16.71 19.3188 16.7489 18.9502C16.8784 17.7312 17.0076 16.5122 17.1367 15.293L17.5588 11.3096L17.7524 9.48399C17.7621 9.39346 17.8016 9.30834 17.8651 9.24123C17.9286 9.17413 18.0128 9.12858 18.1051 9.11134C18.4692 9.04269 18.8172 8.92545 19.0762 8.65734C19.4884 8.23047 19.5705 7.67392 19.4248 7.11284ZM5.72902 7.50667C5.73456 7.50413 5.72435 7.55017 5.71997 7.57164C5.71909 7.53915 5.72084 7.51033 5.72902 7.50667ZM5.76435 7.7711C5.76727 7.76912 5.77602 7.78043 5.78507 7.79399C5.77135 7.78155 5.76259 7.77224 5.76405 7.7711H5.76435ZM5.79909 7.81545C5.81164 7.83607 5.81836 7.84908 5.79909 7.81545V7.81545ZM5.86887 7.87026H5.87062C5.87062 7.87224 5.87383 7.87421 5.875 7.8762C5.87306 7.87402 5.87091 7.87203 5.86858 7.87026H5.86887ZM18.0882 7.78833C17.9574 7.90868 17.7603 7.96462 17.5655 7.9926C15.3817 8.30618 13.1659 8.46496 10.9581 8.3949C9.37799 8.34263 7.81453 8.17283 6.25018 7.95897C6.09689 7.93807 5.93076 7.91094 5.82537 7.80161C5.62683 7.59537 5.72435 7.18008 5.77602 6.93091C5.82332 6.70263 5.91383 6.39837 6.19441 6.36588C6.63236 6.31616 7.14095 6.49498 7.57424 6.55855C8.09588 6.63558 8.61947 6.69726 9.14499 6.7436C11.3879 6.94136 13.6684 6.91056 15.9014 6.62127C16.3083 6.56834 16.7139 6.50685 17.118 6.43679C17.478 6.37435 17.8771 6.25712 18.0946 6.61788C18.2438 6.86367 18.2636 7.19251 18.2406 7.47022C18.2335 7.59121 18.1788 7.70502 18.0879 7.78833H18.0882Z" fill="#0D0C22"/>
</g>
<defs>
<clipPath id="clip0_3492_9319">
<rect width="15" height="21" fill="white" transform="translate(4.5 1.5)"/>
</clipPath>
</defs>
</svg>
