<svg width="40" height="41" viewBox="0 0 40 41" fill="none" xmlns="http://www.w3.org/2000/svg">
<g clip-path="url(#clip0_2777_967)">
<mask id="mask0_2777_967" style="mask-type:luminance" maskUnits="userSpaceOnUse" x="0" y="0" width="40" height="41">
<path d="M40 0.884277H0V40.8843H40V0.884277Z" fill="white"/>
</mask>
<g mask="url(#mask0_2777_967)">
<path d="M20.931 1.33892C19.2621 1.51518 17.5777 1.90601 16.2426 2.42713C14.5892 3.07086 12.7651 4.16673 11.5231 5.24727C11.1583 5.56149 10.6537 5.99063 10.4053 6.1899C10.1569 6.38913 9.9551 6.57305 9.9551 6.59604C9.9551 6.6497 10.0017 6.61903 10.809 6.08258C12.1674 5.18598 14.0458 4.44262 15.8622 4.08244C16.6152 3.93683 16.9955 3.91384 18.4548 3.90617C20.2247 3.90617 20.5507 3.94449 21.9867 4.29701C24.5405 4.91774 26.8692 6.24351 28.8175 8.15939C30.7581 10.0676 32.1398 12.4509 32.8539 15.0795C32.9781 15.5393 33.0557 15.9608 33.0402 16.0144C33.0169 16.0681 33.0325 16.183 33.079 16.2673C33.3818 16.8344 33.5059 19.8002 33.2808 21.3329C32.8074 24.5745 31.4256 27.4406 29.2522 29.6937C27.9636 31.0272 26.6907 31.9697 25.1382 32.7131C23.5236 33.4948 21.6063 34.0082 19.9297 34.1155C19.0137 34.1692 18.9516 34.1538 17.3681 33.4105C12.1751 30.9812 8.7442 25.9463 8.58118 20.4746C8.51135 18.4131 8.79853 16.6198 9.45833 14.9645C9.93184 13.7767 10.0638 13.5698 10.6693 13.064C13.813 10.4584 18.0978 9.14032 22.1497 9.53883C26.0153 9.92966 29.6325 11.8379 31.9457 14.704C32.2562 15.0872 32.5978 15.5316 32.6987 15.6849C33.0247 16.1677 32.9703 15.9301 32.6133 15.3477C32.4347 15.0412 32.1398 14.5277 31.969 14.2135C30.0672 10.6653 27.2262 8.06743 23.5935 6.55774C22.2972 6.02129 20.6438 5.57681 19.2311 5.39289C18.1599 5.24727 15.6449 5.27026 14.6901 5.43119C11.9811 5.89103 9.93184 6.67269 7.85155 8.04444C3.66765 10.8109 0.974133 15.2328 0.492872 20.1451C0.205666 23.0112 0.648117 25.7547 1.83575 28.4676C2.38687 29.7244 3.49688 31.4486 4.41282 32.4832C6.1671 34.4604 8.16204 35.9164 10.4985 36.9127C11.1816 37.2039 13.5258 37.9932 13.5724 37.9472C13.5879 37.9319 13.3472 37.8017 13.0367 37.656C7.70404 35.1654 4.506 29.6784 4.97947 23.8235C5.18906 21.149 6.18265 18.3594 7.61865 16.3593C8.27845 15.4397 8.44147 15.2404 9.27979 14.3285C9.59028 13.9913 9.67567 14.0679 9.38845 14.4204C8.77526 15.1638 7.71179 17.1333 7.26159 18.3518C6.61735 20.0991 6.30682 21.6854 6.25249 23.5246C6.19041 25.5401 6.33788 26.705 6.88902 28.6592C8.42596 34.0772 12.8194 38.3917 18.385 39.9474C20.279 40.4838 22.7396 40.7061 24.5482 40.5068C32.4115 39.6562 38.4971 33.832 39.4985 26.1915C39.7236 24.4442 39.6071 22.2065 39.1569 19.9611C39.1258 19.8002 39.087 20.2983 39.056 21.1873C38.9784 23.3637 38.598 24.996 37.7519 26.7509C35.2913 31.8472 30.1449 34.9815 24.2455 34.9815C23.2287 34.9815 21.9711 34.8589 21.0552 34.6749C20.4342 34.5447 19.7822 34.3608 19.7046 34.2918C19.6735 34.2535 20.6127 34.2305 21.8004 34.2381C23.9738 34.2535 24.4085 34.2228 25.7902 33.9316C30.7814 32.9047 35.0196 29.6554 37.3172 25.1109C37.8451 24.0611 38.0702 23.4786 38.3962 22.3598C39.4286 18.8039 39.25 15.2098 37.8451 11.6539C35.9588 6.86428 31.6197 3.10151 26.4888 1.79873C24.8742 1.39256 22.3981 1.18565 20.931 1.33892ZM27.1874 3.27011C30.7038 4.51159 33.7466 6.98687 35.7027 10.1902C37.3327 12.8724 38.1012 16.1447 37.8296 19.3021C37.4337 23.9078 35.1282 27.9848 31.2626 30.8892C30.6184 31.372 28.9727 32.3606 28.9727 32.261C28.9727 32.2456 29.2832 32.0157 29.6714 31.7628C31.4334 30.5903 32.784 29.2569 33.9562 27.5096C35.889 24.6358 36.8282 21.3482 36.7118 17.869C36.6186 15.0948 35.9511 12.6885 34.6082 10.2668C33.8552 8.91042 33.1023 7.92949 31.938 6.74933C30.6106 5.42355 29.1125 4.35065 27.5522 3.61496C26.1706 2.96357 26.1162 2.94058 26.3336 2.99423C26.4422 3.01722 26.8226 3.13983 27.1874 3.27011ZM22.4291 3.22413C22.4058 3.24712 22.336 3.25478 22.2816 3.23179C22.2196 3.2088 22.2429 3.18581 22.3282 3.18581C22.4136 3.17815 22.4602 3.20114 22.4291 3.22413ZM23.5624 3.4387C25.9299 3.99047 28.4139 5.24727 30.1759 6.77996C33.8397 9.95265 35.788 14.4051 35.6251 19.1948C35.5319 21.8846 34.8566 24.199 33.4982 26.5364C32.3571 28.4982 30.6805 30.2838 28.8563 31.4793C28.5613 31.6785 28.2664 31.8778 28.212 31.9238C28.0335 32.0694 26.3802 32.8817 25.9843 33.012C25.503 33.1806 25.534 33.1576 26.3724 32.7208C30.9987 30.3451 34.0726 25.5095 34.3909 20.1067C34.6625 15.501 33.1877 11.1941 30.2069 7.9065C29.0193 6.59604 27.6998 5.55382 26.1861 4.7185C25.2236 4.18972 24.6802 3.95216 23.4615 3.55366C22.4214 3.21646 22.4524 3.17815 23.5624 3.4387ZM19.4251 6.35083C21.5364 6.61139 23.2053 7.11717 25.1304 8.05976C25.829 8.41228 26.745 8.93341 26.7062 8.97172C26.6907 8.97939 26.2327 8.77248 25.6893 8.50424C24.4861 7.91418 22.8328 7.37774 21.5209 7.1478C20.1082 6.89491 17.4147 6.89491 16.0097 7.1478C15.4819 7.2398 14.9385 7.35475 14.8066 7.39305C14.6824 7.43903 14.2399 7.56929 13.8363 7.69192C13.0057 7.93717 11.8336 8.41228 11.0573 8.8261C8.946 9.92966 6.88902 11.6309 5.52286 13.4088C3.76856 15.6849 2.69737 18.1219 2.22386 20.919C1.99099 22.3061 1.99876 24.3599 2.23939 25.8237C2.3403 26.4137 2.20834 26.0459 2.04533 25.2872C1.77365 23.9768 1.70379 23.0955 1.75037 21.5321C1.8047 19.8692 1.88232 19.2791 2.20058 18.0453C3.50464 13.018 7.09857 9.02537 11.9345 7.25511C13.2463 6.77232 14.8221 6.41212 16.1262 6.29717C16.9334 6.2282 18.6256 6.25119 19.4251 6.35083ZM20.9 7.92949C22.7785 8.15172 24.4396 8.64218 26.0464 9.43151C27.0322 9.91434 28.0335 10.5198 28.6157 10.9872C29.0737 11.3551 28.8718 11.2707 28.1422 10.7956C25.9843 9.39321 23.1976 8.61919 20.31 8.61919C17.7873 8.61919 15.5284 9.14032 13.2308 10.2438C12.245 10.719 10.5761 11.7305 10.1492 12.1214C10.0638 12.198 9.82314 12.3896 9.62135 12.5582C9.03918 13.018 7.96796 14.1062 7.35473 14.8649C5.942 16.6122 4.9562 18.4821 4.32743 20.6125C3.62884 22.9882 3.57451 25.793 4.1722 28.23C4.28086 28.6668 4.35849 29.0423 4.33522 29.0577C4.30416 29.096 3.9471 28.0078 3.74528 27.2031C3.40373 25.9003 3.32611 25.1953 3.32611 23.5246C3.32611 21.785 3.38821 21.2486 3.75304 19.7389C4.97171 14.8036 8.71314 10.65 13.5801 8.84909C14.7444 8.41228 16.4832 7.99846 17.5233 7.9065C18.2297 7.84521 20.2867 7.86052 20.9 7.92949ZM8.0689 18.4438C8.04559 18.5051 8.02228 18.4821 8.02228 18.3978C8.01453 18.3135 8.03784 18.2675 8.0611 18.2981C8.08441 18.3211 8.09216 18.3901 8.0689 18.4438ZM7.95245 20.0377C7.92914 20.8654 7.95245 21.7467 8.01453 22.2678C8.30951 24.8964 9.52041 27.7319 11.298 29.9236C12.3614 31.2341 14.17 32.7974 15.6604 33.694C17.5156 34.8052 20.0073 35.6789 22.2196 35.9854C23.3218 36.1463 25.9299 36.1234 26.9933 35.9471C29.9042 35.472 32.6987 34.1998 34.616 32.4985C35.2214 31.9544 35.4387 31.8242 35.0662 32.2303C34.7169 32.5981 34.6936 32.6288 34.0493 33.2112C31.8836 35.1884 28.7787 36.5985 25.6738 37.02C24.6491 37.1579 22.3903 37.1579 21.4045 37.0123C15.738 36.2 11.0573 32.6288 8.85286 27.433C8.5191 26.6436 8.10767 25.2566 7.92139 24.2526C7.7118 23.1721 7.68077 20.6125 7.85155 19.4017C7.90588 18.9955 7.96796 18.6583 7.97571 18.6583C7.98351 18.6583 7.97571 19.2791 7.95245 20.0377ZM7.05979 21.3942C7.03649 21.4708 7.02098 21.4248 7.02098 21.3022C7.02098 21.172 7.03649 21.1183 7.05979 21.1643C7.0753 21.2179 7.0753 21.3252 7.05979 21.3942ZM7.08306 23.563C7.4091 27.2184 8.96931 30.5903 11.5852 33.2419C15.5983 37.3342 21.3113 39.1044 27.0322 38.0316C28.8486 37.6943 31.1151 36.7824 32.6443 35.7708C33.6534 35.0964 33.7466 35.0505 33.3196 35.4336C32.9005 35.8091 31.4878 36.8207 31.3868 36.8207C31.348 36.8207 31.3014 36.8437 31.2859 36.8743C31.2005 37.0813 28.9184 38.1388 27.7929 38.499C25.8756 39.1121 24.4396 39.3114 22.3049 39.25C19.8598 39.181 17.8804 38.7136 15.9243 37.7403C15.5673 37.5564 15.1714 37.3572 15.0394 37.2958C14.6202 37.0813 13.5258 36.3533 12.9591 35.9011C9.63686 33.2572 7.51775 29.4025 7.01322 25.0573C6.96661 24.6741 6.93559 23.8005 6.94335 23.1032C6.9511 22.4058 6.96661 22.0073 6.98216 22.2218C6.98992 22.4288 7.03649 23.0341 7.08306 23.563Z" fill="white"/>
<path d="M11.8799 14.1137C11.7557 14.1444 11.7402 14.2823 11.7402 15.5928V17.0412H12.9046L14.0689 17.0489V16.7807C14.0689 16.4281 13.8283 15.9607 13.5255 15.7308L13.2849 15.5468L13.5954 15.225C13.8982 14.9108 14.0379 14.5506 13.9758 14.2364C13.9525 14.1137 13.8593 14.0984 12.9822 14.0908C12.4466 14.0831 11.9498 14.0908 11.8799 14.1137ZM13.4324 14.6349C13.4479 14.6502 13.4013 14.7498 13.3237 14.8648C13.1607 15.11 12.8735 15.2633 12.5164 15.3016L12.2448 15.3246L12.2215 14.9644C12.2059 14.6732 12.2215 14.6042 12.3379 14.5812C12.4776 14.5506 13.3858 14.5966 13.4324 14.6349ZM13.1064 15.9836C13.3936 16.1522 13.5799 16.4971 13.4169 16.5584C13.3626 16.5814 13.0753 16.5891 12.7804 16.5737L12.2448 16.5508L12.2215 16.2135C12.2059 15.999 12.2293 15.8534 12.2913 15.815C12.4311 15.7308 12.8192 15.815 13.1064 15.9836Z" fill="white"/>
<path d="M15.567 14.1215C15.3574 14.1522 15.3497 14.1828 15.5049 14.543C15.567 14.6963 15.6214 14.8419 15.6214 14.8572C15.6214 14.8802 15.4894 14.9645 15.3341 15.0488C14.6976 15.3706 14.3018 16.0067 14.3018 16.7118C14.3018 16.8957 14.3173 17.0489 14.3328 17.0489C14.3483 17.0489 14.783 16.9647 15.3031 16.8574C16.2578 16.6581 16.3976 16.6581 16.3976 16.865C16.3976 16.9647 16.4674 16.9877 16.8245 17.003C17.0341 17.0106 17.0186 16.9647 16.4829 15.6236C16.2346 14.9952 16.0017 14.4051 15.9784 14.3131C15.9163 14.1292 15.8154 14.0755 15.567 14.1215ZM16.0716 16.1217C16.056 16.1983 15.862 16.2673 15.4739 16.3363C15.1634 16.3976 14.8839 16.4205 14.8607 16.3976C14.8296 16.3746 14.8917 16.1983 14.9926 16.0144C15.1168 15.7845 15.272 15.6312 15.4971 15.5163L15.8154 15.363L15.9551 15.6849C16.0327 15.8611 16.0793 16.0527 16.0716 16.1217Z" fill="white"/>
<path d="M17.2747 14.1138C17.2204 14.1291 17.1738 14.2518 17.1738 14.3743V14.5966H18.0277C18.5012 14.5966 18.8815 14.6196 18.8815 14.6426C18.8815 14.6656 18.4934 15.1024 18.0277 15.6158C17.2903 16.4205 17.1738 16.5814 17.1893 16.7807L17.2126 17.0106H18.4158H19.6189L19.6422 16.7654L19.6655 16.5201L18.7728 16.4971L17.8802 16.4741L18.1674 16.16C19.2774 14.9568 19.4715 14.7192 19.5491 14.497C19.6966 14.0908 19.6112 14.0602 18.4235 14.0678C17.8414 14.0678 17.3213 14.0908 17.2747 14.1138Z" fill="white"/>
<path d="M20.9235 14.175C20.908 14.2287 20.9468 14.3972 21.0089 14.5582C21.0787 14.7191 21.1331 14.857 21.1331 14.8724C21.1331 14.8877 20.9934 14.972 20.8303 15.0486C20.4422 15.2479 20.0231 15.7384 19.9066 16.1215C19.8057 16.4434 19.7824 17.0488 19.8678 17.0488C19.8989 17.0488 20.3336 16.9568 20.8458 16.8419L21.7773 16.6426L21.9171 16.8266C22.0878 17.0488 22.4527 17.1024 22.4527 16.9032C22.4527 16.8266 22.212 16.1675 21.9171 15.4318C21.4125 14.175 21.3737 14.0984 21.1719 14.0907C21.0554 14.083 20.9468 14.129 20.9235 14.175ZM21.5833 16.1138C21.5678 16.1752 21.5056 16.2365 21.4436 16.2518C21.3814 16.2594 21.1253 16.3131 20.8769 16.3668C20.6363 16.4127 20.4112 16.4357 20.3879 16.4204C20.318 16.3438 20.5587 15.8686 20.776 15.654C21.1098 15.3322 21.3038 15.3399 21.4668 15.7C21.5445 15.8686 21.591 16.0525 21.5833 16.1138Z" fill="white"/>
<path d="M11.4297 19.3481C11.4297 19.5933 11.4219 19.5933 12.268 19.601C12.4388 19.601 12.4388 19.6086 12.4388 20.8118V22.0303H12.7105H12.9744L12.9977 20.8195C13.0132 19.9228 13.0443 19.6163 13.1219 19.6086C13.1685 19.601 13.3936 19.5933 13.6109 19.5856C13.9913 19.578 13.999 19.5703 13.9757 19.3634L13.9525 19.1565L12.695 19.1335L11.4297 19.1182V19.3481Z" fill="white"/>
<path d="M14.3561 19.1641C14.325 19.1948 14.3018 19.8539 14.3018 20.6279V22.038L14.5579 22.015L14.8063 21.992V21.4938V20.9957L15.0858 20.9727C15.3497 20.9498 15.3885 20.9804 15.8076 21.4862L16.2501 22.0303H16.7313C16.9953 22.0303 17.5231 21.9613 17.9035 21.877C18.7729 21.6854 18.8582 21.6854 18.9203 21.877C18.9591 21.992 19.0368 22.0303 19.2386 22.0303C19.386 22.0303 19.5025 21.9996 19.5025 21.969C19.5025 21.8617 18.4856 19.3098 18.4002 19.2101C18.3149 19.1105 18.0121 19.0799 17.9267 19.1641C17.9035 19.1948 17.9267 19.3327 17.9889 19.4784C18.1596 19.8845 18.1286 19.9841 17.7793 20.1528C17.3213 20.3673 17.0108 20.7888 16.8633 21.3942L16.7313 21.9L16.2811 21.3099L15.8309 20.7275L16.0716 20.4976C16.3976 20.1911 16.5606 19.8615 16.5761 19.4784L16.5916 19.1565L15.4971 19.1335C14.8995 19.1258 14.3871 19.1412 14.3561 19.1641ZM16.0095 19.7389C16.0095 20.0838 15.1401 20.6355 14.8607 20.4669C14.7985 20.4286 14.783 19.9152 14.8374 19.6316C14.8374 19.601 15.109 19.578 15.4273 19.578C15.9707 19.578 16.0095 19.5856 16.0095 19.7389ZM18.4934 20.7735C18.5788 20.9728 18.6487 21.1567 18.6487 21.1873C18.6487 21.218 18.4468 21.2869 18.2062 21.3329C17.9578 21.3789 17.6784 21.4402 17.5852 21.4632C17.3523 21.5245 17.3446 21.3252 17.5619 20.9727C17.7016 20.7582 18.1286 20.421 18.276 20.421C18.3071 20.421 18.4002 20.5819 18.4934 20.7735Z" fill="white"/>
<path d="M19.945 19.1639C19.9139 19.1945 19.8906 19.8536 19.8906 20.6276V22.03H20.1235H20.3564L20.3409 20.5892C20.3176 19.2098 20.3098 19.1562 20.1623 19.1332C20.0692 19.1179 19.976 19.1332 19.945 19.1639Z" fill="white"/>
<path d="M21.0088 19.2176C20.9933 19.2712 20.9855 19.9149 20.9933 20.6506L21.0166 21.9917L21.2727 22.0147L21.5211 22.0377V21.0031C21.5211 20.4284 21.5444 19.9609 21.5677 19.9609C21.6065 19.9609 22.375 20.7579 22.833 21.2714C22.9882 21.4553 23.0736 21.6315 23.0736 21.7925C23.0736 22.0147 23.0891 22.03 23.3452 22.03H23.617L23.6014 20.5893L23.5781 19.1563H23.3452H23.1124L23.0736 19.9916L23.0347 20.8269L22.7708 20.528C22.0179 19.662 21.428 19.1179 21.2417 19.1179C21.133 19.1179 21.0321 19.1639 21.0088 19.2176Z" fill="white"/>
<path d="M24.2926 19.164C24.2616 19.1946 24.2383 19.8537 24.2383 20.6277V22.0301H25.2474H26.2565V21.8002V21.578L25.5035 21.555L24.7429 21.532V21.2638C24.7351 20.8116 24.7429 20.804 25.4492 20.804H26.1012V20.5741V20.3518L25.4259 20.3288L24.7429 20.3058L24.7351 20.0376C24.7273 19.5855 24.7351 19.5778 25.5346 19.5778H26.2642L26.241 19.3632L26.2177 19.1563L25.2784 19.1333C24.7661 19.1257 24.3237 19.141 24.2926 19.164Z" fill="white"/>
<path d="M26.7993 20.5741V22.0301H27.8084H28.8253L28.7942 21.8156L28.7632 21.6087L28.0103 21.5857L27.2573 21.5626L27.2806 21.2025L27.3038 20.8423L27.9869 20.8193L28.6701 20.7963L28.6467 20.5894C28.6234 20.3825 28.6157 20.3825 27.9404 20.3595L27.2573 20.3365L27.2806 19.9763L27.3038 19.6161L28.0646 19.5931L28.8253 19.5701L28.7942 19.3632L28.7632 19.1563L27.7851 19.1333L26.7993 19.1104V20.5741Z" fill="white"/>
<path d="M11.7092 24.2451C11.6859 24.2758 11.6781 24.6359 11.6936 25.0268C11.7092 25.5862 11.7557 25.8314 11.8955 26.115C12.2059 26.7587 12.8502 27.0883 13.8127 27.0883H14.3017L14.2862 25.6475L14.263 24.2145L14.0146 24.1914L13.7584 24.1685V25.3946V26.6285L13.4324 26.5825C12.5319 26.4445 12.2059 25.9924 12.2059 24.8812V24.1761H11.9808C11.8489 24.1761 11.7324 24.2068 11.7092 24.2451Z" fill="white"/>
<path d="M14.9229 25.6321V27.0881H15.1557H15.3809L15.4041 26.4904C15.4274 25.9309 15.4352 25.9003 15.6215 25.8773C15.8854 25.839 16.3511 25.9846 16.5141 26.1685C16.5917 26.2528 16.6926 26.4827 16.747 26.682C16.8324 27.0192 16.8634 27.0498 17.0963 27.0728L17.3524 27.0958L17.2981 26.7816C17.2283 26.3601 17.0575 26.0153 16.8013 25.8083L16.5995 25.6397L16.8013 25.4252C17.0575 25.1646 17.2515 24.7201 17.2515 24.4059C17.2515 24.199 17.2283 24.176 17.0187 24.176C16.8169 24.176 16.7858 24.2067 16.7392 24.4596C16.6306 25.0956 16.1726 25.4711 15.6215 25.3869C15.4352 25.3639 15.4274 25.3332 15.4041 24.7661L15.3809 24.176H15.1557H14.9229V25.6321Z" fill="white"/>
<path d="M17.7949 25.6322V27.0883H18.0278H18.2606V26.5518C18.2606 26.092 18.2839 26.0154 18.4004 26.0154C18.4702 26.0154 18.6022 26.0001 18.6876 25.9771C18.8118 25.9464 18.936 26.0613 19.2697 26.5135L19.6967 27.0883H20.1236C20.4884 27.0883 21.6528 26.889 22.1573 26.7357C22.2505 26.7051 22.3281 26.7587 22.3902 26.889C22.4601 27.0423 22.5299 27.0883 22.7395 27.0883C22.8792 27.0883 22.9957 27.0576 22.9957 27.0193C22.9957 26.981 22.9103 26.7664 22.8094 26.5441C22.7084 26.3142 22.4601 25.6935 22.2582 25.1494L21.8857 24.1761H21.6295C21.3268 24.1761 21.319 24.2068 21.482 24.5823C21.6372 24.9578 21.6295 24.9885 21.3811 25.0881C20.8766 25.295 20.2788 26.1303 20.2788 26.6438C20.2788 26.7664 20.2478 26.8584 20.209 26.8584C20.1702 26.8584 19.9917 26.6591 19.8053 26.4139C19.6268 26.1763 19.4483 25.9617 19.4095 25.9541C19.2853 25.9004 19.3551 25.6858 19.5414 25.5403C19.8053 25.341 20.0227 24.8965 20.0615 24.521L20.0848 24.2145L18.936 24.1914L17.7949 24.1685V25.6322ZM19.5026 24.7509C19.5026 24.9502 19.0369 25.3946 18.7419 25.4789C18.2684 25.6015 18.2606 25.6015 18.2606 25.0958V24.6359H18.8816C19.3784 24.6359 19.5026 24.6589 19.5026 24.7509ZM21.9477 25.7472C22.1573 26.2529 22.1573 26.2529 21.5208 26.4062C21.1948 26.4828 20.9076 26.5135 20.8688 26.4752C20.6903 26.2989 21.3966 25.4789 21.7226 25.4789C21.7847 25.4789 21.8779 25.6015 21.9477 25.7472Z" fill="white"/>
<path d="M23.3374 24.2754C23.3219 24.329 23.3141 24.9728 23.3219 25.7085L23.3452 27.0496L23.6014 27.0726L23.8497 27.0955V25.6395V24.1758H23.6169C23.4849 24.1758 23.3607 24.2218 23.3374 24.2754Z" fill="white"/>
<path d="M24.4707 25.6395V27.0955L24.7269 27.0726L24.9752 27.0496L24.9985 26.0303C25.0063 25.4633 25.0451 25.0188 25.0762 25.0341C25.1149 25.0494 25.4643 25.4019 25.8524 25.8234C26.4423 26.4595 26.5665 26.6357 26.5665 26.835C26.5665 27.0649 26.5898 27.0879 26.7994 27.0879H27.0323V25.6318V24.1758H26.7994H26.5665V24.9804C26.5665 25.4249 26.5355 25.7851 26.4967 25.7851C26.4578 25.7851 26.3336 25.6702 26.2172 25.5322C26.1008 25.4019 25.767 25.0341 25.4721 24.7275C25.0451 24.2754 24.9054 24.1758 24.7113 24.1758H24.4707V25.6395Z" fill="white"/>
<path d="M27.7305 25.6319V27.0956L28.7241 27.0727L29.7099 27.0497V26.8581C29.7099 26.6665 29.7021 26.6665 28.9492 26.6435L28.1962 26.6205V26.245V25.8619H28.8948H29.5934V25.6319V25.402H28.8948H28.1962V25.0189V24.6434L28.9492 24.6204C29.7021 24.5974 29.7021 24.5974 29.7021 24.4058V24.2142L28.7163 24.1912L27.7305 24.1682V25.6319Z" fill="white"/>
</g>
</g>
<defs>
<clipPath id="clip0_2777_967">
<rect width="40" height="40" fill="white" transform="translate(0 0.524414)"/>
</clipPath>
</defs>
</svg>
