<svg width="40" height="41" viewBox="0 0 40 41" fill="none" xmlns="http://www.w3.org/2000/svg">
<g clip-path="url(#clip0_3202_1337)">
<mask id="mask0_3202_1337" style="mask-type:luminance" maskUnits="userSpaceOnUse" x="0" y="0" width="40" height="41">
<path d="M40 0.88916H0V40.8892H40V0.88916Z" fill="white"/>
</mask>
<g mask="url(#mask0_3202_1337)">
<path d="M20.931 1.34356C19.2621 1.51982 17.5777 1.91065 16.2426 2.43177C14.5892 3.0755 12.7651 4.17137 11.5231 5.25191C11.1583 5.56613 10.6537 5.99526 10.4053 6.19454C10.1569 6.39377 9.9551 6.57769 9.9551 6.60068C9.9551 6.65433 10.0017 6.62367 10.809 6.08722C12.1674 5.19062 14.0458 4.44726 15.8622 4.08707C16.6152 3.94147 16.9955 3.91848 18.4548 3.91081C20.2247 3.91081 20.5507 3.94913 21.9867 4.30165C24.5405 4.92237 26.8692 6.24815 28.8175 8.16403C30.7581 10.0722 32.1398 12.4556 32.8539 15.0842C32.9781 15.544 33.0557 15.9654 33.0402 16.0191C33.0169 16.0727 33.0325 16.1877 33.079 16.272C33.3818 16.8391 33.5059 19.8048 33.2808 21.3375C32.8074 24.5791 31.4256 27.4453 29.2522 29.6983C27.9636 31.0318 26.6907 31.9744 25.1382 32.7177C23.5236 33.4994 21.6063 34.0129 19.9297 34.1202C19.0137 34.1738 18.9516 34.1585 17.3681 33.4151C12.1751 30.9858 8.7442 25.9509 8.58118 20.4792C8.51135 18.4177 8.79853 16.6245 9.45833 14.9692C9.93184 13.7814 10.0638 13.5744 10.6693 13.0686C13.813 10.4631 18.0978 9.14496 22.1497 9.54347C26.0153 9.93429 29.6325 11.8425 31.9457 14.7086C32.2562 15.0918 32.5978 15.5363 32.6987 15.6895C33.0247 16.1724 32.9703 15.9348 32.6133 15.3524C32.4347 15.0458 32.1398 14.5324 31.969 14.2182C30.0672 10.67 27.2262 8.07207 23.5935 6.56238C22.2972 6.02593 20.6438 5.58145 19.2311 5.39753C18.1599 5.25191 15.6449 5.2749 14.6901 5.43583C11.9811 5.89567 9.93184 6.67732 7.85155 8.04908C3.66765 10.8156 0.974133 15.2374 0.492872 20.1497C0.205666 23.0158 0.648117 25.7593 1.83575 28.4722C2.38687 29.729 3.49688 31.4533 4.41282 32.4878C6.1671 34.465 8.16204 35.9211 10.4985 36.9173C11.1816 37.2085 13.5258 37.9979 13.5724 37.9519C13.5879 37.9366 13.3472 37.8063 13.0367 37.6607C7.70404 35.1701 4.506 29.683 4.97947 23.8282C5.18906 21.1536 6.18265 18.3641 7.61865 16.3639C8.27845 15.4443 8.44147 15.2451 9.27979 14.3331C9.59028 13.9959 9.67567 14.0726 9.38845 14.4251C8.77526 15.1684 7.71179 17.1379 7.26159 18.3564C6.61735 20.1037 6.30682 21.6901 6.25249 23.5292C6.19041 25.5448 6.33788 26.7096 6.88902 28.6638C8.42596 34.0819 12.8194 38.3964 18.385 39.952C20.279 40.4885 22.7396 40.7107 24.5482 40.5115C32.4115 39.6608 38.4971 33.8366 39.4985 26.1962C39.7236 24.4489 39.6071 22.2111 39.1569 19.9658C39.1258 19.8048 39.087 20.3029 39.056 21.1919C38.9784 23.3683 38.598 25.0006 37.7519 26.7556C35.2913 31.8518 30.1449 34.9861 24.2455 34.9861C23.2287 34.9861 21.9711 34.8635 21.0552 34.6796C20.4342 34.5493 19.7822 34.3654 19.7046 34.2964C19.6735 34.2581 20.6127 34.2351 21.8004 34.2428C23.9738 34.2581 24.4085 34.2274 25.7902 33.9362C30.7814 32.9093 35.0196 29.66 37.3172 25.1156C37.8451 24.0657 38.0702 23.4833 38.3962 22.3644C39.4286 18.8086 39.25 15.2144 37.8451 11.6586C35.9588 6.86892 31.6197 3.10615 26.4888 1.80336C24.8742 1.3972 22.3981 1.19029 20.931 1.34356ZM27.1874 3.27475C30.7038 4.51623 33.7466 6.99151 35.7027 10.1949C37.3327 12.877 38.1012 16.1494 37.8296 19.3067C37.4337 23.9124 35.1282 27.9894 31.2626 30.8939C30.6184 31.3766 28.9727 32.3652 28.9727 32.2656C28.9727 32.2503 29.2832 32.0204 29.6714 31.7675C31.4334 30.595 32.784 29.2615 33.9562 27.5143C35.889 24.6405 36.8282 21.3528 36.7118 17.8736C36.6186 15.0995 35.9511 12.6931 34.6082 10.2715C33.8552 8.91506 33.1023 7.93413 31.938 6.75397C30.6106 5.42819 29.1125 4.35529 27.5522 3.6196C26.1706 2.96821 26.1162 2.94522 26.3336 2.99886C26.4422 3.02185 26.8226 3.14447 27.1874 3.27475ZM22.4291 3.22877C22.4058 3.25176 22.336 3.25942 22.2816 3.23643C22.2196 3.21344 22.2429 3.19045 22.3282 3.19045C22.4136 3.18279 22.4602 3.20578 22.4291 3.22877ZM23.5624 3.44334C25.9299 3.99511 28.4139 5.25191 30.1759 6.7846C33.8397 9.95728 35.788 14.4098 35.6251 19.1994C35.5319 21.8893 34.8566 24.2036 33.4982 26.541C32.3571 28.5029 30.6805 30.2884 28.8563 31.4839C28.5613 31.6832 28.2664 31.8824 28.212 31.9284C28.0335 32.074 26.3802 32.8863 25.9843 33.0166C25.503 33.1852 25.534 33.1622 26.3724 32.7254C30.9987 30.3497 34.0726 25.5141 34.3909 20.1113C34.6625 15.5056 33.1877 11.1987 30.2069 7.91114C29.0193 6.60068 27.6998 5.55846 26.1861 4.72314C25.2236 4.19436 24.6802 3.9568 23.4615 3.55829C22.4214 3.2211 22.4524 3.18279 23.5624 3.44334ZM19.4251 6.35547C21.5364 6.61603 23.2053 7.12181 25.1304 8.0644C25.829 8.41692 26.745 8.93805 26.7062 8.97636C26.6907 8.98403 26.2327 8.77712 25.6893 8.50888C24.4861 7.91882 22.8328 7.38237 21.5209 7.15244C20.1082 6.89955 17.4147 6.89955 16.0097 7.15244C15.4819 7.24444 14.9385 7.35939 14.8066 7.39769C14.6824 7.44367 14.2399 7.57393 13.8363 7.69656C13.0057 7.94181 11.8336 8.41692 11.0573 8.83074C8.946 9.93429 6.88902 11.6356 5.52286 13.4135C3.76856 15.6895 2.69737 18.1265 2.22386 20.9237C1.99099 22.3108 1.99876 24.3646 2.23939 25.8283C2.3403 26.4184 2.20834 26.0505 2.04533 25.2919C1.77365 23.9814 1.70379 23.1001 1.75037 21.5368C1.8047 19.8738 1.88232 19.2837 2.20058 18.0499C3.50464 13.0227 7.09857 9.03001 11.9345 7.25975C13.2463 6.77696 14.8221 6.41676 16.1262 6.30181C16.9334 6.23284 18.6256 6.25583 19.4251 6.35547ZM20.9 7.93413C22.7785 8.15635 24.4396 8.64682 26.0464 9.43615C27.0322 9.91898 28.0335 10.5244 28.6157 10.9918C29.0737 11.3597 28.8718 11.2754 28.1422 10.8003C25.9843 9.39785 23.1976 8.62383 20.31 8.62383C17.7873 8.62383 15.5284 9.14496 13.2308 10.2485C12.245 10.7236 10.5761 11.7352 10.1492 12.1261C10.0638 12.2027 9.82314 12.3943 9.62135 12.5629C9.03918 13.0227 7.96796 14.1109 7.35473 14.8696C5.942 16.6168 4.9562 18.4867 4.32743 20.6172C3.62884 22.9928 3.57451 25.7976 4.1722 28.2346C4.28086 28.6714 4.35849 29.0469 4.33522 29.0623C4.30416 29.1006 3.9471 28.0124 3.74528 27.2077C3.40373 25.9049 3.32611 25.1999 3.32611 23.5292C3.32611 21.7896 3.38821 21.2532 3.75304 19.7435C4.97171 14.8082 8.71314 10.6547 13.5801 8.85373C14.7444 8.41692 16.4832 8.0031 17.5233 7.91114C18.2297 7.84985 20.2867 7.86516 20.9 7.93413ZM8.0689 18.4484C8.04559 18.5097 8.02228 18.4867 8.02228 18.4024C8.01453 18.3181 8.03784 18.2721 8.0611 18.3028C8.08441 18.3258 8.09216 18.3947 8.0689 18.4484ZM7.95245 20.0424C7.92914 20.8701 7.95245 21.7513 8.01453 22.2724C8.30951 24.901 9.52041 27.7365 11.298 29.9282C12.3614 31.2387 14.17 32.8021 15.6604 33.6987C17.5156 34.8099 20.0073 35.6835 22.2196 35.9901C23.3218 36.151 25.9299 36.128 26.9933 35.9517C29.9042 35.4766 32.6987 34.2044 34.616 32.5032C35.2214 31.9591 35.4387 31.8288 35.0662 32.2349C34.7169 32.6028 34.6936 32.6334 34.0493 33.2159C31.8836 35.193 28.7787 36.6031 25.6738 37.0246C24.6491 37.1625 22.3903 37.1625 21.4045 37.017C15.738 36.2046 11.0573 32.6334 8.85286 27.4376C8.5191 26.6483 8.10767 25.2612 7.92139 24.2573C7.7118 23.1768 7.68077 20.6172 7.85155 19.4063C7.90588 19.0002 7.96796 18.663 7.97571 18.663C7.98351 18.663 7.97571 19.2837 7.95245 20.0424ZM7.05979 21.3988C7.03649 21.4755 7.02098 21.4295 7.02098 21.3069C7.02098 21.1766 7.03649 21.1229 7.05979 21.1689C7.0753 21.2226 7.0753 21.3299 7.05979 21.3988ZM7.08306 23.5676C7.4091 27.2231 8.96931 30.595 11.5852 33.2465C15.5983 37.3388 21.3113 39.1091 27.0322 38.0362C28.8486 37.699 31.1151 36.787 32.6443 35.7755C33.6534 35.1011 33.7466 35.0551 33.3196 35.4383C32.9005 35.8138 31.4878 36.8254 31.3868 36.8254C31.348 36.8254 31.3014 36.8484 31.2859 36.879C31.2005 37.0859 28.9184 38.1435 27.7929 38.5037C25.8756 39.1167 24.4396 39.316 22.3049 39.2547C19.8598 39.1857 17.8804 38.7182 15.9243 37.745C15.5673 37.561 15.1714 37.3618 15.0394 37.3005C14.6202 37.0859 13.5258 36.3579 12.9591 35.9057C9.63686 33.2619 7.51775 29.4071 7.01322 25.062C6.96661 24.6788 6.93559 23.8052 6.94335 23.1078C6.9511 22.4104 6.96661 22.0119 6.98216 22.2265C6.98992 22.4334 7.03649 23.0388 7.08306 23.5676Z" fill="white"/>
<path d="M11.8799 14.1181C11.7557 14.1488 11.7402 14.2867 11.7402 15.5972V17.0456H12.9046L14.0689 17.0532V16.785C14.0689 16.4325 13.8283 15.965 13.5255 15.7351L13.2849 15.5512L13.5954 15.2294C13.8982 14.9151 14.0379 14.555 13.9758 14.2408C13.9525 14.1181 13.8593 14.1028 12.9822 14.0951C12.4466 14.0875 11.9498 14.0951 11.8799 14.1181ZM13.4324 14.6393C13.4479 14.6546 13.4013 14.7542 13.3237 14.8692C13.1607 15.1144 12.8735 15.2677 12.5164 15.306L12.2448 15.329L12.2215 14.9688C12.2059 14.6776 12.2215 14.6086 12.3379 14.5856C12.4776 14.555 13.3858 14.601 13.4324 14.6393ZM13.1064 15.988C13.3936 16.1566 13.5799 16.5015 13.4169 16.5628C13.3626 16.5858 13.0753 16.5935 12.7804 16.5781L12.2448 16.5551L12.2215 16.2179C12.2059 16.0034 12.2293 15.8578 12.2913 15.8194C12.4311 15.7351 12.8192 15.8194 13.1064 15.988Z" fill="white"/>
<path d="M15.567 14.1259C15.3574 14.1566 15.3497 14.1872 15.5049 14.5474C15.567 14.7007 15.6214 14.8463 15.6214 14.8616C15.6214 14.8846 15.4894 14.9689 15.3341 15.0532C14.6976 15.375 14.3018 16.0111 14.3018 16.7162C14.3018 16.9001 14.3173 17.0533 14.3328 17.0533C14.3483 17.0533 14.783 16.9691 15.3031 16.8618C16.2578 16.6625 16.3976 16.6625 16.3976 16.8694C16.3976 16.9691 16.4674 16.992 16.8245 17.0074C17.0341 17.015 17.0186 16.9691 16.4829 15.628C16.2346 14.9996 16.0017 14.4095 15.9784 14.3175C15.9163 14.1336 15.8154 14.0799 15.567 14.1259ZM16.0716 16.1261C16.056 16.2027 15.862 16.2717 15.4739 16.3407C15.1634 16.4019 14.8839 16.4249 14.8607 16.4019C14.8296 16.379 14.8917 16.2027 14.9926 16.0188C15.1168 15.7889 15.272 15.6356 15.4971 15.5207L15.8154 15.3674L15.9551 15.6893C16.0327 15.8655 16.0793 16.0571 16.0716 16.1261Z" fill="white"/>
<path d="M17.2747 14.1182C17.2204 14.1335 17.1738 14.2561 17.1738 14.3787V14.601H18.0277C18.5012 14.601 18.8815 14.624 18.8815 14.647C18.8815 14.67 18.4934 15.1068 18.0277 15.6202C17.2903 16.4249 17.1738 16.5858 17.1893 16.7851L17.2126 17.015H18.4158H19.6189L19.6422 16.7698L19.6655 16.5245L18.7728 16.5015L17.8802 16.4785L18.1674 16.1643C19.2774 14.9612 19.4715 14.7236 19.5491 14.5014C19.6966 14.0952 19.6112 14.0646 18.4235 14.0722C17.8414 14.0722 17.3213 14.0952 17.2747 14.1182Z" fill="white"/>
<path d="M20.9235 14.1794C20.908 14.2331 20.9468 14.4016 21.0089 14.5625C21.0787 14.7235 21.1331 14.8614 21.1331 14.8768C21.1331 14.8921 20.9934 14.9764 20.8303 15.053C20.4422 15.2523 20.0231 15.7428 19.9066 16.1259C19.8057 16.4478 19.7824 17.0532 19.8678 17.0532C19.8989 17.0532 20.3336 16.9612 20.8458 16.8463L21.7773 16.647L21.9171 16.831C22.0878 17.0532 22.4527 17.1068 22.4527 16.9076C22.4527 16.831 22.212 16.1719 21.9171 15.4362C21.4125 14.1794 21.3737 14.1028 21.1719 14.0951C21.0554 14.0874 20.9468 14.1334 20.9235 14.1794ZM21.5833 16.1182C21.5678 16.1796 21.5056 16.2409 21.4436 16.2562C21.3814 16.2638 21.1253 16.3175 20.8769 16.3712C20.6363 16.4171 20.4112 16.4401 20.3879 16.4248C20.318 16.3482 20.5587 15.873 20.776 15.6584C21.1098 15.3366 21.3038 15.3442 21.4668 15.7044C21.5445 15.873 21.591 16.0569 21.5833 16.1182Z" fill="white"/>
<path d="M11.4297 19.3525C11.4297 19.5977 11.4219 19.5977 12.268 19.6054C12.4388 19.6054 12.4388 19.613 12.4388 20.8162V22.0347H12.7105H12.9744L12.9977 20.8239C13.0132 19.9272 13.0443 19.6207 13.1219 19.613C13.1685 19.6054 13.3936 19.5977 13.6109 19.59C13.9913 19.5824 13.999 19.5747 13.9757 19.3678L13.9525 19.1609L12.695 19.1379L11.4297 19.1226V19.3525Z" fill="white"/>
<path d="M14.3561 19.1685C14.325 19.1992 14.3018 19.8583 14.3018 20.6323V22.0424L14.5579 22.0194L14.8063 21.9964V21.4982V21.0001L15.0858 20.9771C15.3497 20.9542 15.3885 20.9848 15.8076 21.4906L16.2501 22.0347H16.7313C16.9953 22.0347 17.5231 21.9657 17.9035 21.8814C18.7729 21.6898 18.8582 21.6898 18.9203 21.8814C18.9591 21.9964 19.0368 22.0347 19.2386 22.0347C19.386 22.0347 19.5025 22.004 19.5025 21.9734C19.5025 21.8661 18.4856 19.3142 18.4002 19.2145C18.3149 19.1149 18.0121 19.0843 17.9267 19.1685C17.9035 19.1992 17.9267 19.3371 17.9889 19.4828C18.1596 19.8889 18.1286 19.9885 17.7793 20.1571C17.3213 20.3717 17.0108 20.7932 16.8633 21.3986L16.7313 21.9044L16.2811 21.3143L15.8309 20.7319L16.0716 20.502C16.3976 20.1954 16.5606 19.8659 16.5761 19.4828L16.5916 19.1609L15.4971 19.1379C14.8995 19.1302 14.3871 19.1455 14.3561 19.1685ZM16.0095 19.7433C16.0095 20.0882 15.1401 20.6399 14.8607 20.4713C14.7985 20.433 14.783 19.9196 14.8374 19.636C14.8374 19.6054 15.109 19.5824 15.4273 19.5824C15.9707 19.5824 16.0095 19.59 16.0095 19.7433ZM18.4934 20.7779C18.5788 20.9771 18.6487 21.1611 18.6487 21.1917C18.6487 21.2224 18.4468 21.2913 18.2062 21.3373C17.9578 21.3833 17.6784 21.4446 17.5852 21.4676C17.3523 21.5289 17.3446 21.3296 17.5619 20.9771C17.7016 20.7626 18.1286 20.4253 18.276 20.4253C18.3071 20.4253 18.4002 20.5863 18.4934 20.7779Z" fill="white"/>
<path d="M19.945 19.1685C19.9139 19.1991 19.8906 19.8582 19.8906 20.6322V22.0346H20.1235H20.3564L20.3409 20.5939C20.3176 19.2145 20.3098 19.1608 20.1623 19.1378C20.0692 19.1225 19.976 19.1378 19.945 19.1685Z" fill="white"/>
<path d="M21.0088 19.2222C20.9933 19.2759 20.9855 19.9196 20.9933 20.6552L21.0166 21.9964L21.2727 22.0194L21.5211 22.0424V21.0078C21.5211 20.433 21.5444 19.9655 21.5677 19.9655C21.6065 19.9655 22.375 20.7626 22.833 21.276C22.9882 21.4599 23.0736 21.6362 23.0736 21.7971C23.0736 22.0194 23.0891 22.0347 23.3452 22.0347H23.617L23.6014 20.594L23.5781 19.1609H23.3452H23.1124L23.0736 19.9962L23.0347 20.8315L22.7708 20.5327C22.0179 19.6667 21.428 19.1226 21.2417 19.1226C21.133 19.1226 21.0321 19.1685 21.0088 19.2222Z" fill="white"/>
<path d="M24.2926 19.1689C24.2616 19.1995 24.2383 19.8586 24.2383 20.6326V22.035H25.2474H26.2565V21.8051V21.5829L25.5035 21.5599L24.7429 21.5369V21.2687C24.7351 20.8165 24.7429 20.8089 25.4492 20.8089H26.1012V20.579V20.3567L25.4259 20.3337L24.7429 20.3107L24.7351 20.0425C24.7273 19.5903 24.7351 19.5827 25.5346 19.5827H26.2642L26.241 19.3681L26.2177 19.1612L25.2784 19.1382C24.7661 19.1306 24.3237 19.1459 24.2926 19.1689Z" fill="white"/>
<path d="M26.7993 20.5785V22.0345H27.8084H28.8253L28.7942 21.82L28.7632 21.613L28.0103 21.5901L27.2573 21.567L27.2806 21.2069L27.3038 20.8467L27.9869 20.8237L28.6701 20.8007L28.6467 20.5938C28.6234 20.3869 28.6157 20.3869 27.9404 20.3639L27.2573 20.3409L27.2806 19.9807L27.3038 19.6205L28.0646 19.5975L28.8253 19.5745L28.7942 19.3676L28.7632 19.1607L27.7851 19.1377L26.7993 19.1147V20.5785Z" fill="white"/>
<path d="M11.7092 24.2495C11.6859 24.2802 11.6781 24.6403 11.6936 25.0312C11.7092 25.5906 11.7557 25.8358 11.8955 26.1194C12.2059 26.7631 12.8502 27.0927 13.8127 27.0927H14.3017L14.2862 25.6519L14.263 24.2189L14.0146 24.1958L13.7584 24.1729V25.399V26.6329L13.4324 26.5869C12.5319 26.4489 12.2059 25.9968 12.2059 24.8856V24.1805H11.9808C11.8489 24.1805 11.7324 24.2112 11.7092 24.2495Z" fill="white"/>
<path d="M14.9229 25.6367V27.0928H15.1557H15.3809L15.4041 26.495C15.4274 25.9356 15.4352 25.9049 15.6215 25.882C15.8854 25.8436 16.3511 25.9892 16.5141 26.1731C16.5917 26.2575 16.6926 26.4874 16.747 26.6866C16.8324 27.0238 16.8634 27.0544 17.0963 27.0774L17.3524 27.1004L17.2981 26.7862C17.2283 26.3647 17.0575 26.0199 16.8013 25.813L16.5995 25.6444L16.8013 25.4298C17.0575 25.1692 17.2515 24.7248 17.2515 24.4106C17.2515 24.2037 17.2283 24.1807 17.0187 24.1807C16.8169 24.1807 16.7858 24.2113 16.7392 24.4642C16.6306 25.1003 16.1726 25.4758 15.6215 25.3915C15.4352 25.3685 15.4274 25.3378 15.4041 24.7708L15.3809 24.1807H15.1557H14.9229V25.6367Z" fill="white"/>
<path d="M17.7949 25.6366V27.0927H18.0278H18.2606V26.5562C18.2606 26.0964 18.2839 26.0198 18.4004 26.0198C18.4702 26.0198 18.6022 26.0044 18.6876 25.9815C18.8118 25.9508 18.936 26.0657 19.2697 26.5179L19.6967 27.0927H20.1236C20.4884 27.0927 21.6528 26.8934 22.1573 26.7401C22.2505 26.7095 22.3281 26.7631 22.3902 26.8934C22.4601 27.0467 22.5299 27.0927 22.7395 27.0927C22.8792 27.0927 22.9957 27.062 22.9957 27.0237C22.9957 26.9854 22.9103 26.7708 22.8094 26.5485C22.7084 26.3186 22.4601 25.6979 22.2582 25.1538L21.8857 24.1805H21.6295C21.3268 24.1805 21.319 24.2112 21.482 24.5867C21.6372 24.9622 21.6295 24.9929 21.3811 25.0925C20.8766 25.2994 20.2788 26.1347 20.2788 26.6482C20.2788 26.7708 20.2478 26.8628 20.209 26.8628C20.1702 26.8628 19.9917 26.6635 19.8053 26.4183C19.6268 26.1807 19.4483 25.9661 19.4095 25.9585C19.2853 25.9048 19.3551 25.6902 19.5414 25.5446C19.8053 25.3454 20.0227 24.9009 20.0615 24.5254L20.0848 24.2189L18.936 24.1958L17.7949 24.1729V25.6366ZM19.5026 24.7553C19.5026 24.9545 19.0369 25.399 18.7419 25.4833C18.2684 25.6059 18.2606 25.6059 18.2606 25.1002V24.6403H18.8816C19.3784 24.6403 19.5026 24.6633 19.5026 24.7553ZM21.9477 25.7516C22.1573 26.2573 22.1573 26.2573 21.5208 26.4106C21.1948 26.4872 20.9076 26.5179 20.8688 26.4796C20.6903 26.3033 21.3966 25.4833 21.7226 25.4833C21.7847 25.4833 21.8779 25.6059 21.9477 25.7516Z" fill="white"/>
<path d="M23.3374 24.2803C23.3219 24.3339 23.3141 24.9777 23.3219 25.7134L23.3452 27.0544L23.6014 27.0774L23.8497 27.1004V25.6444V24.1807H23.6169C23.4849 24.1807 23.3607 24.2266 23.3374 24.2803Z" fill="white"/>
<path d="M24.4707 25.6444V27.1004L24.7269 27.0774L24.9752 27.0544L24.9985 26.0352C25.0063 25.4681 25.0451 25.0237 25.0762 25.039C25.1149 25.0543 25.4643 25.4068 25.8524 25.8283C26.4423 26.4644 26.5665 26.6406 26.5665 26.8399C26.5665 27.0698 26.5898 27.0928 26.7994 27.0928H27.0323V25.6367V24.1807H26.7994H26.5665V24.9853C26.5665 25.4298 26.5355 25.79 26.4967 25.79C26.4578 25.79 26.3336 25.675 26.2172 25.5371C26.1008 25.4068 25.767 25.039 25.4721 24.7324C25.0451 24.2803 24.9054 24.1807 24.7113 24.1807H24.4707V25.6444Z" fill="white"/>
<path d="M27.7305 25.6366V27.1003L28.7241 27.0773L29.7099 27.0543V26.8627C29.7099 26.6712 29.7021 26.6712 28.9492 26.6482L28.1962 26.6252V26.2497V25.8665H28.8948H29.5934V25.6366V25.4067H28.8948H28.1962V25.0235V24.648L28.9492 24.625C29.7021 24.602 29.7021 24.602 29.7021 24.4104V24.2188L28.7163 24.1958L27.7305 24.1729V25.6366Z" fill="white"/>
</g>
</g>
<defs>
<clipPath id="clip0_3202_1337">
<rect width="40" height="40" fill="white" transform="translate(0 0.529297)"/>
</clipPath>
</defs>
</svg>
