<svg width="24" height="41" viewBox="0 0 24 41" fill="none" xmlns="http://www.w3.org/2000/svg">
<path fill-rule="evenodd" clip-rule="evenodd" d="M12.1331 38.6579V38.9246H11.8664V37.5911H11.5997V38.3913H11.333V37.8579H10.7996V37.5911H11.5997V37.3244H11.0663V37.0578H11.5997V36.7911H10.7996V37.3244H10.2663V36.7911H10.7996V36.2577H11.333V35.991H11.5997V35.7243H11.8664V35.4577H12.1331V35.7243H12.3998V35.991H12.9332V36.2577H13.1999V36.7911H13.7332V37.0578H13.9999V37.3244H13.4666V37.5911H13.1999V37.8579H12.9332V38.3913H12.3998V38.6579H12.1331ZM23.5997 28.5244V30.658H23.0663V31.1913H22.533V30.9247H22.2663V30.658H21.9999V31.7243H20.9332V32.2577H20.3998V31.991H20.1331V31.1913H19.8664V31.7243H19.333V32.2577H18.7996V31.991H18.5329V31.7243H17.9999V31.1913H17.7333V31.7243H16.3998V31.458H16.6665V31.1913H16.9331V30.658H17.4666V30.1245H16.1331V29.0578H16.3998V28.7911H16.6665V28.5244H17.1998V29.0578H17.4666V28.7911H17.7333V28.5244H17.9999V27.9911H17.4666V27.7244H17.1998V27.458H16.9331V27.1913H17.1998V26.9246H17.9999V26.6579H18.5329V26.3913H18.7996V26.1246H20.3998V26.6579H20.9332V26.9246H21.9999V25.0578H21.4665V24.7912H21.1998V24.5244H20.9332V23.991H19.333V24.5244H19.8664V25.0578H19.333V24.7912H19.0663V24.5244H18.7996V25.0578H18.2666V24.7912H17.9999V24.5244H18.5329V23.991H17.1998V24.5244H14.5333V25.0578H13.9999V26.6579H13.4666V27.458H13.9999V26.9246H14.2666V26.6579H16.1331V26.9246H16.3998V27.1913H16.6665V27.9911H16.3998V28.2577H16.1331V27.7244H15.5997V27.9911H15.333V28.2577H15.0664V30.1245H14.5333V30.658H13.9999V31.1913H12.9332V34.9246H13.9999V35.4577H14.7997V35.1913H15.0664V33.3245H15.5997V34.3912H15.8664V34.1245H16.1331V33.3245H16.6665V33.8579H17.1998V34.3912H16.1331V34.9246H17.1998V35.4577H15.0664V37.3244H14.5333V38.3913H13.9999V38.9246H13.4666V39.458H12.9332V39.991H12.3998V40.5244H11.8664V40.2577H11.5997V39.991H11.0663V39.458H10.533V38.9246H10.2663V38.6579H9.99997V38.3913H9.46653V37.8579H9.73329V37.5911H9.46653V37.3244H9.19985V35.4577H9.99997V35.1913H10.2663V34.9246H11.0663V31.1913H10.2663V30.9247H9.99997V30.658H9.46653V30.1245H9.19985V28.2577H8.93317V27.9911H8.3998V27.7244H8.13311V27.9911H7.86643V28.2577H7.59975V27.9911H7.33307V27.1913H7.59975V26.9246H8.13311V26.6579H9.73329V26.9246H9.99997V27.1913H10.2663V27.458H10.7996V27.1913H10.533V26.6579H10.2663V25.0578H9.73329V24.7912H9.46653V24.5244H7.06638V24.2577H6.7997V23.991H5.46658V24.5244H5.99995V25.0578H5.46658V24.7912H5.1999V24.5244H4.93322V25.0578H4.39985V24.5244H4.66653V23.991H3.33304V24.5244H2.79967V25.0578H2.26631V26.9246H3.33304V26.6579H3.59973V26.1246H5.46658V26.6579H5.99995V26.9246H6.7997V27.1913H7.06638V27.458H6.7997V27.7244H6.53332V27.9911H5.99995V28.5244H6.26663V28.7911H6.53332V29.0578H6.7997V28.7911H7.06638V28.5244H7.33307V28.7911H7.59975V29.0578H8.13311V30.1245H6.53332V30.658H7.06638V31.1913H7.59975V31.7243H6.26663V31.1913H5.99995V31.7243H5.46658V32.2577H4.93322V31.991H4.66653V31.7243H4.39985V31.458H4.13309V31.1913H3.86641V32.2577H3.33304V31.991H3.06636V31.7243H2.26631V31.458H2V31.1913H2.26631V30.9247H2V30.658H1.73324V31.1913H0.93327V30.658H0.399902V28.7911H0.666586V28.5244H0.93327V28.2577H1.19995V27.9911H1.46656V27.7244H1.73324V27.458H2.26631V27.1913H1.73324V26.9246H1.46656V26.6579H1.19995V26.3913H0.93327V24.5244H1.46656V23.991H2V23.7243H2.26631V23.458H3.06636V23.1914H3.33304V22.658H3.06636V22.3912H2.53299V21.3245H2V18.3913H2.26631V18.1246H3.33304V17.5912H3.06636V17.3246H3.33304V17.0578H3.59973V16.7911H4.13309V16.5244H4.39985V16.2577H5.99995V16.7911H6.53332V18.1246H5.99995V18.658H4.39985V18.3913H4.13309V18.1246H3.86641V21.3245H4.39985V21.8579H4.93322V22.3912H5.46658V22.9247H8.66648V23.458H9.73329V23.991H10.2663V24.5244H10.7996V26.6579H11.0663V26.1246H11.5997V25.8579H11.8664V25.5912H11.333V25.3245H11.0663V21.3245H9.19985V21.0578H8.93317V20.7911H8.13311V21.3245H7.33307V19.9911H7.59975V19.7247H8.13311V15.1914H7.59975V14.9247H7.33307V14.6579H7.06638V14.3913H6.7997V14.1246H6.26663V13.5912H5.99995V13.3245H5.73327V13.0579H5.1999V12.5245H4.66653V11.9911H4.39985V11.7244H4.13309V11.4581H3.59973V10.9247H3.33304V10.658H3.06636V10.3913H2.53299V9.85795H2V9.05783H2.26631V8.79114H4.13309V9.05783H4.39985V9.32451H4.66653V8.52446H4.39985V7.99109H3.86641V7.72441H3.59973V7.45773H3.33304V6.92466H2.79967V6.65798H2.53299V6.3913H3.06636V6.12461H3.33304V5.85793H3.59973V5.32456H4.13309V5.05788H4.39985V4.7912H4.93322V5.85793H5.46658V6.92466H5.99995V7.45773H6.26663V5.32456H5.99995V5.05788H5.73327V4.7912H5.1999V3.72431H5.73327V3.45801H5.99995V3.19132H6.26663V2.92464H6.53332V2.65796H7.06638V3.72431H7.33307V2.92464H7.59975V2.65796H7.86643V2.39127H8.13311V2.12459H8.3998V1.85791H8.66648V1.59115H9.19985V2.12459H9.73329V2.65796H10.2663V4.7912H10.533V4.52451H10.7996V4.25783H10.533V2.65796H10.7996V2.39127H10.533V2.12459H10.2663V1.59115H10.533V1.32446H10.7996V1.05778H11.0663V0.791098H11.333V0.524414H12.9332V1.05778H13.4666V1.59115H13.9999V2.12459H13.4666V4.7912H13.7332V4.52451H13.9999V2.65796H14.2666V2.39127H14.5333V2.12459H15.0664V1.59115H15.5997V2.12459H16.1331V2.65796H16.6665V3.72431H16.9331V2.92464H17.1998V2.65796H17.7333V3.19132H18.2666V3.72431H18.7996V4.7912H18.2666V5.32456H17.7333V7.45773H17.9999V6.92466H18.5329V6.65798H18.7996V6.3913H18.5329V5.85793H19.0663V4.7912H19.8664V5.32456H20.3998V5.85793H20.9332V6.3913H21.4665V6.92466H20.9332V7.45773H20.3998V7.72441H20.1331V7.99109H19.8664V8.25778H19.5997V8.52446H19.333V9.32451H19.8664V8.79114H21.9999V9.85795H21.4665V10.3913H20.9332V10.9247H20.3998V11.4581H19.8664V11.9911H19.333V12.5245H18.7996V13.0579H18.2666V13.5912H17.7333V14.1246H17.1998V14.6579H16.6665V15.1914H16.1331V19.7247H16.6665V21.3245H16.1331V21.0578H15.8664V20.7911H15.0664V21.3245H12.9332V25.5912H12.3998V26.1246H12.9332V26.6579H13.1999V24.5244H13.7332V24.2577H13.9999V23.991H14.2666V23.458H15.333V23.1914H15.5997V22.9247H18.5329V22.658H18.7996V22.3912H19.0663V22.1246H19.333V21.8579H19.5997V21.5912H19.8664V21.3245H20.1331V18.658H20.3998V18.3913H20.1331V18.1246H19.8664V17.8579H18.7996V18.1246H19.8664V18.658H17.9999V18.1246H17.4666V16.7911H17.9999V16.2577H19.8664V16.7911H20.3998V17.0578H20.6665V17.3246H20.9332V18.1246H21.9999V21.3245H21.4665V22.3912H20.9332V23.458H21.9999V23.991H22.533V24.5244H23.0663V26.6579H22.533V26.9246H22.2663V27.1913H21.9999V27.458H22.2663V27.7244H22.533V27.9911H23.0663V28.5244H23.5997ZM12.9332 36.7911V37.3244H12.3998V37.8579H12.6665V37.5911H13.1999V36.7911H12.9332ZM12.1331 38.3913H12.3998V37.8579H12.1331V38.3913ZM11.5997 36.7911H11.8664V36.2577H12.1331V36.5244H12.3998V35.991H11.5997V36.7911ZM12.6665 36.7911V36.5244H12.3998V36.7911H12.6665ZM20.6665 29.8578H20.9332V30.1245H19.333V29.5912H20.6665V29.8578ZM3.33304 29.5912H4.66653V30.1245H3.33304V29.5912ZM18.5329 28.7911H18.7996V29.0578H19.0663V29.5912H18.7996V29.0578H18.2666V28.5244H18.5329V28.7911ZM4.93322 29.0578H5.1999V29.5912H4.93322V29.0578ZM5.46658 28.5244H5.73327V29.0578H5.46658V28.5244ZM11.8664 26.1246H12.1331V26.6579H11.8664V26.1246ZM14.5333 16.2577H15.0664V19.7247H14.5333V16.2577ZM12.3998 16.2577H12.9332V19.7247H12.3998V16.2577ZM11.333 16.2577H11.8664V19.7247H11.333V16.2577ZM8.3998 33.3245V34.3912H8.13311V34.6579H7.86643V34.9246H6.7997V35.1913H7.06638V35.4577H9.19985V33.3245H8.3998ZM7.33307 33.3245V33.8579H6.7997V34.1245H7.06638V34.3912H8.13311V33.3245H7.33307ZM4.39985 17.8579H5.1999V18.1246H4.39985V17.8579ZM9.46653 16.5244V19.7247H9.19985V16.2577H9.73329V16.5244H9.46653ZM17.1998 10.9247V9.59127H16.9331V9.32451H16.6665V8.52446H16.1331V7.99109H15.5997V7.45773H13.4666V6.92466H10.7996V7.19104H10.533V7.45773H8.66648V7.72441H8.3998V7.99109H8.13311V8.25778H7.86643V8.52446H7.59975V9.32451H7.33307V9.59127H7.06638V10.9247H7.59975V11.4581H8.13311V11.9911H8.66648V12.5245H9.19985V13.0579H8.66648V12.5245H8.13311V12.2578H7.86643V11.9911H7.59975V11.7244H7.33307V11.4581H6.53332V9.32451H7.06638V8.79114H6.7997V8.52446H7.06638V8.25778H7.59975V7.72441H8.13311V7.45773H8.3998V7.19104H8.66648V6.92466H10.533V6.65798H10.7996V6.3913H13.4666V6.92466H15.5997V7.45773H16.1331V7.72441H16.3998V7.99109H16.6665V8.25778H16.9331V8.52446H17.1998V9.32451H17.4666V9.59127H17.7333V11.4581H16.6665V11.9911H16.1331V12.5245H15.5997V13.0579H15.0664V12.5245H15.5997V11.9911H16.1331V11.4581H16.6665V10.9247H17.1998ZM10.2663 11.7244H9.99997V11.4581H8.66648V10.9247H10.2663V11.4581H10.7996V11.9911H13.4666V11.4581H13.9999V10.9247H15.5997V11.4581H13.9999V12.5245H10.2663V11.7244ZM18.7996 9.32451H19.0663V10.3913H18.7996V9.32451ZM12.1331 11.1914V11.4581H11.8664V10.1246H11.5997V10.9247H11.333V10.3913H10.7996V10.1246H11.5997V9.85795H11.0663V9.59127H11.333V9.32451H10.7996V9.85795H10.2663V9.32451H10.7996V9.05783H11.0663V8.79114H11.333V8.52446H11.5997V8.25778H11.8664V7.99109H12.1331V8.25778H12.3998V8.52446H12.9332V9.05783H13.1999V9.32451H13.7332V9.59127H13.9999V9.85795H13.4666V10.1246H13.1999V10.3913H12.9332V10.9247H12.3998V11.1914H12.1331ZM12.9332 9.32451V9.85795H12.3998V10.3913H12.6665V10.1246H13.1999V9.32451H12.9332ZM12.1331 10.9247H12.3998V10.3913H12.1331V10.9247ZM11.5997 9.32451H11.8664V8.79114H12.1331V9.05783H12.3998V8.52446H11.5997V9.32451ZM12.6665 9.32451V9.05783H12.3998V9.32451H12.6665ZM4.93322 9.32451H5.1999V10.3913H4.93322V9.32451ZM8.13311 4.25783H8.3998V5.32456H8.13311V4.25783ZM15.8664 5.05788V5.32456H15.5997V4.25783H16.1331V3.72431H16.3998V4.25783H16.1331V5.05788H15.8664ZM7.59975 3.72431H7.86643V4.25783H7.59975V3.72431Z" fill="#C60F18"/>
</svg>
