<svg width="56" height="54" viewBox="0 0 56 54" fill="none" xmlns="http://www.w3.org/2000/svg" xmlns:xlink="http://www.w3.org/1999/xlink">
<g clip-path="url(#clip0_1598_20952)">
<path d="M40.2 12.0799H42.18C44.74 12.0799 46.64 11.7799 47.88 11.1799C46.12 13.7799 44.42 16.0399 42.78 17.9599H41.82C39.78 17.9599 37.8 17.6399 35.88 16.9999C33.16 19.2399 30.98 22.2199 29.34 25.9399C33.58 27.0199 38.3 27.6599 43.5 27.8599C44.7 30.8999 45.52 35.7799 45.96 42.4999H30.42C29.74 39.5399 28.7 36.8199 27.3 34.3399C25.94 31.8199 24.52 30.0999 23.04 29.1799C22.76 32.4599 22.62 35.0999 22.62 37.0999C22.62 39.0999 22.68 40.8999 22.8 42.4999H9.60001C8.84001 36.6199 8.46001 31.6599 8.46001 27.6199C8.46001 23.5399 8.76001 18.4999 9.36001 12.4999H26.04C24.84 17.4599 24.02 21.6199 23.58 24.9799C25.38 22.0199 27.26 19.5399 29.22 17.5399C31.22 15.4999 33.58 13.7799 36.3 12.3799C37.34 12.1799 38.64 12.0799 40.2 12.0799Z" fill="url(#pattern0)"/>
<path d="M47.88 11.1801L48.1284 11.3483L48.7542 10.4238L47.7493 10.9101L47.88 11.1801ZM42.78 17.9601V18.2601H42.9183L43.0081 18.1549L42.78 17.9601ZM35.88 17.0001L35.9749 16.7155L35.8174 16.663L35.6893 16.7685L35.88 17.0001ZM29.34 25.9401L29.0655 25.8191L28.9225 26.1433L29.266 26.2308L29.34 25.9401ZM43.5 27.8601L43.779 27.7499L43.7072 27.5678L43.5115 27.5603L43.5 27.8601ZM45.96 42.5001V42.8001H46.2803L46.2594 42.4805L45.96 42.5001ZM30.42 42.5001L30.1276 42.5673L30.1811 42.8001H30.42V42.5001ZM27.3 34.3401L27.0359 34.4826L27.0388 34.4876L27.3 34.3401ZM23.04 29.1801L23.1984 28.9253L22.7827 28.6669L22.7411 29.1546L23.04 29.1801ZM22.8 42.5001V42.8001H23.1233L23.0992 42.4777L22.8 42.5001ZM9.6 42.5001L9.30248 42.5386L9.33628 42.8001H9.6V42.5001ZM9.36 12.5001V12.2001H9.0885L9.06149 12.4702L9.36 12.5001ZM26.04 12.5001L26.3316 12.5706L26.4212 12.2001H26.04V12.5001ZM23.58 24.9801L23.2825 24.9411L23.8363 25.136L23.58 24.9801ZM36.3 12.3801L36.2433 12.0855L36.201 12.0936L36.1627 12.1134L36.3 12.3801ZM40.2 12.3801H42.18V11.7801H40.2V12.3801ZM42.18 12.3801C44.7529 12.3801 46.7084 12.0803 48.0107 11.4501L47.7493 10.9101C46.5716 11.4799 44.7272 11.7801 42.18 11.7801V12.3801ZM47.6316 11.0119C45.8764 13.6048 44.1831 15.8555 42.5519 17.7653L43.0081 18.1549C44.6569 16.2247 46.3636 13.9554 48.1284 11.3483L47.6316 11.0119ZM42.78 17.6601H41.82V18.2601H42.78V17.6601ZM41.82 17.6601C39.812 17.6601 37.864 17.3452 35.9749 16.7155L35.7851 17.2847C37.736 17.935 39.748 18.2601 41.82 18.2601V17.6601ZM35.6893 16.7685C32.9279 19.0426 30.7215 22.0628 29.0655 25.8191L29.6145 26.0611C31.2385 22.3774 33.3921 19.4376 36.0707 17.2317L35.6893 16.7685ZM29.266 26.2308C33.5298 27.3169 38.2712 27.9592 43.4885 28.1599L43.5115 27.5603C38.3288 27.361 33.6302 26.7233 29.4141 25.6494L29.266 26.2308ZM43.221 27.9702C44.4029 30.9644 45.221 35.8051 45.6606 42.5197L46.2594 42.4805C45.819 35.7551 44.9971 30.8358 43.779 27.7499L43.221 27.9702ZM45.96 42.2001H30.42V42.8001H45.96V42.2001ZM30.7124 42.4329C30.0264 39.4467 28.9763 36.6994 27.5612 34.1926L27.0388 34.4876C28.4237 36.9408 29.4536 39.6335 30.1276 42.5673L30.7124 42.4329ZM27.564 34.1976C26.1934 31.658 24.7427 29.8853 23.1984 28.9253L22.8816 29.4349C24.2973 30.3149 25.6865 31.9822 27.0359 34.4826L27.564 34.1976ZM22.7411 29.1546C22.4608 32.4384 22.32 35.0879 22.32 37.1001H22.92C22.92 35.1123 23.0592 32.4818 23.3389 29.2056L22.7411 29.1546ZM22.32 37.1001C22.32 39.1059 22.3802 40.9135 22.5008 42.5225L23.0992 42.4777C22.9798 40.8867 22.92 39.0943 22.92 37.1001H22.32ZM22.8 42.2001H9.6V42.8001H22.8V42.2001ZM9.89753 42.4616C9.13849 36.5891 8.76 31.6428 8.76 27.6201H8.16C8.16 31.6774 8.54151 36.6511 9.30248 42.5386L9.89753 42.4616ZM8.76 27.6201C8.76 23.5535 9.05908 18.5242 9.65851 12.53L9.06149 12.4702C8.46092 18.476 8.16 23.5266 8.16 27.6201H8.76ZM9.36 12.8001H26.04V12.2001H9.36V12.8001ZM25.7484 12.4296C24.547 17.3953 23.7244 21.5667 23.2825 24.9411L23.8775 25.0191C24.3156 21.6735 25.133 17.5249 26.3316 12.5706L25.7484 12.4296ZM23.8363 25.136C25.6271 22.1911 27.4936 19.7304 29.4343 17.7501L29.0058 17.3301C27.0265 19.3498 25.1329 21.8491 23.3237 24.8242L23.8363 25.136ZM29.4343 17.7501C31.4103 15.7346 33.7438 14.0332 36.4373 12.6468L36.1627 12.1134C33.4162 13.527 31.0298 15.2656 29.0058 17.3301L29.4343 17.7501ZM36.3567 12.6747C37.3715 12.4795 38.651 12.3801 40.2 12.3801V11.7801C38.629 11.7801 37.3085 11.8807 36.2433 12.0855L36.3567 12.6747Z" fill="#232323"/>
<path d="M29.5 1H26.5C12.1406 1 0.5 12.6406 0.5 27C0.5 41.3594 12.1406 53 26.5 53H29.5C43.8594 53 55.5 41.3594 55.5 27C55.5 12.6406 43.8594 1 29.5 1Z" stroke="url(#paint0_linear_1598_20952)"/>
</g>
<defs>
<pattern id="pattern0" patternContentUnits="objectBoundingBox" width="1" height="1">
<use xlink:href="#image0_1598_20952" transform="matrix(0.000291036 0 0 0.000366304 0 -0.0267452)"/>
</pattern>
<linearGradient id="paint0_linear_1598_20952" x1="28" y1="1.5" x2="54.3127" y2="8.89155" gradientUnits="userSpaceOnUse">
<stop/>
<stop offset="1" stop-opacity="0"/>
</linearGradient>
<clipPath id="clip0_1598_20952">
<rect width="56" height="53" fill="white" transform="translate(0 0.5)"/>
</clipPath>
<image id="image0_1598_20952" width="3436" height="2876" xlink:href=""/>
</defs>
</svg>
