<svg width="34" height="34" viewBox="0 0 34 34" fill="none" xmlns="http://www.w3.org/2000/svg">
<path d="M17 26.75C22.3848 26.75 26.75 22.3848 26.75 17C26.75 11.6152 22.3848 7.25002 17 7.25002C11.6152 7.25002 7.25002 11.6152 7.25002 17C7.25002 22.3848 11.6152 26.75 17 26.75Z" fill="black"/>
<path d="M27.71 27.71L27.515 27.515L27.71 27.71Z" fill="black"/>
<path d="M27.515 6.485L27.71 6.29M6.29 27.71L6.485 27.515M17 2.12V2M17 32V31.88M2.12 17H2M32 17H31.88M6.485 6.485L6.29 6.29M27.71 27.71L27.515 27.515M26.75 17C26.75 22.3848 22.3848 26.75 17 26.75C11.6152 26.75 7.25002 22.3848 7.25002 17C7.25002 11.6152 11.6152 7.25002 17 7.25002C22.3848 7.25002 26.75 11.6152 26.75 17Z" stroke="black" stroke-width="3" stroke-linecap="round" stroke-linejoin="round"/>
</svg>
