<svg width="38" height="38" viewBox="0 0 38 38" fill="none" xmlns="http://www.w3.org/2000/svg">
<path fill-rule="evenodd" clip-rule="evenodd" d="M19 38C8.50659 38 0 29.4934 0 19C0 8.50659 8.50659 0 19 0C29.4934 0 38 8.50659 38 19C38 29.4934 29.4934 38 19 38ZM30.2034 7.16454C29.6477 6.59166 28.73 6.65943 28.2063 7.26167C27.6827 7.8639 27.7527 8.77192 28.2983 9.35439C29.3559 10.4836 30.2229 11.7815 30.8618 13.1977C31.6992 15.054 32.1249 17.0696 32.1096 19.1061C32.0943 21.1425 31.6384 23.1515 30.7731 24.995C30.113 26.4015 29.2266 27.6862 28.1521 28.7993C27.5978 29.3735 27.5142 30.2804 28.0287 30.8904C28.5432 31.5005 29.4599 31.582 30.024 31.0176C31.4122 29.6287 32.5519 28.0071 33.3893 26.2229C34.4318 24.0018 34.9811 21.5813 34.9995 19.1278C35.018 16.6743 34.5051 14.2458 33.4961 12.0093C32.6856 10.2127 31.5705 8.57415 30.2034 7.16454Z" fill="white"/>
</svg>
