<svg width="174" height="56" viewBox="0 0 174 56" fill="none" xmlns="http://www.w3.org/2000/svg">
<g id="State=Default">
<g id="bmc-button/Default" clip-path="url(#clip0_3095_7405)">
<path id="Vector" d="M8 13.04C8 9.15192 11.1774 6 15.097 6H158.81C162.73 6 165.907 9.15192 165.907 13.04V42.96C165.907 46.8481 162.73 50 158.81 50H15.097C11.1774 50 8 46.8481 8 42.96V13.04Z" fill="#FFDD00"/>
<g id="Vector_2">
<path d="M39.7517 20.4704L39.7322 20.459L39.6866 20.4454C39.705 20.4605 39.7278 20.4693 39.7517 20.4704Z" fill="#0D0C23"/>
<path d="M39.7596 20.4671C39.7568 20.4668 39.7543 20.4662 39.7519 20.4654C39.7516 20.467 39.7514 20.4687 39.7517 20.4704C39.7545 20.47 39.7571 20.4689 39.7596 20.4671Z" fill="#0D0C23"/>
<path d="M39.7516 20.472H39.7568V20.4689L39.7516 20.472Z" fill="#0D0C23"/>
<path d="M40.0194 22.4785L40.0524 22.46L40.0647 22.4531L40.0758 22.4414C40.055 22.4503 40.0358 22.4629 40.0194 22.4785Z" fill="#0D0C23"/>
<path d="M39.8076 20.5145L39.7752 20.4842L39.7533 20.4725C39.7653 20.493 39.7845 20.5081 39.8076 20.5145Z" fill="#0D0C23"/>
<path d="M31.7373 40.0361C31.7118 40.047 31.6895 40.0642 31.6723 40.0861L31.6925 40.0732C31.7061 40.0608 31.7255 40.0458 31.7373 40.0361Z" fill="#0D0C23"/>
<path d="M36.4241 39.1216C36.4241 39.0928 36.41 39.098 36.4135 39.2003C36.4135 39.192 36.4169 39.1837 36.4184 39.1756C36.4203 39.1575 36.4218 39.1397 36.4241 39.1216Z" fill="#0D0C23"/>
<path d="M35.9398 40.0361C35.9143 40.047 35.892 40.0642 35.8749 40.0861L35.895 40.0732C35.9087 40.0608 35.928 40.0458 35.9398 40.0361Z" fill="#0D0C23"/>
<path d="M28.4356 40.2538C28.416 40.2371 28.3921 40.2259 28.3664 40.2218C28.3872 40.2319 28.4079 40.2417 28.4218 40.2492L28.4356 40.2538Z" fill="#0D0C23"/>
<path d="M27.692 39.5483C27.6891 39.5184 27.6804 39.4897 27.6664 39.4635C27.6763 39.4905 27.6846 39.5184 27.6913 39.5469L27.692 39.5483Z" fill="#0D0C23"/>
<path d="M32.6818 26.9283C31.6621 27.3613 30.5049 27.8523 29.0052 27.8523C28.3778 27.851 27.7535 27.7656 27.1492 27.5984L28.1864 38.1625C28.2231 38.6039 28.4259 39.0157 28.7545 39.3157C29.083 39.6159 29.5133 39.7824 29.96 39.7821C29.96 39.7821 31.4307 39.858 31.9214 39.858C32.4496 39.858 34.0334 39.7821 34.0334 39.7821C34.4799 39.7821 34.9101 39.6156 35.2386 39.3157C35.5671 39.0154 35.7698 38.6039 35.8065 38.1625L36.9175 26.4888C36.421 26.3206 35.92 26.2089 35.3551 26.2089C34.3782 26.2085 33.5911 26.5422 32.6818 26.9283Z" fill="white"/>
<path d="M23.9404 22.4214L23.957 22.4376L23.9678 22.4444C23.9595 22.4358 23.9503 22.428 23.9404 22.4214Z" fill="#0D0C23"/>
<path d="M41.716 21.4465L41.56 20.6649C41.4197 19.9637 41.1017 19.3011 40.376 19.0477C40.1435 18.9666 39.8794 18.9317 39.7011 18.7639C39.5228 18.5961 39.4701 18.3355 39.4289 18.0938C39.3527 17.6501 39.2808 17.2061 39.2025 16.7633C39.1349 16.3826 39.0813 15.9548 38.9053 15.6056C38.6763 15.1365 38.2008 14.8623 37.728 14.6808C37.4856 14.5911 37.2384 14.5152 36.9874 14.4535C35.8062 14.1444 34.5642 14.0307 33.349 13.9659C31.8904 13.8861 30.4279 13.9102 28.9728 14.0379C27.8897 14.1356 26.749 14.2539 25.7197 14.6255C25.3436 14.7615 24.956 14.9248 24.6699 15.2131C24.3189 15.5673 24.2044 16.1151 24.4606 16.5568C24.6428 16.8705 24.9514 17.0921 25.2786 17.2387C25.705 17.4276 26.1502 17.5714 26.6069 17.6676C27.8786 17.9464 29.1958 18.0559 30.4951 18.1025C31.9351 18.1601 33.3774 18.1134 34.8105 17.9627C35.165 17.924 35.5187 17.8777 35.8719 17.8237C36.2877 17.7604 36.5547 17.2209 36.4321 16.8451C36.2854 16.3958 35.8914 16.2215 35.4456 16.2893C35.38 16.2996 35.3147 16.309 35.249 16.3185L35.2016 16.3254C35.0506 16.3443 34.8997 16.362 34.7487 16.3784C34.4368 16.4117 34.1242 16.439 33.8107 16.4602C33.1088 16.5087 32.4049 16.5311 31.7015 16.5322C31.0103 16.5322 30.3186 16.5129 29.6289 16.4678C29.3142 16.4473 29.0003 16.4213 28.6871 16.3897C28.5447 16.375 28.4026 16.3594 28.2605 16.342L28.1253 16.325L28.0959 16.3208L27.9558 16.3007C27.6693 16.2579 27.3829 16.2087 27.0996 16.1492C27.071 16.1429 27.0454 16.1271 27.0271 16.1045C27.0087 16.0818 26.9987 16.0536 26.9987 16.0245C26.9987 15.9955 27.0087 15.9673 27.0271 15.9447C27.0454 15.922 27.071 15.9062 27.0996 15.8999H27.1049C27.3505 15.848 27.5979 15.8037 27.8462 15.765C27.9289 15.7522 28.0119 15.7395 28.0952 15.7272H28.0975C28.2529 15.7169 28.4091 15.6893 28.5638 15.6711C29.9095 15.5322 31.2632 15.4849 32.6154 15.5294C33.2719 15.5483 33.928 15.5866 34.5814 15.6525C34.7219 15.6669 34.8617 15.6821 35.0015 15.6991C35.055 15.7056 35.1088 15.7131 35.1627 15.7196L35.2711 15.7351C35.5874 15.7818 35.9019 15.8385 36.2148 15.9052C36.6785 16.0052 37.2737 16.0378 37.4801 16.5417C37.5457 16.7015 37.5755 16.8792 37.6118 17.047L37.6581 17.2611C37.6593 17.2649 37.6602 17.2689 37.6607 17.2728C37.77 17.7779 37.8793 18.283 37.9886 18.7882C37.9968 18.8255 37.997 18.864 37.9892 18.9014C37.9817 18.9388 37.9663 18.9742 37.9443 19.0055C37.9222 19.0367 37.8938 19.0631 37.8611 19.083C37.8283 19.1029 37.7915 19.1159 37.7535 19.1212H37.7503L37.6836 19.1303L37.6176 19.139C37.4082 19.166 37.1986 19.1912 36.9889 19.2147C36.5757 19.2614 36.1619 19.3019 35.7474 19.336C34.9237 19.4039 34.0984 19.4485 33.2715 19.4697C32.8501 19.4808 32.4289 19.486 32.0078 19.4852C30.3316 19.4839 28.6569 19.3873 26.9919 19.1958C26.8116 19.1746 26.6314 19.1518 26.4511 19.1287C26.5909 19.1466 26.3495 19.1151 26.3006 19.1083C26.1861 19.0924 26.0715 19.0758 25.9569 19.0586C25.5723 19.0014 25.1901 18.931 24.8062 18.8692C24.3422 18.7935 23.8985 18.8314 23.4788 19.0586C23.1342 19.2457 22.8554 19.5325 22.6794 19.8807C22.4984 20.252 22.4446 20.6562 22.3636 21.0551C22.2826 21.4541 22.1566 21.8833 22.2043 22.2928C22.3071 23.1766 22.93 23.8949 23.8259 24.0555C24.6687 24.207 25.5162 24.3298 26.3659 24.4344C29.7039 24.8399 33.0761 24.8884 36.4245 24.5791C36.6972 24.5538 36.9695 24.5263 37.2412 24.4965C37.3262 24.4872 37.4123 24.4969 37.4929 24.5249C37.5735 24.5529 37.6468 24.5984 37.7074 24.6581C37.768 24.7178 37.8147 24.7902 37.8434 24.87C37.8721 24.9498 37.8825 25.035 37.8738 25.1193L37.7889 25.9368C37.6181 27.5888 37.4474 29.2407 37.2766 30.8924C37.0983 32.627 36.9189 34.3614 36.7384 36.0956C36.6875 36.5842 36.6366 37.0725 36.5856 37.5608C36.5367 38.0414 36.5299 38.5375 36.4378 39.0126C36.2927 39.7594 35.7829 40.2184 35.0389 40.386C34.3574 40.5399 33.6611 40.6207 32.9621 40.627C32.1873 40.6311 31.4128 40.5971 30.6379 40.6012C29.8107 40.6058 28.7975 40.5301 28.1589 39.9193C27.5979 39.383 27.5204 38.5429 27.444 37.8168C27.3422 36.8554 27.2412 35.894 27.1412 34.9326L26.2166 26.1293C26.2105 26.0721 26.2044 26.0156 26.1986 25.958C26.1551 25.5455 25.8607 25.1417 25.3967 25.1625C24.9995 25.1799 24.5481 25.5148 24.5947 25.958L25.4207 33.8258C25.5793 35.3324 25.7376 36.839 25.8954 38.3459C25.926 38.6347 25.9546 38.9243 25.9867 39.2127C26.1612 40.7904 27.3757 41.6405 28.8796 41.8797C29.758 42.0201 30.6578 42.0488 31.5491 42.0632C32.6917 42.0813 33.8459 42.1251 34.9698 41.9197C36.6353 41.6166 37.8848 40.5134 38.0631 38.802C38.1142 38.3083 38.1652 37.8139 38.2159 37.3198C38.3852 35.6852 38.5542 34.0505 38.7233 32.4157L39.5286 24.6261C39.5411 24.5047 39.593 24.3905 39.6759 24.3005C39.7591 24.2106 39.8693 24.1495 39.9899 24.1264C40.4662 24.0343 40.9213 23.8771 41.2602 23.5176C41.7995 22.9451 41.9067 22.1988 41.716 21.4465ZM23.8014 21.9746C23.8087 21.9712 23.7953 22.0329 23.7896 22.0617C23.7885 22.0181 23.7908 21.9795 23.8014 21.9746ZM23.8477 22.3292C23.8515 22.3265 23.8629 22.3417 23.8748 22.3599C23.8568 22.3432 23.8457 22.3307 23.8477 22.3292ZM23.8931 22.3886C23.9095 22.4163 23.9183 22.4337 23.8931 22.3886V22.3886ZM23.9844 22.4621H23.9867C23.9867 22.4648 23.9909 22.4674 23.9924 22.4701C23.9899 22.4672 23.9874 22.4645 23.9844 22.4621ZM39.9678 22.3523C39.7968 22.5136 39.5388 22.5887 39.2842 22.6262C36.4275 23.0467 33.5293 23.2596 30.6413 23.1656C28.5745 23.0955 26.5294 22.8679 24.4831 22.5811C24.2826 22.553 24.0654 22.5167 23.9275 22.3701C23.6678 22.0935 23.7953 21.5366 23.8629 21.2025C23.9248 20.8964 24.0432 20.4884 24.4102 20.4448C24.9831 20.3782 25.6483 20.6179 26.2151 20.7032C26.8974 20.8065 27.5823 20.8892 28.2697 20.9513C31.2035 21.2165 34.1865 21.1752 37.1073 20.7873C37.6396 20.7163 38.1701 20.6339 38.6986 20.5399C39.1697 20.4562 39.6916 20.299 39.9762 20.7828C40.1714 21.1123 40.1972 21.5533 40.167 21.9257C40.1577 22.0879 40.087 22.2406 39.9678 22.3523Z" fill="#0D0C23"/>
</g>
<g id="Vector_3">
<path fill-rule="evenodd" clip-rule="evenodd" d="M57.2948 30.2259C57.1281 30.5417 56.8988 30.8167 56.6069 31.0501C56.3149 31.2836 55.9746 31.4738 55.5852 31.6202C55.1962 31.767 54.8045 31.8654 54.4108 31.9156C54.0168 31.966 53.6344 31.9616 53.2642 31.9018C52.8934 31.8424 52.578 31.7211 52.3188 31.5377L52.6111 28.5292C52.8795 28.4377 53.2176 28.3437 53.6255 28.2475C54.0331 28.1515 54.4523 28.0826 54.8834 28.0415C55.3145 28.0002 55.7218 28.0051 56.1065 28.0553C56.4909 28.1056 56.7944 28.2269 57.0168 28.4194C57.1374 28.5292 57.2395 28.6482 57.3227 28.7765C57.4062 28.9048 57.4569 29.0376 57.4757 29.1749C57.5218 29.5596 57.4618 29.9099 57.2948 30.2259ZM53.0555 23.8171C53.25 23.698 53.4843 23.5926 53.7574 23.5009C54.0308 23.4096 54.3111 23.3453 54.5984 23.3087C54.8854 23.2722 55.1657 23.2674 55.4394 23.2949C55.7125 23.3224 55.9537 23.3979 56.1622 23.5215C56.3706 23.6452 56.5257 23.8239 56.6277 24.0573C56.7295 24.291 56.7573 24.5864 56.711 24.9435C56.6741 25.2274 56.5602 25.4679 56.3706 25.6647C56.1807 25.8618 55.9488 26.0265 55.6757 26.1594C55.4023 26.2923 55.1127 26.3976 54.8071 26.4752C54.501 26.5532 54.2067 26.6106 53.9244 26.647C53.6417 26.6838 53.3961 26.7068 53.1877 26.7157C52.9793 26.7249 52.8424 26.7294 52.7775 26.7294L53.0555 23.8171ZM58.796 28.2819C58.6478 27.9615 58.4487 27.6798 58.1985 27.4369C57.9483 27.1943 57.6514 27.0181 57.3087 26.9081C57.4569 26.7891 57.603 26.6014 57.7468 26.3448C57.8903 26.0886 58.0129 25.809 58.115 25.5068C58.2167 25.2044 58.2866 24.9001 58.3234 24.5932C58.3602 24.2864 58.3463 24.0231 58.282 23.8031C58.124 23.2538 57.8764 22.8233 57.5381 22.5118C57.1997 22.2005 56.806 21.9853 56.3567 21.8661C55.907 21.7474 55.4116 21.722 54.8695 21.7906C54.3273 21.8593 53.7736 21.9944 53.2086 22.1958C53.2086 22.1502 53.2132 22.1021 53.2225 22.0517C53.2315 22.0015 53.2361 21.9487 53.2361 21.8936C53.2361 21.7563 53.1668 21.6374 53.0277 21.5365C52.8888 21.4358 52.7291 21.3763 52.5485 21.3578C52.3675 21.3397 52.1916 21.3784 52.0199 21.4746C51.8486 21.5708 51.7303 21.7474 51.6657 22.0034C51.5915 22.8278 51.5172 23.6843 51.4433 24.5725C51.3691 25.461 51.2902 26.3586 51.207 27.2654C51.1236 28.172 51.0401 29.0719 50.9569 29.9648C50.8734 30.8579 50.7899 31.7164 50.7067 32.5406C50.7345 32.7879 50.8038 32.9803 50.9151 33.1177C51.0261 33.2552 51.156 33.3376 51.3042 33.365C51.4523 33.3925 51.6077 33.3671 51.7698 33.2894C51.9318 33.2118 52.0733 33.0764 52.1939 32.8841C52.5644 33.0856 52.9816 33.2162 53.4448 33.2758C53.9081 33.3352 54.3781 33.3352 54.8558 33.2758C55.3327 33.2162 55.803 33.1041 56.2662 32.939C56.7295 32.7743 57.1513 32.5682 57.5311 32.321C57.9112 32.0737 58.2307 31.7919 58.4904 31.4761C58.7496 31.1599 58.9212 30.8188 59.0044 30.4526C59.0879 30.077 59.1111 29.7016 59.074 29.326C59.0369 28.9506 58.9441 28.6027 58.796 28.2819Z" fill="#0D0C23"/>
<path fill-rule="evenodd" clip-rule="evenodd" d="M72.3564 35.5353C72.3057 35.8376 72.2335 36.1559 72.141 36.4904C72.0483 36.8242 71.9395 37.1291 71.8146 37.404C71.6894 37.6787 71.5505 37.9004 71.3977 38.0701C71.2446 38.2394 71.08 38.3105 70.904 38.2831C70.7651 38.2645 70.677 38.1776 70.6402 38.022C70.6028 37.8662 70.6028 37.6738 70.6402 37.4451C70.677 37.2159 70.7486 36.9571 70.8553 36.6687C70.962 36.3802 71.0919 36.0938 71.2446 35.8102C71.3977 35.5261 71.5714 35.2538 71.7659 34.9926C71.9604 34.7319 72.1642 34.5142 72.3773 34.3402C72.4237 34.3951 72.4446 34.5325 72.4399 34.7524C72.435 34.9722 72.4075 35.2333 72.3564 35.5353ZM77.0686 29.5731C76.9434 29.4357 76.7906 29.358 76.6097 29.3395C76.4291 29.3212 76.2458 29.422 76.0609 29.6418C75.9403 29.8615 75.7872 30.0722 75.602 30.2737C75.4167 30.4754 75.2245 30.6584 75.0253 30.8233C74.8259 30.988 74.636 31.1302 74.4554 31.249C74.2748 31.3682 74.1333 31.4552 74.0315 31.5101C73.9944 31.2172 73.9732 30.9012 73.9689 30.5622C73.964 30.2233 73.9712 29.88 73.9898 29.5319C74.0173 29.0373 74.0753 28.5383 74.1634 28.0344C74.2516 27.5308 74.3788 27.0361 74.5458 26.5505C74.5458 26.2943 74.4852 26.0859 74.3649 25.9255C74.2443 25.7654 74.0985 25.6645 73.9272 25.6233C73.7555 25.5822 73.5798 25.605 73.3989 25.692C73.2183 25.7791 73.0632 25.9372 72.9333 26.1659C72.8223 26.4683 72.6948 26.8071 72.5512 27.1825C72.4075 27.5581 72.2454 27.9405 72.0648 28.3297C71.8839 28.7192 71.6824 29.0969 71.46 29.4631C71.2377 29.8296 70.9944 30.1549 70.7303 30.4386C70.4662 30.7225 70.1789 30.9447 69.8687 31.1049C69.5579 31.2652 69.2225 31.3362 68.861 31.3179C68.694 31.2721 68.5734 31.1485 68.4995 30.9468C68.4253 30.7455 68.3812 30.4935 68.3676 30.1913C68.3537 29.889 68.3676 29.557 68.409 29.1952C68.4508 28.8336 68.5065 28.474 68.576 28.1169C68.6453 27.7596 68.7219 27.4208 68.8051 27.1002C68.8885 26.7797 68.9671 26.5094 69.0413 26.2896C69.1527 26.0242 69.1527 25.8018 69.0413 25.6233C68.9303 25.4447 68.7775 25.3258 68.583 25.266C68.3885 25.2066 68.1844 25.209 67.9713 25.273C67.7582 25.3371 67.6051 25.479 67.5126 25.6988C67.3549 26.0746 67.2111 26.4956 67.0816 26.9627C66.952 27.4298 66.8476 27.9131 66.769 28.4121C66.6902 28.9115 66.6458 29.4061 66.6368 29.896C66.6363 29.9279 66.6377 29.9582 66.6377 29.99C66.4356 30.5224 66.2431 30.9249 66.0602 31.1941C65.8239 31.5423 65.5572 31.6935 65.2609 31.6475C65.1308 31.5926 65.0455 31.4644 65.0038 31.2628C64.9617 31.0615 64.9481 30.8142 64.9617 30.5209C64.9759 30.228 65.0107 29.896 65.0661 29.525C65.1221 29.1541 65.1911 28.7694 65.2746 28.371C65.358 27.9724 65.4462 27.5721 65.5387 27.1689C65.6314 26.766 65.7146 26.3858 65.7891 26.0285C65.7799 25.708 65.6848 25.4632 65.5039 25.2936C65.3235 25.1243 65.0707 25.0579 64.7466 25.0944C64.5243 25.186 64.3596 25.3052 64.2532 25.4517C64.1465 25.598 64.0607 25.7859 63.9961 26.0148C63.9587 26.134 63.9033 26.3721 63.8291 26.7294C63.7549 27.0863 63.6601 27.4964 63.5441 27.9588C63.4284 28.4215 63.2916 28.9045 63.1342 29.4082C62.9767 29.9119 62.8005 30.3678 62.6062 30.7751C62.4114 31.1826 62.1983 31.5101 61.9667 31.7574C61.7351 32.0046 61.4849 32.1055 61.2161 32.0597C61.0677 32.0321 60.9729 31.881 60.9311 31.6063C60.8894 31.3315 60.8827 30.9928 60.9103 30.5897C60.9381 30.1867 60.9938 29.7447 61.077 29.264C61.1605 28.7832 61.246 28.3276 61.3341 27.8969C61.4223 27.4666 61.5034 27.0863 61.5776 26.7567C61.6516 26.427 61.7026 26.2072 61.7304 26.0974C61.7304 25.8318 61.6698 25.619 61.5498 25.4584C61.4292 25.2984 61.2834 25.1975 61.1118 25.1562C60.9401 25.1151 60.7642 25.1379 60.5838 25.2249C60.4029 25.312 60.2478 25.4701 60.118 25.6988C60.0716 25.9461 60.0113 26.2325 59.9373 26.5575C59.8631 26.8826 59.7915 27.2169 59.7219 27.5604C59.6524 27.9039 59.5874 28.2405 59.5274 28.5702C59.4671 28.9 59.423 29.1884 59.3952 29.4357C59.3767 29.628 59.3558 29.864 59.3329 30.1432C59.3094 30.4227 59.2978 30.718 59.2978 31.0292C59.2978 31.3409 59.321 31.6499 59.3677 31.9566C59.4138 32.2636 59.4973 32.5452 59.6176 32.8014C59.7379 33.058 59.9072 33.2685 60.1252 33.4334C60.3426 33.5983 60.6183 33.6898 60.952 33.7083C61.2947 33.7264 61.5936 33.7015 61.8487 33.6326C62.1032 33.5639 62.3349 33.4562 62.5436 33.3097C62.7521 33.1634 62.942 32.9893 63.1136 32.7877C63.2846 32.5864 63.4539 32.3666 63.6206 32.1283C63.7783 32.4766 63.9821 32.7465 64.2323 32.9389C64.4825 33.1312 64.7466 33.2459 65.0247 33.2823C65.3024 33.3187 65.5853 33.2802 65.8726 33.1655C66.1596 33.0512 66.4191 32.8565 66.6507 32.5816C66.8035 32.4131 66.9473 32.2216 67.0824 32.0098C67.1398 32.109 67.2007 32.2046 67.2694 32.293C67.4964 32.5864 67.8046 32.7877 68.1939 32.8976C68.6108 33.0076 69.0181 33.0261 69.4168 32.9527C69.8151 32.8795 70.1952 32.7465 70.5564 32.5543C70.9179 32.3619 71.2536 32.1308 71.5644 31.8604C71.8746 31.5903 72.1457 31.3088 72.3773 31.0155C72.368 31.2262 72.3634 31.4256 72.3634 31.6131C72.3634 31.801 72.3588 32.0046 72.3498 32.2245C71.8862 32.5452 71.4484 32.9299 71.0362 33.3785C70.6236 33.8271 70.2621 34.3057 69.9519 34.8141C69.6414 35.3222 69.3982 35.8376 69.2225 36.3595C69.0463 36.8818 68.9604 37.3695 68.9651 37.823C68.9697 38.2762 69.0784 38.6722 69.2918 39.011C69.5046 39.3501 69.8522 39.5925 70.334 39.7392C70.8347 39.895 71.2745 39.8994 71.6549 39.753C72.0346 39.6063 72.3657 39.3636 72.6484 39.0248C72.931 38.6861 73.1627 38.2762 73.3436 37.7954C73.5242 37.3146 73.6677 36.813 73.7744 36.2911C73.8808 35.7691 73.948 35.2558 73.9759 34.7524C74.0037 34.2486 74.0037 33.7996 73.9759 33.4059C74.7728 33.0763 75.426 32.6595 75.9356 32.1557C76.4453 31.6524 76.8668 31.1209 77.2005 30.5622C77.3023 30.4248 77.3371 30.2599 77.3049 30.0677C77.2721 29.8753 77.1935 29.7104 77.0686 29.5731Z" fill="#0D0C23"/>
<path fill-rule="evenodd" clip-rule="evenodd" d="M94.6025 28.6942C94.6304 28.4836 94.6721 28.2614 94.7275 28.0279C94.7831 27.7943 94.8527 27.5676 94.9362 27.3478C95.0194 27.128 95.1168 26.9381 95.2282 26.7777C95.3392 26.6175 95.4575 26.503 95.5824 26.4342C95.7077 26.3657 95.8346 26.3725 95.9648 26.4547C96.1037 26.5374 96.1892 26.7113 96.222 26.9767C96.2541 27.2427 96.222 27.5264 96.1245 27.8287C96.0271 28.1311 95.8535 28.4148 95.6033 28.6804C95.3531 28.9462 95.0148 29.12 94.5886 29.2024C94.5701 29.0745 94.5747 28.9049 94.6025 28.6942ZM99.4185 29.2573C99.2657 29.2118 99.1199 29.2071 98.9807 29.2437C98.8419 29.2803 98.7537 29.3765 98.7169 29.5324C98.6424 29.8253 98.5241 30.1253 98.3621 30.432C98.2 30.739 98.0008 31.0296 97.7648 31.3045C97.5286 31.5792 97.2619 31.822 96.9656 32.0325C96.6687 32.2432 96.3585 32.3943 96.0341 32.4858C95.7097 32.5868 95.4409 32.5981 95.2282 32.5202C95.0148 32.4426 94.8458 32.3096 94.7208 32.1219C94.5956 31.9342 94.5051 31.7075 94.4497 31.4419C94.3941 31.1762 94.3616 30.9016 94.3523 30.6175C94.8806 30.6542 95.3508 30.5605 95.7633 30.3358C96.1753 30.1117 96.5252 29.8138 96.8125 29.4429C97.0995 29.0721 97.3175 28.6553 97.4657 28.1927C97.6138 27.7304 97.6973 27.2701 97.7159 26.812C97.7251 26.3815 97.6605 26.0176 97.5213 25.7199C97.3825 25.4224 97.1946 25.1908 96.9583 25.0261C96.7223 24.8612 96.451 24.765 96.1454 24.7377C95.8399 24.7101 95.5291 24.7514 95.214 24.8612C94.8339 24.9895 94.5121 25.1978 94.248 25.4864C93.9839 25.7748 93.7638 26.1093 93.5878 26.4893C93.4119 26.8694 93.2727 27.2791 93.171 27.7187C93.0689 28.1584 92.9947 28.5912 92.9486 29.0172C92.9069 29.3993 92.8845 29.7648 92.8767 30.1176C92.8567 30.1624 92.8376 30.2054 92.8164 30.2534C92.6726 30.5788 92.5056 30.897 92.316 31.2083C92.1261 31.5198 91.9151 31.7808 91.6837 31.9914C91.4521 32.2021 91.2112 32.2753 90.961 32.2112C90.8126 32.1747 90.7317 32.005 90.7178 31.7029C90.7038 31.4005 90.7198 31.0251 90.7662 30.5763C90.8126 30.1277 90.8659 29.642 90.9262 29.12C90.9862 28.598 91.0164 28.099 91.0164 27.6226C91.0164 27.2104 90.9375 26.8145 90.7801 26.4342C90.6224 26.0544 90.407 25.7382 90.1339 25.4864C89.8605 25.2344 89.5431 25.0672 89.1818 24.985C88.8203 24.9023 88.4313 24.9574 88.0144 25.1497C87.5972 25.3421 87.2658 25.6122 87.0206 25.9603C86.7747 26.3085 86.55 26.6747 86.3462 27.0594C86.272 26.7662 86.1633 26.494 86.0195 26.2419C85.876 25.9901 85.7 25.7703 85.4916 25.5824C85.2829 25.3949 85.0486 25.2483 84.7897 25.1429C84.5303 25.0378 84.2566 24.985 83.9693 24.985C83.6915 24.985 83.4344 25.0378 83.1981 25.1429C82.9618 25.2483 82.7464 25.3832 82.5516 25.5481C82.3571 25.7131 82.1811 25.8984 82.0234 26.1046C81.866 26.3106 81.7268 26.5145 81.6065 26.7158C81.5877 26.4777 81.5671 26.2695 81.5442 26.0906C81.5207 25.9122 81.479 25.7611 81.419 25.6375C81.3587 25.5137 81.2731 25.42 81.1618 25.3558C81.0505 25.2919 80.8931 25.2596 80.6893 25.2596C80.5872 25.2596 80.4852 25.2802 80.3834 25.3213C80.2814 25.3627 80.1909 25.42 80.1123 25.4932C80.0335 25.5667 79.9735 25.6558 79.9317 25.7611C79.89 25.8664 79.8787 25.9878 79.8969 26.1251C79.9062 26.2261 79.9317 26.3472 79.9735 26.4893C80.0149 26.6313 80.0544 26.8169 80.0915 27.0456C80.1286 27.2746 80.1587 27.5517 80.1819 27.8768C80.2051 28.202 80.2118 28.6004 80.2028 29.0721C80.1932 29.5439 80.1587 30.0955 80.0984 30.7274C80.0381 31.3594 79.943 32.0921 79.8134 32.9254C79.7949 33.1178 79.8691 33.2736 80.0361 33.3927C80.2028 33.5115 80.3927 33.5802 80.6058 33.5987C80.8188 33.617 81.0206 33.5802 81.2105 33.4889C81.4004 33.397 81.5094 33.2369 81.5369 33.008C81.5648 32.5775 81.6181 32.1197 81.697 31.6341C81.7755 31.1489 81.8729 30.668 81.9889 30.1917C82.1046 29.7155 82.2365 29.2622 82.3849 28.8315C82.5331 28.401 82.6977 28.0211 82.8783 27.6913C83.0593 27.3616 83.2468 27.0984 83.4414 26.9014C83.6359 26.7045 83.8397 26.606 84.0531 26.606C84.3122 26.606 84.5137 26.7226 84.6575 26.9562C84.801 27.1899 84.9028 27.49 84.9634 27.856C85.0234 28.2226 85.0512 28.6234 85.0469 29.0583C85.0419 29.4933 85.0234 29.9123 84.9912 30.3152C84.9587 30.7184 84.9216 31.0778 84.8799 31.3938C84.8381 31.7098 84.808 31.9274 84.7897 32.0463C84.7897 32.257 84.8706 32.424 85.0327 32.5477C85.1947 32.6713 85.3753 32.7447 85.5748 32.7675C85.7743 32.7905 85.9615 32.7537 86.1378 32.6575C86.3138 32.5613 86.4158 32.3991 86.4436 32.1699C86.5361 31.5105 86.6637 30.8489 86.8257 30.1849C86.9878 29.5209 87.1733 28.9256 87.3818 28.3989C87.5902 27.8722 87.8219 27.4418 88.0767 27.1075C88.3315 26.7734 88.6026 26.606 88.8899 26.606C89.038 26.606 89.1517 26.7069 89.2302 26.9082C89.3091 27.1097 89.3485 27.3844 89.3485 27.7325C89.3485 27.989 89.3276 28.2524 89.2862 28.5225C89.2442 28.7927 89.1957 29.0721 89.1401 29.3605C89.0844 29.6491 89.0357 29.9444 88.994 30.2466C88.9525 30.549 88.9316 30.8648 88.9316 31.1945C88.9316 31.4235 88.9548 31.6892 89.0012 31.9914C89.0473 32.2934 89.1351 32.58 89.265 32.8499C89.3949 33.1203 89.5732 33.3491 89.8005 33.5368C90.0275 33.7245 90.3168 33.8185 90.6688 33.8185C91.1973 33.8185 91.6649 33.7062 92.0728 33.4819C92.4804 33.2576 92.8303 32.9646 93.1223 32.6028C93.1373 32.5838 93.1513 32.5636 93.166 32.5448C93.1884 32.5983 93.2081 32.6549 93.2333 32.7058C93.4325 33.1087 93.7035 33.42 94.0465 33.64C94.3892 33.8598 94.7924 33.9811 95.256 34.0041C95.719 34.0267 96.224 33.942 96.771 33.7498C97.1784 33.6032 97.5329 33.42 97.8341 33.2003C98.1351 32.9805 98.4061 32.7126 98.647 32.3966C98.8882 32.0806 99.108 31.7165 99.3074 31.3045C99.5069 30.8922 99.7081 30.4207 99.9119 29.8893C99.949 29.7431 99.9142 29.6125 99.8078 29.4978C99.7011 29.3835 99.5716 29.3033 99.4185 29.2573Z" fill="#0D0C23"/>
<path fill-rule="evenodd" clip-rule="evenodd" d="M106.973 27.7249C106.926 27.9953 106.864 28.2931 106.785 28.618C106.706 28.9432 106.607 29.2798 106.486 29.6278C106.366 29.9759 106.217 30.2896 106.041 30.5688C105.865 30.8484 105.664 31.0702 105.437 31.2351C105.21 31.4 104.948 31.4687 104.652 31.4411C104.503 31.423 104.39 31.3223 104.311 31.1389C104.232 30.9559 104.191 30.7222 104.186 30.4383C104.181 30.1545 104.207 29.8431 104.262 29.5041C104.318 29.1654 104.403 28.8332 104.52 28.508C104.635 28.1831 104.777 27.883 104.943 27.6081C105.11 27.3335 105.302 27.1205 105.52 26.9694C105.738 26.8183 105.977 26.7475 106.236 26.7564C106.495 26.7656 106.773 26.8937 107.07 27.1411C107.051 27.2603 107.019 27.455 106.973 27.7249ZM111.914 28.7759C111.77 28.7027 111.622 28.6868 111.469 28.728C111.316 28.7691 111.207 28.9089 111.143 29.147C111.106 29.4035 111.022 29.7056 110.892 30.0536C110.763 30.4017 110.603 30.7316 110.413 31.0427C110.223 31.3542 110.005 31.613 109.76 31.819C109.514 32.0252 109.252 32.1191 108.974 32.1005C108.743 32.0823 108.58 31.9656 108.488 31.7503C108.395 31.5351 108.347 31.2651 108.342 30.9397C108.337 30.6148 108.37 30.2485 108.439 29.8408C108.509 29.4333 108.592 29.0281 108.689 28.6248C108.787 28.222 108.886 27.8349 108.988 27.464C109.09 27.0931 109.173 26.7794 109.239 26.523C109.312 26.294 109.289 26.0995 109.169 25.939C109.048 25.779 108.898 25.6643 108.717 25.5957C108.536 25.527 108.353 25.5087 108.168 25.5407C107.983 25.5728 107.862 25.6713 107.807 25.836C107.26 25.3689 106.734 25.117 106.229 25.0804C105.724 25.0438 105.258 25.1538 104.832 25.4102C104.406 25.6666 104.028 26.0375 103.7 26.523C103.371 27.0086 103.104 27.5374 102.9 28.1098C102.696 28.6821 102.569 29.2662 102.518 29.8614C102.467 30.4567 102.506 30.9995 102.636 31.4894C102.766 31.9793 102.995 32.3802 103.324 32.6913C103.653 33.0027 104.1 33.1586 104.666 33.1586C104.916 33.1586 105.157 33.1082 105.388 33.0075C105.62 32.9066 105.833 32.7875 106.028 32.6502C106.222 32.5128 106.393 32.3685 106.542 32.2174C106.69 32.0663 106.806 31.9405 106.889 31.8396C106.954 32.1693 107.061 32.4489 107.209 32.6777C107.357 32.9066 107.526 33.0946 107.716 33.2408C107.906 33.3872 108.106 33.4949 108.314 33.5638C108.522 33.6325 108.724 33.6668 108.918 33.6668C109.354 33.6668 109.762 33.5202 110.142 33.2271C110.522 32.9343 110.862 32.5745 111.164 32.1487C111.464 31.7228 111.713 31.2742 111.907 30.8023C112.102 30.3307 112.231 29.9117 112.296 29.5452C112.361 29.4079 112.349 29.2637 112.261 29.1126C112.173 28.9615 112.058 28.8494 111.914 28.7759Z" fill="#0D0C23"/>
<path fill-rule="evenodd" clip-rule="evenodd" d="M136.933 36.3604C136.855 36.6715 136.732 36.9353 136.565 37.1504C136.398 37.3655 136.19 37.4776 135.939 37.4871C135.782 37.496 135.661 37.4135 135.578 37.2398C135.495 37.0655 135.437 36.8412 135.404 36.5666C135.372 36.2916 135.358 35.9848 135.362 35.646C135.367 35.3073 135.381 34.9728 135.404 34.6431C135.427 34.3135 135.455 34.0064 135.488 33.7227C135.52 33.4386 135.545 33.2192 135.564 33.0634C135.879 33.0999 136.141 33.2349 136.349 33.4686C136.558 33.7021 136.718 33.9791 136.829 34.2998C136.94 34.6203 137.005 34.9662 137.024 35.3369C137.042 35.7079 137.012 36.0489 136.933 36.3604ZM131.902 36.3604C131.823 36.6715 131.7 36.9353 131.533 37.1504C131.367 37.3655 131.158 37.4776 130.908 37.4871C130.75 37.496 130.63 37.4135 130.547 37.2398C130.463 37.0655 130.405 36.8412 130.373 36.5666C130.34 36.2916 130.326 35.9848 130.331 35.646C130.335 35.3073 130.349 34.9728 130.373 34.6431C130.396 34.3135 130.424 34.0064 130.456 33.7227C130.489 33.4386 130.514 33.2192 130.533 33.0634C130.847 33.0999 131.11 33.2349 131.318 33.4686C131.526 33.7021 131.686 33.9791 131.797 34.2998C131.909 34.6203 131.973 34.9662 131.992 35.3369C132.01 35.7079 131.98 36.0489 131.902 36.3604ZM126.738 28.5573C126.729 28.7769 126.708 28.9716 126.675 29.141C126.643 29.3107 126.599 29.4181 126.543 29.4639C126.441 29.4089 126.316 29.2672 126.168 29.038C126.02 28.8091 125.904 28.5501 125.82 28.2617C125.737 27.9732 125.711 27.6895 125.744 27.4099C125.776 27.1307 125.922 26.9134 126.182 26.7574C126.284 26.7025 126.372 26.7231 126.446 26.8193C126.52 26.9155 126.58 27.0551 126.627 27.2383C126.673 27.4216 126.705 27.6322 126.724 27.8702C126.743 28.1085 126.747 28.3373 126.738 28.5573ZM125.508 31.298C125.364 31.4489 125.204 31.5794 125.028 31.6894C124.852 31.7994 124.672 31.8818 124.486 31.9368C124.301 31.9918 124.134 32.0054 123.986 31.9779C123.569 31.8956 123.249 31.7168 123.027 31.4421C122.805 31.1674 122.663 30.8446 122.603 30.4738C122.543 30.1027 122.549 29.7065 122.624 29.2853C122.698 28.864 122.823 28.4726 122.999 28.1108C123.175 27.7489 123.388 27.4375 123.638 27.1766C123.888 26.9155 124.162 26.7531 124.458 26.6887C124.347 27.1558 124.31 27.6391 124.347 28.1381C124.384 28.6373 124.505 29.1066 124.709 29.5462C124.838 29.8122 124.994 30.0546 125.174 30.2744C125.355 30.4943 125.575 30.682 125.835 30.8377C125.76 30.9935 125.651 31.1469 125.508 31.298ZM140.888 28.6946C140.915 28.4841 140.957 28.2617 141.013 28.0281C141.068 27.7948 141.138 27.568 141.221 27.3482C141.304 27.1283 141.402 26.9383 141.513 26.7781C141.624 26.618 141.742 26.5033 141.867 26.4346C141.993 26.3659 142.12 26.3728 142.25 26.4552C142.389 26.5378 142.474 26.7117 142.507 26.9772C142.539 27.243 142.507 27.5267 142.41 27.8291C142.312 28.1313 142.139 28.4152 141.888 28.6807C141.638 28.9466 141.3 29.1204 140.874 29.2028C140.855 29.0748 140.86 28.9053 140.888 28.6946ZM146.489 28.6946C146.517 28.4841 146.558 28.2617 146.614 28.0281C146.67 27.7948 146.739 27.568 146.823 27.3482C146.906 27.1283 147.003 26.9383 147.114 26.7781C147.226 26.618 147.344 26.5033 147.469 26.4346C147.594 26.3659 147.722 26.3728 147.851 26.4552C147.99 26.5378 148.076 26.7117 148.108 26.9772C148.141 27.243 148.108 27.5267 148.011 27.8291C147.914 28.1313 147.74 28.4152 147.49 28.6807C147.24 28.9466 146.901 29.1204 146.475 29.2028C146.457 29.0748 146.461 28.9053 146.489 28.6946ZM151.694 29.4983C151.588 29.3839 151.458 29.3038 151.305 29.2577C151.152 29.2121 151.007 29.2076 150.867 29.2442C150.728 29.2807 150.64 29.377 150.603 29.5326C150.529 29.8258 150.411 30.1257 150.249 30.4323C150.087 30.7394 149.887 31.0301 149.651 31.3048C149.415 31.5794 149.149 31.8224 148.852 32.033C148.555 32.2437 148.245 32.3948 147.921 32.4861C147.596 32.5872 147.328 32.5985 147.114 32.5206C146.901 32.4429 146.732 32.3101 146.607 32.1224C146.482 31.9345 146.392 31.7079 146.336 31.4421C146.281 31.1767 146.248 30.902 146.239 30.6179C146.767 30.6547 147.237 30.5609 147.65 30.3363C148.062 30.1119 148.412 29.8141 148.699 29.4432C148.986 29.0725 149.204 28.6557 149.352 28.1932C149.5 27.7306 149.584 27.2705 149.603 26.8125C149.612 26.382 149.547 26.0179 149.408 25.7202C149.269 25.4227 149.082 25.1912 148.845 25.0265C148.609 24.8615 148.338 24.7654 148.032 24.7379C147.726 24.7104 147.416 24.7519 147.101 24.8615C146.721 24.9899 146.399 25.1982 146.135 25.4867C145.871 25.7753 145.65 26.1097 145.474 26.4895C145.298 26.8698 145.159 27.2794 145.057 27.7191C144.955 28.1587 144.881 28.5916 144.835 29.0174C144.79 29.4306 144.766 29.8261 144.76 30.2047C144.725 30.2801 144.688 30.356 144.647 30.4323C144.485 30.7394 144.286 31.0301 144.05 31.3048C143.814 31.5794 143.547 31.8224 143.251 32.033C142.954 32.2437 142.644 32.3948 142.319 32.4861C141.995 32.5872 141.726 32.5985 141.513 32.5206C141.3 32.4429 141.131 32.3101 141.006 32.1224C140.881 31.9345 140.79 31.7079 140.735 31.4421C140.679 31.1767 140.647 30.902 140.637 30.6179C141.166 30.6547 141.636 30.5609 142.048 30.3363C142.46 30.1119 142.81 29.8141 143.098 29.4432C143.385 29.0725 143.603 28.6557 143.751 28.1932C143.899 27.7306 143.983 27.2705 144.001 26.8125C144.01 26.382 143.946 26.0179 143.807 25.7202C143.667 25.4227 143.48 25.1912 143.243 25.0265C143.007 24.8615 142.736 24.7654 142.43 24.7379C142.125 24.7104 141.814 24.7519 141.499 24.8615C141.119 24.9899 140.797 25.1982 140.533 25.4867C140.269 25.7753 140.049 26.1097 139.873 26.4895C139.697 26.8698 139.558 27.2794 139.456 27.7191C139.354 28.1587 139.28 28.5916 139.234 29.0174C139.207 29.2576 139.19 29.4904 139.177 29.7191C139.087 29.7944 139 29.8702 138.907 29.9446C138.587 30.2012 138.251 30.4323 137.899 30.6385C137.547 30.8446 137.181 31.0141 136.801 31.1469C136.421 31.2797 136.032 31.3598 135.634 31.3872L136.495 22.2651C136.551 22.0727 136.523 21.9034 136.412 21.7569C136.301 21.6103 136.157 21.5095 135.981 21.4546C135.805 21.3996 135.617 21.4043 135.418 21.4682C135.219 21.5326 135.055 21.6791 134.925 21.9078C134.86 22.256 134.793 22.7322 134.723 23.3366C134.654 23.941 134.584 24.6006 134.515 25.315C134.445 26.0294 134.376 26.7666 134.306 27.5267C134.237 28.2871 134.176 28.9968 134.125 29.6562C134.123 29.6855 134.121 29.7119 134.119 29.7409C134.038 29.8089 133.959 29.8773 133.875 29.9446C133.556 30.2012 133.219 30.4323 132.868 30.6385C132.515 30.8446 132.149 31.0141 131.77 31.1469C131.39 31.2797 131 31.3598 130.602 31.3872L131.464 22.2651C131.519 22.0727 131.492 21.9034 131.381 21.7569C131.269 21.6103 131.125 21.5095 130.949 21.4546C130.774 21.3996 130.586 21.4043 130.386 21.4682C130.187 21.5326 130.023 21.6791 129.893 21.9078C129.828 22.256 129.761 22.7322 129.692 23.3366C129.622 23.941 129.553 24.6006 129.483 25.315C129.414 26.0294 129.344 26.7666 129.275 27.5267C129.205 28.2871 129.145 28.9968 129.094 29.6562C129.093 29.6694 129.092 29.6814 129.091 29.6947C128.945 29.7614 128.787 29.82 128.614 29.8692C128.438 29.9197 128.239 29.9495 128.017 29.9586C128.054 29.7935 128.084 29.6103 128.107 29.4089C128.13 29.2076 128.149 28.9969 128.163 28.7769C128.177 28.5573 128.181 28.3373 128.177 28.1175C128.172 27.8976 128.16 27.6963 128.142 27.5129C128.095 27.1194 128.01 26.7461 127.885 26.3933C127.76 26.0409 127.591 25.7457 127.378 25.5072C127.164 25.2691 126.898 25.1088 126.578 25.0265C126.258 24.9441 125.885 24.9715 125.46 25.1088C124.829 25.0265 124.262 25.0839 123.757 25.2806C123.252 25.4778 122.814 25.7638 122.443 26.1392C122.073 26.515 121.769 26.9566 121.533 27.465C121.296 27.9732 121.139 28.4954 121.06 29.031C121.027 29.2581 121.011 29.4842 121.006 29.7097C120.862 30 120.705 30.2538 120.532 30.4668C120.286 30.769 120.032 31.0163 119.767 31.2086C119.503 31.401 119.242 31.5476 118.982 31.6483C118.723 31.7492 118.491 31.8179 118.287 31.8543C118.046 31.9002 117.815 31.9048 117.592 31.8681C117.37 31.8317 117.166 31.7262 116.981 31.5521C116.832 31.424 116.719 31.2178 116.64 30.9339C116.561 30.65 116.515 30.3274 116.501 29.9654C116.487 29.6035 116.501 29.2257 116.543 28.832C116.585 28.4383 116.656 28.0649 116.758 27.7123C116.86 27.3597 116.99 27.0438 117.148 26.7642C117.305 26.4852 117.49 26.2858 117.704 26.1667C117.824 26.1852 117.898 26.256 117.926 26.3795C117.954 26.5033 117.96 26.6499 117.947 26.8193C117.933 26.9888 117.912 27.1628 117.884 27.3413C117.856 27.5199 117.842 27.6689 117.842 27.7878C117.889 28.0351 117.979 28.2275 118.114 28.3649C118.248 28.5022 118.399 28.5826 118.565 28.6052C118.732 28.6282 118.896 28.5893 119.059 28.4884C119.221 28.3879 119.353 28.2275 119.455 28.0076C119.464 28.0168 119.478 28.0213 119.496 28.0213L119.691 26.2767C119.747 26.0384 119.709 25.8279 119.58 25.6447C119.45 25.4615 119.279 25.3561 119.066 25.3287C118.797 24.9441 118.433 24.7404 117.974 24.7173C117.516 24.6945 117.046 24.8433 116.564 25.1639C116.267 25.3748 116.005 25.6653 115.778 26.0362C115.551 26.4073 115.366 26.8193 115.223 27.2726C115.078 27.7259 114.977 28.2047 114.917 28.7084C114.856 29.2121 114.845 29.7022 114.882 30.1782C114.919 30.6547 115.005 31.1035 115.139 31.5245C115.273 31.946 115.461 32.2986 115.702 32.5823C115.906 32.8296 116.137 33.0107 116.397 33.1252C116.656 33.2397 116.927 33.3105 117.21 33.338C117.493 33.3654 117.773 33.3539 118.051 33.3037C118.329 33.2535 118.593 33.1826 118.843 33.0907C119.167 32.9719 119.501 32.8206 119.844 32.6374C120.187 32.4544 120.516 32.2344 120.831 31.9779C120.997 31.843 121.156 31.6959 121.31 31.5382C121.38 31.7104 121.459 31.877 121.554 32.033C121.804 32.445 122.142 32.7794 122.568 33.0358C122.994 33.2922 123.518 33.4156 124.139 33.4067C124.806 33.3975 125.422 33.2305 125.987 32.9053C126.553 32.5804 127.016 32.1015 127.378 31.4696C127.919 31.4696 128.451 31.3815 128.975 31.2063C128.971 31.2617 128.966 31.3201 128.962 31.3736C128.925 31.859 128.906 32.1886 128.906 32.3627C128.897 32.6649 128.876 33.0381 128.844 33.4822C128.811 33.9264 128.791 34.3935 128.781 34.8834C128.772 35.3734 128.791 35.868 128.837 36.3673C128.883 36.8662 128.98 37.3197 129.129 37.7275C129.277 38.1348 129.487 38.4807 129.761 38.7648C130.034 39.0484 130.393 39.2181 130.838 39.273C131.311 39.3368 131.719 39.2546 132.062 39.0257C132.404 38.7965 132.682 38.483 132.896 38.0847C133.109 37.6861 133.259 37.226 133.347 36.704C133.435 36.1818 133.461 35.6575 133.424 35.1307C133.386 34.6041 133.289 34.1073 133.132 33.6404C132.974 33.1732 132.756 32.7885 132.478 32.4861C132.645 32.4406 132.844 32.3536 133.076 32.2252C133.308 32.0971 133.546 31.9528 133.792 31.7924C133.852 31.7531 133.912 31.7116 133.972 31.6711C133.949 31.9957 133.938 32.2271 133.938 32.3627C133.929 32.6649 133.908 33.0381 133.875 33.4822C133.843 33.9264 133.822 34.3935 133.813 34.8834C133.804 35.3734 133.822 35.868 133.869 36.3673C133.915 36.8662 134.012 37.3197 134.16 37.7275C134.308 38.1348 134.519 38.4807 134.793 38.7648C135.066 39.0484 135.425 39.2181 135.87 39.273C136.342 39.3368 136.75 39.2546 137.093 39.0257C137.436 38.7965 137.714 38.483 137.927 38.0847C138.14 37.6861 138.291 37.226 138.379 36.704C138.467 36.1818 138.492 35.6575 138.455 35.1307C138.418 34.6041 138.321 34.1073 138.164 33.6404C138.006 33.1732 137.788 32.7885 137.51 32.4861C137.677 32.4406 137.876 32.3536 138.108 32.2252C138.339 32.0971 138.578 31.9528 138.824 31.7924C138.951 31.7091 139.078 31.6232 139.205 31.5348C139.252 31.9828 139.355 32.3756 139.518 32.7061C139.718 33.1092 139.989 33.4205 140.332 33.6404C140.674 33.86 141.077 33.9815 141.541 34.0043C142.004 34.027 142.509 33.9425 143.056 33.7501C143.464 33.6036 143.818 33.4205 144.119 33.2007C144.42 32.9807 144.691 32.7129 144.932 32.397C144.946 32.3788 144.959 32.3589 144.973 32.3404C145.016 32.4687 145.063 32.5919 145.12 32.7061C145.319 33.1092 145.59 33.4205 145.933 33.6404C146.276 33.86 146.679 33.9815 147.142 34.0043C147.606 34.027 148.111 33.9425 148.657 33.7501C149.065 33.6036 149.42 33.4205 149.721 33.2007C150.022 32.9807 150.293 32.7129 150.534 32.397C150.775 32.0809 150.995 31.7168 151.194 31.3048C151.393 30.8926 151.595 30.4211 151.799 29.8897C151.836 29.7433 151.801 29.6128 151.694 29.4983Z" fill="#0D0C23"/>
</g>
</g>
</g>
<defs>
<clipPath id="clip0_3095_7405">
<rect width="158" height="44" fill="white" transform="translate(8 6)"/>
</clipPath>
</defs>
</svg>
