<svg width="174" height="56" viewBox="0 0 174 56" fill="none" xmlns="http://www.w3.org/2000/svg">
<path d="M0 8.96C0 4.01154 3.49919 0 7.81563 0H166.082C170.399 0 173.898 4.01154 173.898 8.96V47.04C173.898 51.9885 170.399 56 166.082 56H7.81563C3.49919 56 0 51.9885 0 47.04V8.96Z" fill="#C60F18"/>
<path d="M33.1893 20.5505L33.1698 20.5391L33.1242 20.5254C33.1426 20.5406 33.1654 20.5494 33.1893 20.5505Z" fill="white"/>
<path d="M33.1972 20.5472C33.1944 20.5469 33.1919 20.5463 33.1895 20.5454C33.1892 20.5471 33.189 20.5488 33.1893 20.5505C33.1921 20.5501 33.1947 20.549 33.1972 20.5472Z" fill="white"/>
<path d="M33.1892 20.5521H33.1944V20.549L33.1892 20.5521Z" fill="white"/>
<path d="M33.4571 22.5586L33.49 22.54L33.5023 22.5332L33.5134 22.5215C33.4927 22.5304 33.4734 22.5429 33.4571 22.5586Z" fill="white"/>
<path d="M33.2452 20.5946L33.2128 20.5643L33.1909 20.5526C33.2029 20.573 33.2221 20.5881 33.2452 20.5946Z" fill="white"/>
<path d="M25.1748 40.1161C25.1493 40.1271 25.127 40.1443 25.1098 40.1662L25.13 40.1532C25.1436 40.1409 25.163 40.1259 25.1748 40.1161Z" fill="white"/>
<path d="M29.8617 39.2016C29.8617 39.1729 29.8476 39.178 29.851 39.2804C29.851 39.2721 29.8545 39.2637 29.856 39.2557C29.8579 39.2376 29.8594 39.2197 29.8617 39.2016Z" fill="white"/>
<path d="M29.3773 40.1161C29.3519 40.1271 29.3296 40.1443 29.3124 40.1662L29.3326 40.1532C29.3462 40.1409 29.3656 40.1259 29.3773 40.1161Z" fill="white"/>
<path d="M21.8731 40.3338C21.8535 40.3171 21.8295 40.3059 21.8039 40.3019C21.8246 40.312 21.8454 40.3217 21.8593 40.3292L21.8731 40.3338Z" fill="white"/>
<path d="M21.1294 39.6284C21.1266 39.5985 21.1179 39.5697 21.1039 39.5436C21.1138 39.5706 21.1221 39.5985 21.1287 39.6269L21.1294 39.6284Z" fill="white"/>
<path d="M26.1193 27.0084C25.0996 27.4414 23.9424 27.9323 22.4427 27.9323C21.8153 27.9311 21.191 27.8457 20.5866 27.6785L21.6239 38.2425C21.6606 38.684 21.8634 39.0958 22.1919 39.3957C22.5205 39.696 22.9508 39.8625 23.3975 39.8622C23.3975 39.8622 24.8682 39.9381 25.3589 39.9381C25.8871 39.9381 27.4709 39.8622 27.4709 39.8622C27.9174 39.8622 28.3477 39.6957 28.6762 39.3957C29.0046 39.0955 29.2074 38.684 29.2441 38.2425L30.3551 26.5689C29.8586 26.4007 29.3575 26.2889 28.7927 26.2889C27.8157 26.2886 27.0286 26.6223 26.1193 27.0084Z" fill="#FFDD00"/>
<path d="M17.3778 22.5015L17.3944 22.5177L17.4052 22.5245C17.3969 22.5158 17.3877 22.5081 17.3778 22.5015Z" fill="white"/>
<path d="M35.1536 21.5265L34.9977 20.745C34.8573 20.0438 34.5393 19.3812 33.8137 19.1277C33.5811 19.0467 33.317 19.0118 33.1387 18.844C32.9604 18.6762 32.9077 18.4155 32.8665 18.1738C32.7903 17.7302 32.7184 17.2862 32.6401 16.8434C32.5725 16.4626 32.5189 16.0349 32.3429 15.6856C32.1139 15.2166 31.6384 14.9424 31.1656 14.7609C30.9232 14.6712 30.6759 14.5953 30.425 14.5336C29.2437 14.2244 28.0018 14.1108 26.7865 14.046C25.3279 13.9662 23.8654 13.9902 22.4102 14.118C21.3272 14.2157 20.1864 14.334 19.1572 14.7056C18.781 14.8416 18.3934 15.0049 18.1073 15.2932C17.7563 15.6474 17.6418 16.1952 17.898 16.6369C18.0802 16.9506 18.3888 17.1722 18.7161 17.3188C19.1424 17.5077 19.5876 17.6514 20.0443 17.7476C21.3161 18.0265 22.6333 18.136 23.9325 18.1825C25.3726 18.2402 26.8149 18.1935 28.2481 18.0427C28.6025 18.0041 28.9563 17.9578 29.3094 17.9037C29.7253 17.8405 29.9923 17.301 29.8697 16.9252C29.723 16.4759 29.3289 16.3016 28.8832 16.3694C28.8175 16.3797 28.7522 16.3891 28.6865 16.3986L28.6392 16.4054C28.4882 16.4244 28.3372 16.442 28.1862 16.4585C27.8743 16.4918 27.5617 16.5191 27.2483 16.5403C26.5463 16.5888 25.8425 16.6111 25.139 16.6123C24.4477 16.6123 23.7561 16.5929 23.0664 16.5479C22.7517 16.5274 22.4378 16.5014 22.1246 16.4698C21.9821 16.455 21.8401 16.4395 21.698 16.4221L21.5628 16.405L21.5334 16.4009L21.3932 16.3808C21.1068 16.338 20.8204 16.2887 20.537 16.2293C20.5084 16.223 20.4828 16.2072 20.4645 16.1845C20.4462 16.1619 20.4362 16.1337 20.4362 16.1046C20.4362 16.0756 20.4462 16.0474 20.4645 16.0247C20.4828 16.0021 20.5084 15.9863 20.537 15.98H20.5423C20.7879 15.9281 21.0354 15.8838 21.2836 15.8451C21.3664 15.8323 21.4494 15.8196 21.5326 15.8072H21.5349C21.6904 15.797 21.8466 15.7694 22.0012 15.7512C23.347 15.6123 24.7007 15.565 26.0529 15.6095C26.7094 15.6284 27.3655 15.6667 28.0189 15.7326C28.1595 15.747 28.2993 15.7622 28.4391 15.7792C28.4925 15.7856 28.5464 15.7932 28.6002 15.7997L28.7087 15.8152C29.0249 15.8619 29.3395 15.9186 29.6524 15.9853C30.116 16.0853 30.7113 16.1179 30.9177 16.6217C30.9832 16.7816 31.0131 16.9593 31.0493 17.1271L31.0957 17.3411C31.0969 17.345 31.0978 17.3489 31.0983 17.3529C31.2076 17.858 31.3169 18.3631 31.4262 18.8682C31.4343 18.9055 31.4346 18.9441 31.4268 18.9815C31.4193 19.0189 31.4039 19.0543 31.3819 19.0855C31.3598 19.1168 31.3314 19.1432 31.2987 19.1631C31.2659 19.183 31.2291 19.196 31.1911 19.2012H31.1879L31.1212 19.2103L31.0551 19.219C30.8458 19.2461 30.6362 19.2713 30.4265 19.2948C30.0133 19.3415 29.5994 19.382 29.1849 19.416C28.3613 19.484 27.536 19.5286 26.709 19.5498C26.2876 19.5609 25.8664 19.5661 25.4453 19.5653C23.7691 19.564 22.0944 19.4674 20.4293 19.2759C20.249 19.2546 20.0688 19.2319 19.8885 19.2088C20.0283 19.2266 19.7869 19.1952 19.7381 19.1884C19.6235 19.1725 19.5089 19.1559 19.3943 19.1387C19.0097 19.0815 18.6275 19.0111 18.2437 18.9493C17.7796 18.8735 17.3359 18.9114 16.9161 19.1387C16.5716 19.3257 16.2928 19.6125 16.1168 19.9608C15.9358 20.3321 15.8819 20.7363 15.801 21.1352C15.72 21.5341 15.594 21.9633 15.6417 22.3729C15.7444 23.2567 16.3673 23.975 17.2633 24.1356C18.1062 24.2871 18.9536 24.4099 19.8034 24.5144C23.1413 24.92 26.5136 24.9685 29.862 24.6592C30.1347 24.6339 30.407 24.6064 30.6788 24.5766C30.7638 24.5673 30.8499 24.577 30.9305 24.605C31.0111 24.6329 31.0844 24.6784 31.145 24.7381C31.2056 24.7979 31.2523 24.8703 31.281 24.9501C31.3097 25.0299 31.3201 25.1151 31.3114 25.1994L31.2265 26.0169C31.0557 27.6689 30.885 29.3207 30.7142 30.9725C30.5359 32.707 30.3565 34.4415 30.176 36.1757C30.125 36.6643 30.0741 37.1526 30.0232 37.6409C29.9743 38.1215 29.9674 38.6175 29.8754 39.0926C29.7303 39.8395 29.2204 40.2984 28.4765 40.4661C27.7949 40.62 27.0986 40.7008 26.3997 40.7071C25.6248 40.7111 24.8503 40.6772 24.0754 40.6812C23.2482 40.6858 22.235 40.6102 21.5964 39.9994C21.0354 39.463 20.9579 38.623 20.8815 37.8969C20.7796 36.9355 20.6787 35.9741 20.5786 35.0127L19.654 26.2093C19.6479 26.1521 19.6418 26.0957 19.6361 26.0381C19.5926 25.6256 19.2981 25.2217 18.8341 25.2426C18.4369 25.26 17.9855 25.5949 18.0321 26.0381L18.8581 33.9058C19.0168 35.4124 19.175 36.9191 19.3329 38.426C19.3634 38.7147 19.3921 39.0043 19.4241 39.2928C19.5986 40.8705 20.8131 41.7205 22.3171 41.9598C23.1955 42.1001 24.0952 42.1289 24.9866 42.1433C26.1293 42.1614 27.2834 42.2051 28.4074 41.9998C30.0729 41.6967 31.3224 40.5935 31.5007 38.8821C31.5518 38.3883 31.6028 37.894 31.6535 37.3999C31.8228 35.7653 31.9918 34.1306 32.1609 32.4958L32.9662 24.7061C32.9787 24.5847 33.0306 24.4706 33.1135 24.3806C33.1967 24.2906 33.3069 24.2295 33.4275 24.2065C33.9038 24.1144 34.359 23.9572 34.6979 23.5976C35.2371 23.0252 35.3444 22.2789 35.1536 21.5265ZM17.2388 22.0547C17.2461 22.0512 17.2327 22.113 17.227 22.1418C17.2259 22.0982 17.2282 22.0596 17.2388 22.0547ZM17.2851 22.4092C17.2889 22.4066 17.3003 22.4218 17.3122 22.4399C17.2942 22.4232 17.2831 22.4108 17.2851 22.4092ZM17.3305 22.4687C17.3469 22.4964 17.3557 22.5138 17.3305 22.4687V22.4687ZM17.4218 22.5422H17.4241C17.4241 22.5449 17.4283 22.5475 17.4298 22.5502C17.4273 22.5473 17.4248 22.5446 17.4218 22.5422ZM33.4055 22.4323C33.2344 22.5937 32.9764 22.6688 32.7218 22.7063C29.8651 23.1268 26.9668 23.3397 24.0788 23.2457C22.0119 23.1756 19.9668 22.9479 17.9205 22.6612C17.72 22.6331 17.5028 22.5968 17.3649 22.4502C17.1052 22.1736 17.2327 21.6167 17.3003 21.2826C17.3622 20.9765 17.4806 20.5685 17.8476 20.5249C18.4205 20.4582 19.0858 20.698 19.6525 20.7833C20.3348 20.8866 21.0197 20.9693 21.7072 21.0314C24.641 21.2966 27.6241 21.2553 30.5449 20.8674C31.0772 20.7964 31.6077 20.7139 32.1362 20.62C32.6073 20.5363 33.1292 20.3791 33.4139 20.8628C33.609 21.1924 33.6348 21.6334 33.6046 22.0058C33.5953 22.168 33.5246 22.3206 33.4055 22.4323Z" fill="white"/>
<path fill-rule="evenodd" clip-rule="evenodd" d="M58.2948 27.8724C58.1281 28.1882 57.8988 28.4632 57.6069 28.6966C57.3149 28.9301 56.9746 29.1203 56.5852 29.2667C56.1962 29.4134 55.8045 29.5119 55.4108 29.5621C55.0168 29.6125 54.6344 29.6081 54.2642 29.5483C53.8934 29.4889 53.578 29.3676 53.3188 29.1842L53.6111 26.1756C53.8795 26.0842 54.2176 25.9902 54.6255 25.894C55.0331 25.798 55.4523 25.7291 55.8834 25.688C56.3145 25.6467 56.7218 25.6516 57.1065 25.7018C57.4909 25.7521 57.7944 25.8734 58.0168 26.0658C58.1374 26.1756 58.2395 26.2947 58.3227 26.423C58.4062 26.5513 58.4569 26.6841 58.4757 26.8214C58.5218 27.206 58.4618 27.5564 58.2948 27.8724ZM54.0555 21.4636C54.25 21.3445 54.4843 21.2391 54.7574 21.1474C55.0308 21.0561 55.3111 20.9918 55.5984 20.9552C55.8854 20.9187 56.1657 20.9138 56.4394 20.9414C56.7125 20.9689 56.9537 21.0444 57.1622 21.168C57.3706 21.2917 57.5257 21.4704 57.6278 21.7037C57.7295 21.9375 57.7573 22.2329 57.711 22.59C57.6741 22.8739 57.5602 23.1144 57.3706 23.3112C57.1807 23.5083 56.9488 23.673 56.6757 23.8059C56.4023 23.9388 56.1127 24.0441 55.8071 24.1216C55.501 24.1997 55.2067 24.2571 54.9244 24.2935C54.6417 24.3303 54.3961 24.3533 54.1877 24.3622C53.9793 24.3714 53.8424 24.3759 53.7775 24.3759L54.0555 21.4636ZM59.796 25.9283C59.6478 25.608 59.4487 25.3263 59.1985 25.0834C58.9483 24.8408 58.6514 24.6646 58.3087 24.5546C58.4569 24.4355 58.603 24.2478 58.7468 23.9913C58.8903 23.7351 59.0129 23.4555 59.115 23.1533C59.2167 22.8509 59.2866 22.5466 59.3234 22.2397C59.3602 21.9329 59.3463 21.6696 59.282 21.4496C59.124 20.9003 58.8764 20.4698 58.5381 20.1583C58.1997 19.847 57.806 19.6318 57.3567 19.5126C56.907 19.3939 56.4116 19.3684 55.8695 19.4371C55.3273 19.5058 54.7736 19.6408 54.2086 19.8423C54.2086 19.7966 54.2132 19.7486 54.2225 19.6982C54.2315 19.648 54.2361 19.5952 54.2361 19.5401C54.2361 19.4028 54.1668 19.2839 54.0277 19.183C53.8888 19.0822 53.7291 19.0228 53.5485 19.0043C53.3675 18.9862 53.1916 19.0249 53.0199 19.1211C52.8486 19.2173 52.7303 19.3939 52.6657 19.6499C52.5915 20.4743 52.5172 21.3308 52.4433 22.2189C52.3691 23.1075 52.2902 24.0051 52.207 24.9119C52.1236 25.8185 52.0401 26.7184 51.9569 27.6113C51.8734 28.5043 51.7899 29.3629 51.7067 30.1871C51.7345 30.4344 51.8038 30.6268 51.9151 30.7642C52.0261 30.9017 52.156 30.9841 52.3042 31.0115C52.4523 31.039 52.6077 31.0136 52.7698 30.9358C52.9318 30.8583 53.0733 30.7229 53.1939 30.5306C53.5644 30.7321 53.9816 30.8626 54.4448 30.9223C54.9081 30.9817 55.3781 30.9817 55.8558 30.9223C56.3327 30.8626 56.803 30.7506 57.2662 30.5855C57.7295 30.4208 58.1513 30.2146 58.5311 29.9675C58.9112 29.7202 59.2307 29.4383 59.4904 29.1225C59.7496 28.8064 59.9212 28.4653 60.0044 28.0991C60.0879 27.7235 60.1111 27.3481 60.074 26.9725C60.0369 26.5971 59.9441 26.2492 59.796 25.9283Z" fill="white"/>
<path fill-rule="evenodd" clip-rule="evenodd" d="M73.3564 33.1818C73.3057 33.484 73.2335 33.8024 73.141 34.1369C73.0483 34.4707 72.9395 34.7756 72.8146 35.0505C72.6894 35.3251 72.5505 35.5469 72.3977 35.7165C72.2446 35.8859 72.08 35.957 71.904 35.9296C71.7651 35.9109 71.677 35.8241 71.6402 35.6685C71.6028 35.5126 71.6028 35.3202 71.6402 35.0916C71.677 34.8624 71.7486 34.6036 71.8553 34.3152C71.962 34.0267 72.0919 33.7403 72.2446 33.4567C72.3977 33.1726 72.5714 32.9002 72.7659 32.6391C72.9604 32.3783 73.1642 32.1606 73.3773 31.9867C73.4237 32.0416 73.4446 32.179 73.4399 32.3989C73.435 32.6187 73.4075 32.8798 73.3564 33.1818ZM78.0686 27.2196C77.9434 27.0822 77.7906 27.0045 77.6097 26.986C77.4291 26.9677 77.2458 27.0684 77.0609 27.2882C76.9403 27.508 76.7872 27.7187 76.602 27.9202C76.4167 28.1218 76.2245 28.3049 76.0253 28.4697C75.8259 28.6344 75.636 28.7766 75.4554 28.8955C75.2748 29.0147 75.1333 29.1017 75.0315 29.1566C74.9944 28.8636 74.9733 28.5476 74.9689 28.2086C74.964 27.8698 74.9712 27.5265 74.9898 27.1784C75.0173 26.6838 75.0753 26.1848 75.1634 25.6809C75.2516 25.1772 75.3788 24.6826 75.5458 24.197C75.5458 23.9408 75.4852 23.7324 75.3649 23.572C75.2443 23.4119 75.0985 23.311 74.9272 23.2698C74.7555 23.2287 74.5799 23.2515 74.3989 23.3385C74.2183 23.4256 74.0632 23.5837 73.9334 23.8124C73.8223 24.1148 73.6948 24.4536 73.5513 24.829C73.4075 25.2046 73.2454 25.587 73.0648 25.9762C72.8839 26.3657 72.6824 26.7434 72.46 27.1096C72.2377 27.4761 71.9944 27.8013 71.7303 28.0851C71.4662 28.369 71.1789 28.5912 70.8687 28.7514C70.558 28.9117 70.2225 28.9827 69.861 28.9644C69.694 28.9185 69.5734 28.795 69.4995 28.5933C69.4253 28.392 69.3812 28.14 69.3676 27.8377C69.3537 27.5355 69.3676 27.2035 69.409 26.8417C69.4508 26.48 69.5065 26.1205 69.576 25.7634C69.6453 25.4061 69.7219 25.0672 69.8051 24.7467C69.8886 24.4262 69.9671 24.1559 70.0413 23.9361C70.1527 23.6707 70.1527 23.4483 70.0413 23.2698C69.9303 23.0912 69.7775 22.9723 69.583 22.9125C69.3885 22.8531 69.1844 22.8555 68.9713 22.9195C68.7582 22.9836 68.6051 23.1255 68.5126 23.3453C68.3549 23.721 68.2111 24.1421 68.0816 24.6092C67.952 25.0763 67.8476 25.5596 67.769 26.0586C67.6902 26.558 67.6458 27.0526 67.6368 27.5425C67.6363 27.5744 67.6377 27.6047 67.6377 27.6364C67.4356 28.1689 67.2431 28.5713 67.0602 28.8406C66.8239 29.1888 66.5572 29.34 66.2609 29.2939C66.1308 29.239 66.0455 29.1109 66.0038 28.9093C65.9617 28.708 65.9481 28.4607 65.9617 28.1673C65.9759 27.8745 66.0107 27.5425 66.0661 27.1714C66.1221 26.8006 66.1911 26.4159 66.2746 26.0175C66.3581 25.6189 66.4462 25.2185 66.5387 24.8154C66.6314 24.4124 66.7146 24.0323 66.7891 23.675C66.7799 23.3545 66.6848 23.1096 66.5039 22.9401C66.3236 22.7708 66.0708 22.7044 65.7466 22.7409C65.5243 22.8325 65.3596 22.9517 65.2532 23.0981C65.1465 23.2445 65.0607 23.4324 64.9961 23.6613C64.9587 23.7805 64.9033 24.0185 64.8291 24.3758C64.7549 24.7328 64.6601 25.1429 64.5441 25.6053C64.4284 26.068 64.2916 26.551 64.1342 27.0547C63.9767 27.5584 63.8005 28.0143 63.6062 28.4216C63.4114 28.8291 63.1983 29.1566 62.9667 29.4039C62.7351 29.6511 62.4849 29.752 62.2161 29.7061C62.0677 29.6786 61.9729 29.5275 61.9311 29.2528C61.8894 28.978 61.8827 28.6393 61.9103 28.2362C61.9381 27.8332 61.9938 27.3912 62.077 26.9105C62.1605 26.4297 62.246 25.9741 62.3341 25.5434C62.4223 25.1131 62.5034 24.7328 62.5776 24.4032C62.6516 24.0734 62.7026 23.8537 62.7304 23.7439C62.7304 23.4783 62.6698 23.2655 62.5498 23.1049C62.4292 22.9449 62.2834 22.844 62.1118 22.8027C61.9401 22.7616 61.7642 22.7844 61.5838 22.8714C61.4029 22.9585 61.2478 23.1166 61.118 23.3453C61.0716 23.5926 61.0113 23.879 60.9373 24.204C60.8631 24.529 60.7915 24.8633 60.7219 25.2069C60.6524 25.5504 60.5874 25.8869 60.5274 26.2167C60.4671 26.5464 60.423 26.8349 60.3952 27.0822C60.3767 27.2745 60.3558 27.5105 60.3329 27.7897C60.3094 28.0692 60.2978 28.3645 60.2978 28.6757C60.2978 28.9874 60.321 29.2964 60.3677 29.6031C60.4138 29.9101 60.4973 30.1917 60.6176 30.4479C60.7379 30.7045 60.9072 30.915 61.1252 31.0799C61.3426 31.2448 61.6183 31.3363 61.952 31.3548C62.2947 31.3729 62.5936 31.3479 62.8487 31.2791C63.1033 31.2104 63.3349 31.1027 63.5436 30.9561C63.7521 30.8099 63.942 30.6358 64.1136 30.4341C64.2846 30.2328 64.4539 30.0131 64.6206 29.7748C64.7783 30.123 64.9821 30.393 65.2323 30.5854C65.4825 30.7777 65.7466 30.8924 66.0247 30.9288C66.3024 30.9652 66.5853 30.9267 66.8726 30.812C67.1596 30.6977 67.4191 30.503 67.6508 30.2281C67.8035 30.0596 67.9473 29.868 68.0824 29.6563C68.1398 29.7555 68.2007 29.8511 68.2694 29.9395C68.4964 30.2328 68.8046 30.4341 69.1939 30.5441C69.6108 30.6541 70.0181 30.6726 70.4168 30.5992C70.8151 30.526 71.1952 30.393 71.5564 30.2008C71.9179 30.0084 72.2536 29.7773 72.5644 29.5069C72.8746 29.2368 73.1457 28.9553 73.3773 28.662C73.368 28.8727 73.3634 29.0721 73.3634 29.2596C73.3634 29.4475 73.3588 29.6511 73.3498 29.871C72.8862 30.1917 72.4484 30.5764 72.0362 31.025C71.6237 31.4736 71.2621 31.9522 70.9519 32.4605C70.6414 32.9687 70.3982 33.484 70.2225 34.006C70.0463 34.5282 69.9605 35.016 69.9651 35.4695C69.9697 35.9227 70.0784 36.3187 70.2918 36.6575C70.5046 36.9966 70.8522 37.239 71.334 37.3857C71.8347 37.5415 72.2745 37.5458 72.6549 37.3995C73.0346 37.2528 73.3657 37.0101 73.6484 36.6713C73.931 36.3325 74.1627 35.9227 74.3436 35.4419C74.5242 34.9611 74.6677 34.4595 74.7744 33.9376C74.8808 33.4156 74.948 32.9023 74.9759 32.3989C75.0037 31.895 75.0037 31.4461 74.9759 31.0524C75.7728 30.7228 76.426 30.306 76.9356 29.8022C77.4453 29.2988 77.8668 28.7674 78.2005 28.2086C78.3023 28.0713 78.3371 27.9064 78.3049 27.7142C78.2721 27.5218 78.1936 27.3569 78.0686 27.2196Z" fill="white"/>
<path fill-rule="evenodd" clip-rule="evenodd" d="M95.6025 26.3407C95.6304 26.1301 95.6721 25.9079 95.7275 25.6744C95.7832 25.4408 95.8527 25.2141 95.9362 24.9943C96.0194 24.7745 96.1168 24.5845 96.2282 24.4242C96.3392 24.264 96.4575 24.1495 96.5824 24.0807C96.7077 24.0122 96.8347 24.019 96.9648 24.1012C97.1037 24.1839 97.1892 24.3578 97.222 24.6232C97.2541 24.8892 97.222 25.1729 97.1246 25.4751C97.0271 25.7775 96.8535 26.0613 96.6033 26.3269C96.3531 26.5927 96.0148 26.7664 95.5886 26.8489C95.5701 26.721 95.5747 26.5514 95.6025 26.3407ZM100.418 26.9038C100.266 26.8583 100.12 26.8536 99.9807 26.8902C99.8419 26.9268 99.7537 27.023 99.7169 27.1788C99.6424 27.4718 99.5241 27.7717 99.3621 28.0785C99.2 28.3854 99.0008 28.6761 98.7649 28.951C98.5286 29.2257 98.2619 29.4685 97.9656 29.679C97.6687 29.8897 97.3585 30.0408 97.0341 30.1323C96.7097 30.2332 96.441 30.2446 96.2282 30.1667C96.0148 30.0891 95.8458 29.9561 95.7208 29.7684C95.5956 29.5807 95.5051 29.354 95.4498 29.0884C95.3941 28.8227 95.3616 28.548 95.3523 28.2639C95.8806 28.3007 96.3508 28.207 96.7633 27.9823C97.1753 27.7582 97.5252 27.4603 97.8125 27.0894C98.0995 26.7185 98.3175 26.3018 98.4657 25.8392C98.6138 25.3769 98.6973 24.9165 98.7159 24.4585C98.7251 24.028 98.6605 23.6641 98.5213 23.3664C98.3825 23.0689 98.1946 22.8373 97.9583 22.6726C97.7224 22.5077 97.451 22.4115 97.1454 22.3841C96.8399 22.3566 96.5291 22.3979 96.214 22.5077C95.8339 22.636 95.5121 22.8442 95.248 23.1329C94.9839 23.4213 94.7638 23.7558 94.5879 24.1357C94.4119 24.5159 94.2727 24.9256 94.171 25.3652C94.0689 25.8049 93.9947 26.2377 93.9486 26.6636C93.9069 27.0458 93.8845 27.4113 93.8767 27.7641C93.8567 27.8089 93.8376 27.8519 93.8164 27.8999C93.6726 28.2253 93.5056 28.5435 93.316 28.8548C93.1261 29.1663 92.9151 29.4273 92.6837 29.6379C92.4521 29.8486 92.2112 29.9218 91.961 29.8577C91.8126 29.8212 91.7317 29.6515 91.7178 29.3494C91.7039 29.047 91.7198 28.6716 91.7662 28.2228C91.8126 27.7742 91.8659 27.2885 91.9262 26.7664C91.9862 26.2445 92.0164 25.7455 92.0164 25.2691C92.0164 24.8569 91.9375 24.461 91.7801 24.0807C91.6224 23.7009 91.407 23.3847 91.1339 23.1329C90.8605 22.8808 90.5431 22.7137 90.1818 22.6315C89.8203 22.5488 89.4313 22.6039 89.0144 22.7962C88.5972 22.9886 88.2658 23.2587 88.0206 23.6068C87.7747 23.955 87.55 24.3212 87.3462 24.7058C87.272 24.4127 87.1633 24.1405 87.0195 23.8884C86.876 23.6366 86.7 23.4168 86.4916 23.2289C86.2829 23.0414 86.0486 22.8948 85.7897 22.7893C85.5303 22.6843 85.2566 22.6315 84.9693 22.6315C84.6915 22.6315 84.4344 22.6843 84.1981 22.7893C83.9618 22.8948 83.7465 23.0297 83.5516 23.1946C83.3571 23.3596 83.1811 23.5449 83.0234 23.7511C82.866 23.9571 82.7268 24.161 82.6065 24.3623C82.5877 24.1242 82.5671 23.916 82.5442 23.7371C82.5207 23.5587 82.479 23.4076 82.419 23.284C82.3587 23.1602 82.2731 23.0665 82.1618 23.0023C82.0505 22.9384 81.8931 22.9061 81.6893 22.9061C81.5872 22.9061 81.4852 22.9267 81.3834 22.9678C81.2814 23.0091 81.1909 23.0665 81.1123 23.1397C81.0335 23.2132 80.9735 23.3023 80.9317 23.4076C80.89 23.5128 80.8787 23.6343 80.8969 23.7716C80.9062 23.8725 80.9317 23.9937 80.9735 24.1357C81.0149 24.2778 81.0544 24.4634 81.0915 24.6921C81.1286 24.9211 81.1587 25.1982 81.1819 25.5233C81.2051 25.8485 81.2118 26.2469 81.2028 26.7185C81.1932 27.1903 81.1587 27.742 81.0984 28.3739C81.0381 29.0059 80.943 29.7386 80.8134 30.5719C80.7949 30.7643 80.8691 30.9201 81.0361 31.0392C81.2028 31.158 81.3927 31.2267 81.6058 31.2452C81.8189 31.2635 82.0206 31.2267 82.2105 31.1354C82.4004 31.0435 82.5094 30.8834 82.537 30.6545C82.5648 30.224 82.6181 29.7662 82.697 29.2806C82.7755 28.7954 82.873 28.3145 82.9889 27.8381C83.1046 27.362 83.2365 26.9087 83.3849 26.478C83.5331 26.0475 83.6977 25.6676 83.8784 25.3378C84.0593 25.0081 84.2468 24.7449 84.4414 24.5479C84.6359 24.351 84.8397 24.2525 85.0531 24.2525C85.3122 24.2525 85.5137 24.3691 85.6575 24.6027C85.801 24.8364 85.9028 25.1365 85.9634 25.5025C86.0234 25.869 86.0512 26.2699 86.0469 26.7048C86.0419 27.1398 86.0234 27.5588 85.9912 27.9617C85.9587 28.3649 85.9216 28.7242 85.8799 29.0402C85.8381 29.3562 85.808 29.5739 85.7897 29.6928C85.7897 29.9035 85.8706 30.0705 86.0327 30.1942C86.1947 30.3178 86.3753 30.3912 86.5748 30.414C86.7743 30.437 86.9615 30.4002 87.1378 30.304C87.3138 30.2078 87.4158 30.0455 87.4436 29.8163C87.5361 29.157 87.6637 28.4954 87.8257 27.8314C87.9878 27.1673 88.1733 26.5721 88.3818 26.0454C88.5902 25.5187 88.8219 25.0882 89.0767 24.754C89.3315 24.4198 89.6026 24.2525 89.8899 24.2525C90.038 24.2525 90.1517 24.3534 90.2302 24.5547C90.3091 24.7562 90.3485 25.0309 90.3485 25.379C90.3485 25.6355 90.3277 25.8988 90.2862 26.169C90.2442 26.4391 90.1957 26.7185 90.1401 27.007C90.0844 27.2956 90.0357 27.5909 89.994 27.8931C89.9525 28.1955 89.9316 28.5113 89.9316 28.841C89.9316 29.07 89.9548 29.3356 90.0012 29.6379C90.0473 29.9399 90.1352 30.2265 90.265 30.4964C90.3949 30.7667 90.5732 30.9956 90.8005 31.1833C91.0275 31.371 91.3168 31.465 91.6688 31.465C92.1973 31.465 92.6649 31.3527 93.0728 31.1284C93.4804 30.9041 93.8303 30.6111 94.1223 30.2493C94.1373 30.2303 94.1513 30.2101 94.166 30.1913C94.1884 30.2447 94.2081 30.3014 94.2333 30.3523C94.4325 30.7552 94.7035 31.0665 95.0465 31.2865C95.3892 31.5063 95.7924 31.6276 96.256 31.6506C96.719 31.6732 97.224 31.5885 97.7711 31.3963C98.1784 31.2497 98.5329 31.0665 98.8342 30.8467C99.1351 30.627 99.4061 30.3591 99.647 30.0431C99.8882 29.7271 100.108 29.363 100.307 28.951C100.507 28.5386 100.708 28.0672 100.912 27.5358C100.949 27.3896 100.914 27.259 100.808 27.1443C100.701 27.03 100.572 26.9498 100.418 26.9038Z" fill="white"/>
<path fill-rule="evenodd" clip-rule="evenodd" d="M107.973 25.3714C107.926 25.6417 107.864 25.9396 107.785 26.2645C107.706 26.5897 107.607 26.9263 107.486 27.2743C107.366 27.6223 107.217 27.9361 107.041 28.2153C106.865 28.4948 106.664 28.7167 106.437 28.8816C106.21 29.0465 105.948 29.1152 105.652 29.0876C105.503 29.0695 105.39 28.9687 105.311 28.7854C105.232 28.6024 105.191 28.3687 105.186 28.0848C105.181 27.801 105.207 27.4895 105.262 27.1506C105.318 26.8119 105.403 26.4797 105.52 26.1545C105.635 25.8296 105.777 25.5295 105.943 25.2546C106.11 24.98 106.302 24.767 106.52 24.6159C106.738 24.4648 106.977 24.394 107.236 24.4029C107.495 24.4121 107.773 24.5402 108.07 24.7875C108.051 24.9068 108.019 25.1014 107.973 25.3714ZM112.914 26.4224C112.77 26.3492 112.622 26.3333 112.469 26.3744C112.316 26.4156 112.207 26.5554 112.143 26.7935C112.106 27.05 112.022 27.3521 111.892 27.7001C111.763 28.0481 111.603 28.3781 111.413 28.6892C111.223 29.0006 111.005 29.2595 110.76 29.4655C110.514 29.6717 110.252 29.7656 109.974 29.7469C109.743 29.7288 109.58 29.612 109.488 29.3968C109.395 29.1816 109.347 28.9116 109.342 28.5862C109.337 28.2613 109.37 27.8949 109.439 27.4873C109.509 27.0798 109.592 26.6746 109.689 26.2713C109.787 25.8685 109.886 25.4814 109.988 25.1105C110.09 24.7396 110.173 24.4259 110.239 24.1695C110.312 23.9405 110.289 23.746 110.169 23.5855C110.048 23.4255 109.898 23.3108 109.717 23.2421C109.536 23.1735 109.353 23.1551 109.168 23.1872C108.983 23.2193 108.862 23.3178 108.807 23.4825C108.26 23.0154 107.734 22.7635 107.229 22.7269C106.724 22.6903 106.258 22.8003 105.832 23.0567C105.406 23.3131 105.028 23.6839 104.7 24.1695C104.371 24.6551 104.104 25.1839 103.9 25.7563C103.696 26.3286 103.569 26.9127 103.518 27.5079C103.467 28.1032 103.506 28.646 103.636 29.1359C103.766 29.6258 103.995 30.0267 104.324 30.3378C104.653 30.6492 105.1 30.8051 105.666 30.8051C105.916 30.8051 106.157 30.7547 106.388 30.6539C106.62 30.553 106.833 30.434 107.028 30.2967C107.222 30.1593 107.393 30.015 107.542 29.8639C107.69 29.7128 107.806 29.587 107.889 29.486C107.954 29.8158 108.061 30.0954 108.209 30.3242C108.357 30.553 108.526 30.7411 108.716 30.8873C108.906 31.0337 109.106 31.1414 109.314 31.2103C109.522 31.2789 109.724 31.3133 109.919 31.3133C110.354 31.3133 110.762 31.1667 111.142 30.8735C111.522 30.5808 111.862 30.221 112.164 29.7952C112.464 29.3693 112.713 28.9206 112.907 28.4488C113.102 27.9772 113.231 27.5582 113.296 27.1917C113.361 27.0543 113.349 26.9102 113.261 26.7591C113.173 26.608 113.058 26.4959 112.914 26.4224Z" fill="white"/>
<path fill-rule="evenodd" clip-rule="evenodd" d="M137.933 34.0069C137.855 34.318 137.732 34.5817 137.565 34.7968C137.398 35.012 137.19 35.1241 136.939 35.1336C136.782 35.1425 136.661 35.06 136.578 34.8863C136.495 34.712 136.437 34.4877 136.404 34.2131C136.372 33.9381 136.358 33.6313 136.362 33.2925C136.367 32.9537 136.381 32.6193 136.404 32.2896C136.427 31.96 136.455 31.6529 136.488 31.3692C136.52 31.0851 136.545 30.8657 136.564 30.7099C136.879 30.7464 137.141 30.8813 137.349 31.1151C137.558 31.3486 137.718 31.6256 137.829 31.9463C137.94 32.2668 138.005 32.6127 138.024 32.9834C138.042 33.3543 138.012 33.6954 137.933 34.0069ZM132.902 34.0069C132.823 34.318 132.7 34.5817 132.533 34.7968C132.367 35.012 132.158 35.1241 131.908 35.1336C131.75 35.1425 131.63 35.06 131.547 34.8863C131.463 34.712 131.405 34.4877 131.373 34.2131C131.34 33.9381 131.326 33.6313 131.331 33.2925C131.335 32.9537 131.349 32.6193 131.373 32.2896C131.396 31.96 131.424 31.6529 131.456 31.3692C131.489 31.0851 131.514 30.8657 131.533 30.7099C131.847 30.7464 132.11 30.8813 132.318 31.1151C132.526 31.3486 132.686 31.6256 132.798 31.9463C132.909 32.2668 132.973 32.6127 132.992 32.9834C133.01 33.3543 132.98 33.6954 132.902 34.0069ZM127.738 26.2038C127.729 26.4234 127.708 26.6181 127.675 26.7875C127.643 26.9572 127.599 27.0646 127.543 27.1104C127.441 27.0554 127.316 26.9137 127.168 26.6845C127.02 26.4556 126.904 26.1966 126.82 25.9082C126.737 25.6197 126.711 25.336 126.744 25.0564C126.776 24.7772 126.923 24.5599 127.182 24.4039C127.284 24.349 127.372 24.3695 127.446 24.4658C127.52 24.562 127.58 24.7016 127.627 24.8847C127.673 25.0681 127.705 25.2786 127.724 25.5167C127.743 25.755 127.747 25.9838 127.738 26.2038ZM126.508 28.9445C126.364 29.0954 126.204 29.2259 126.028 29.3359C125.852 29.4459 125.672 29.5283 125.486 29.5833C125.301 29.6383 125.134 29.6519 124.986 29.6244C124.569 29.5421 124.249 29.3633 124.027 29.0886C123.805 28.8139 123.663 28.4911 123.603 28.1203C123.543 27.7492 123.549 27.353 123.624 26.9318C123.698 26.5105 123.823 26.1191 123.999 25.7572C124.175 25.3954 124.388 25.084 124.638 24.8231C124.889 24.562 125.162 24.3995 125.458 24.3352C125.347 24.8023 125.31 25.2856 125.347 25.7846C125.384 26.2838 125.505 26.7531 125.709 27.1927C125.838 27.4587 125.994 27.7011 126.174 27.9209C126.355 28.1408 126.575 28.3285 126.835 28.4842C126.76 28.64 126.651 28.7933 126.508 28.9445ZM141.888 26.3411C141.915 26.1306 141.957 25.9082 142.013 25.6746C142.068 25.4412 142.138 25.2145 142.221 24.9947C142.304 24.7748 142.402 24.5848 142.513 24.4246C142.625 24.2645 142.742 24.1498 142.867 24.0811C142.993 24.0124 143.12 24.0192 143.25 24.1017C143.389 24.1843 143.474 24.3582 143.507 24.6236C143.539 24.8895 143.507 25.1732 143.41 25.4756C143.312 25.7778 143.139 26.0617 142.888 26.3272C142.638 26.5931 142.3 26.7669 141.874 26.8493C141.855 26.7212 141.86 26.5518 141.888 26.3411ZM147.489 26.3411C147.517 26.1306 147.558 25.9082 147.614 25.6746C147.67 25.4412 147.739 25.2145 147.823 24.9947C147.906 24.7748 148.003 24.5848 148.115 24.4246C148.226 24.2645 148.344 24.1498 148.469 24.0811C148.594 24.0124 148.722 24.0192 148.851 24.1017C148.99 24.1843 149.076 24.3582 149.108 24.6236C149.141 24.8895 149.108 25.1732 149.011 25.4756C148.914 25.7778 148.74 26.0617 148.49 26.3272C148.24 26.5931 147.901 26.7669 147.475 26.8493C147.457 26.7212 147.461 26.5518 147.489 26.3411ZM152.694 27.1448C152.588 27.0304 152.458 26.9502 152.305 26.9042C152.152 26.8586 152.007 26.854 151.867 26.8907C151.729 26.9272 151.64 27.0235 151.603 27.1791C151.529 27.4723 151.411 27.7722 151.249 28.0788C151.087 28.3859 150.887 28.6766 150.651 28.9513C150.415 29.2259 150.149 29.4689 149.852 29.6794C149.555 29.8902 149.245 30.0413 148.921 30.1326C148.596 30.2337 148.328 30.245 148.115 30.1671C147.901 30.0894 147.732 29.9566 147.607 29.7689C147.482 29.581 147.392 29.3544 147.336 29.0886C147.281 28.8232 147.248 28.5485 147.239 28.2644C147.767 28.3012 148.237 28.2074 148.65 27.9827C149.062 27.7584 149.412 27.4606 149.699 27.0897C149.986 26.719 150.204 26.3022 150.352 25.8397C150.5 25.3771 150.584 24.917 150.603 24.4589C150.612 24.0285 150.547 23.6644 150.408 23.3667C150.269 23.0692 150.082 22.8377 149.845 22.673C149.609 22.508 149.338 22.4119 149.032 22.3844C148.726 22.3568 148.416 22.3983 148.101 22.508C147.721 22.6364 147.399 22.8447 147.135 23.1331C146.871 23.4218 146.65 23.7562 146.475 24.136C146.298 24.5163 146.159 24.9259 146.057 25.3656C145.955 25.8052 145.881 26.2381 145.835 26.6639C145.79 27.0771 145.766 27.4726 145.76 27.8511C145.725 27.9266 145.688 28.0024 145.647 28.0788C145.485 28.3859 145.286 28.6766 145.05 28.9513C144.814 29.2259 144.547 29.4689 144.251 29.6794C143.954 29.8902 143.644 30.0413 143.319 30.1326C142.995 30.2337 142.726 30.245 142.513 30.1671C142.3 30.0894 142.131 29.9566 142.006 29.7689C141.881 29.581 141.79 29.3544 141.735 29.0886C141.679 28.8232 141.647 28.5485 141.637 28.2644C142.166 28.3012 142.636 28.2074 143.048 27.9827C143.46 27.7584 143.81 27.4606 144.098 27.0897C144.385 26.719 144.603 26.3022 144.751 25.8397C144.899 25.3771 144.983 24.917 145.001 24.4589C145.01 24.0285 144.946 23.6644 144.807 23.3667C144.668 23.0692 144.48 22.8377 144.243 22.673C144.007 22.508 143.736 22.4119 143.43 22.3844C143.125 22.3568 142.814 22.3983 142.499 22.508C142.119 22.6364 141.797 22.8447 141.533 23.1331C141.269 23.4218 141.049 23.7562 140.873 24.136C140.697 24.5163 140.558 24.9259 140.456 25.3656C140.354 25.8052 140.28 26.2381 140.234 26.6639C140.207 26.9041 140.19 27.1369 140.177 27.3656C140.087 27.4409 140 27.5167 139.907 27.5911C139.587 27.8477 139.251 28.0788 138.899 28.285C138.547 28.4911 138.181 28.6605 137.801 28.7934C137.421 28.9262 137.032 29.0063 136.634 29.0337L137.495 19.9116C137.551 19.7191 137.523 19.5499 137.412 19.4033C137.301 19.2568 137.157 19.156 136.981 19.1011C136.805 19.0461 136.617 19.0507 136.418 19.1147C136.219 19.179 136.055 19.3256 135.925 19.5543C135.86 19.9025 135.793 20.3787 135.723 20.9831C135.654 21.5875 135.584 22.247 135.515 22.9615C135.445 23.6759 135.376 24.4131 135.306 25.1732C135.237 25.9336 135.176 26.6433 135.125 27.3027C135.123 27.3319 135.121 27.3584 135.119 27.3874C135.038 27.4553 134.959 27.5238 134.875 27.5911C134.556 27.8477 134.219 28.0788 133.868 28.285C133.515 28.4911 133.149 28.6605 132.77 28.7934C132.39 28.9262 132 29.0063 131.602 29.0337L132.464 19.9116C132.519 19.7191 132.492 19.5499 132.381 19.4033C132.269 19.2568 132.125 19.156 131.95 19.1011C131.774 19.0461 131.586 19.0507 131.387 19.1147C131.187 19.179 131.023 19.3256 130.893 19.5543C130.828 19.9025 130.761 20.3787 130.692 20.9831C130.622 21.5875 130.553 22.247 130.483 22.9615C130.414 23.6759 130.344 24.4131 130.275 25.1732C130.205 25.9336 130.145 26.6433 130.094 27.3027C130.093 27.3159 130.092 27.3279 130.091 27.3412C129.945 27.4079 129.787 27.4665 129.614 27.5157C129.438 27.5662 129.239 27.596 129.017 27.6051C129.054 27.44 129.084 27.2568 129.107 27.0554C129.13 26.854 129.149 26.6433 129.163 26.4234C129.177 26.2038 129.181 25.9838 129.177 25.764C129.172 25.5441 129.16 25.3428 129.142 25.1594C129.095 24.7659 129.01 24.3925 128.885 24.0398C128.76 23.6874 128.591 23.3921 128.378 23.1537C128.164 22.9156 127.898 22.7553 127.578 22.673C127.259 22.5906 126.885 22.6179 126.46 22.7553C125.829 22.673 125.262 22.7304 124.757 22.9271C124.252 23.1243 123.814 23.4103 123.443 23.7857C123.073 24.1614 122.769 24.6031 122.533 25.1115C122.296 25.6197 122.139 26.1419 122.06 26.6775C122.027 26.9046 122.011 27.1306 122.006 27.3562C121.862 27.6465 121.705 27.9003 121.532 28.1133C121.286 28.4155 121.032 28.6628 120.767 28.8551C120.503 29.0475 120.242 29.194 119.982 29.2948C119.723 29.3957 119.491 29.4644 119.287 29.5008C119.046 29.5466 118.815 29.5513 118.592 29.5146C118.37 29.4781 118.166 29.3727 117.981 29.1986C117.832 29.0705 117.719 28.8643 117.64 28.5804C117.561 28.2965 117.515 27.9739 117.501 27.6119C117.487 27.25 117.501 26.8722 117.543 26.4784C117.585 26.0847 117.656 25.7114 117.758 25.3588C117.86 25.0062 117.99 24.6903 118.148 24.4107C118.305 24.1317 118.49 23.9322 118.704 23.8132C118.824 23.8317 118.898 23.9024 118.926 24.026C118.954 24.1498 118.96 24.2963 118.947 24.4658C118.933 24.6353 118.912 24.8093 118.884 24.9878C118.856 25.1664 118.842 25.3154 118.842 25.4343C118.889 25.6816 118.979 25.874 119.114 26.0113C119.248 26.1487 119.399 26.229 119.565 26.2517C119.732 26.2747 119.896 26.2358 120.059 26.1349C120.221 26.0343 120.353 25.874 120.455 25.6541C120.464 25.6633 120.478 25.6678 120.496 25.6678L120.691 23.9232C120.747 23.6849 120.709 23.4744 120.58 23.2912C120.45 23.108 120.279 23.0026 120.066 22.9752C119.797 22.5906 119.433 22.3868 118.974 22.3638C118.516 22.341 118.046 22.4898 117.564 22.8104C117.267 23.0212 117.005 23.3118 116.778 23.6827C116.551 24.0537 116.366 24.4658 116.223 24.9191C116.078 25.3724 115.977 25.8512 115.917 26.3549C115.856 26.8586 115.845 27.3487 115.882 27.8247C115.919 28.3012 116.005 28.75 116.139 29.171C116.273 29.5925 116.461 29.9451 116.702 30.2288C116.906 30.4761 117.137 30.6572 117.397 30.7717C117.656 30.8862 117.927 30.957 118.21 30.9845C118.493 31.0119 118.773 31.0004 119.051 30.9502C119.329 30.9 119.593 30.8291 119.843 30.7372C120.167 30.6183 120.501 30.467 120.844 30.2839C121.187 30.1009 121.516 29.8809 121.831 29.6244C121.997 29.4895 122.156 29.3424 122.31 29.1846C122.381 29.3568 122.459 29.5235 122.554 29.6794C122.804 30.0915 123.142 30.4259 123.568 30.6823C123.994 30.9387 124.518 31.0621 125.139 31.0532C125.806 31.044 126.422 30.877 126.987 30.5518C127.553 30.2269 128.016 29.7479 128.378 29.1161C128.919 29.1161 129.451 29.028 129.975 28.8528C129.971 28.9082 129.966 28.9666 129.962 29.0201C129.925 29.5055 129.906 29.8351 129.906 30.0092C129.897 30.3114 129.876 30.6846 129.844 31.1287C129.811 31.5729 129.791 32.04 129.781 32.5298C129.772 33.0199 129.791 33.5145 129.837 34.0138C129.883 34.5127 129.98 34.9662 130.129 35.374C130.277 35.7812 130.488 36.1272 130.761 36.4113C131.034 36.6949 131.393 36.8646 131.838 36.9195C132.311 36.9833 132.719 36.9011 133.062 36.6722C133.404 36.443 133.682 36.1295 133.896 35.7312C134.109 35.3326 134.259 34.8725 134.347 34.3505C134.435 33.8283 134.461 33.304 134.424 32.7772C134.386 32.2506 134.289 31.7538 134.132 31.2869C133.974 30.8197 133.756 30.435 133.478 30.1326C133.645 30.0871 133.844 30.0001 134.076 29.8717C134.308 29.7436 134.546 29.5993 134.792 29.4389C134.852 29.3995 134.912 29.358 134.972 29.3176C134.949 29.6421 134.938 29.8736 134.938 30.0092C134.929 30.3114 134.908 30.6846 134.875 31.1287C134.843 31.5729 134.822 32.04 134.813 32.5298C134.804 33.0199 134.822 33.5145 134.869 34.0138C134.915 34.5127 135.012 34.9662 135.16 35.374C135.308 35.7812 135.519 36.1272 135.793 36.4113C136.066 36.6949 136.425 36.8646 136.87 36.9195C137.342 36.9833 137.75 36.9011 138.093 36.6722C138.436 36.443 138.714 36.1295 138.927 35.7312C139.14 35.3326 139.291 34.8725 139.379 34.3505C139.467 33.8283 139.492 33.304 139.455 32.7772C139.418 32.2506 139.321 31.7538 139.164 31.2869C139.006 30.8197 138.788 30.435 138.51 30.1326C138.677 30.0871 138.876 30.0001 139.108 29.8717C139.339 29.7436 139.578 29.5993 139.824 29.4389C139.951 29.3556 140.078 29.2697 140.205 29.1813C140.252 29.6292 140.355 30.0221 140.518 30.3526C140.718 30.7557 140.989 31.067 141.332 31.2869C141.674 31.5065 142.077 31.628 142.541 31.6508C143.004 31.6735 143.509 31.589 144.056 31.3965C144.464 31.2501 144.818 31.067 145.119 30.8472C145.42 30.6272 145.691 30.3593 145.932 30.0435C145.946 30.0252 145.959 30.0054 145.973 29.9869C146.016 30.1152 146.063 30.2384 146.12 30.3526C146.319 30.7557 146.59 31.067 146.933 31.2869C147.276 31.5065 147.679 31.628 148.142 31.6508C148.606 31.6735 149.111 31.589 149.657 31.3965C150.065 31.2501 150.42 31.067 150.721 30.8472C151.022 30.6272 151.293 30.3593 151.534 30.0435C151.775 29.7274 151.995 29.3633 152.194 28.9513C152.393 28.5391 152.595 28.0676 152.799 27.5362C152.836 27.3898 152.801 27.2593 152.694 27.1448Z" fill="white"/>
</svg>
