<svg width="184" height="44" viewBox="0 0 184 44" fill="none" xmlns="http://www.w3.org/2000/svg">
<path d="M160 11.0012L164 16.0012L160 19.0012L151 10.0012L159 2.00122L183 25.0012" stroke="#C60F18" stroke-width="1.5" stroke-miterlimit="10" stroke-linecap="round" stroke-linejoin="round"/>
<path d="M160 33.0012L164 28.0012L160 25.0012L151 34.0012L159 42.0012L183 19.0012" stroke="#C60F18" stroke-width="1.5" stroke-miterlimit="10" stroke-linecap="round" stroke-linejoin="round"/>
<path d="M142 11.0012L138 16.0012L142 19.0012L151 10.0012L143 2.00122L119 25.0012" stroke="#C60F18" stroke-width="1.5" stroke-miterlimit="10" stroke-linecap="round" stroke-linejoin="round"/>
<path d="M142 33.0012L138 28.0012L142 25.0012L151 34.0012L143 42.0012L119 19.0012" stroke="#C60F18" stroke-width="1.5" stroke-miterlimit="10" stroke-linecap="round" stroke-linejoin="round"/>
<path d="M147 22.0012L151 26.0012L155 22.0012L151 18.0012L147 22.0012Z" stroke="#C60F18" stroke-width="1.5" stroke-miterlimit="10" stroke-linecap="round" stroke-linejoin="round"/>
<path d="M123 5.00079L127 9.00079L131 5.00079L127 1.00079L123 5.00079Z" stroke="#C60F18" stroke-width="1.5" stroke-miterlimit="10" stroke-linecap="round" stroke-linejoin="round"/>
<path d="M123 39.0008L127 43.0008L131 39.0008L127 35.0008L123 39.0008Z" stroke="#C60F18" stroke-width="1.5" stroke-miterlimit="10" stroke-linecap="round" stroke-linejoin="round"/>
<path d="M74 5.00043L78 9.00043L82 5.00043L78 1.00043L74 5.00043Z" stroke="#C60F18" stroke-width="1.5" stroke-miterlimit="10" stroke-linecap="round" stroke-linejoin="round"/>
<path d="M74 39.0004L78 43.0004L82 39.0004L78 35.0004L74 39.0004Z" stroke="#C60F18" stroke-width="1.5" stroke-miterlimit="10" stroke-linecap="round" stroke-linejoin="round"/>
<path d="M26 5L30 9L34 5L30 1L26 5Z" stroke="#C60F18" stroke-width="1.5" stroke-miterlimit="10" stroke-linecap="round" stroke-linejoin="round"/>
<path d="M26 39L30 43L34 39L30 35L26 39Z" stroke="#C60F18" stroke-width="1.5" stroke-miterlimit="10" stroke-linecap="round" stroke-linejoin="round"/>
<path d="M112 11L116 16L112 19L103 10L111 2L135 25" stroke="#C60F18" stroke-width="1.5" stroke-miterlimit="10" stroke-linecap="round" stroke-linejoin="round"/>
<path d="M112 33L116 28L112 25L103 34L111 42L135 19" stroke="#C60F18" stroke-width="1.5" stroke-miterlimit="10" stroke-linecap="round" stroke-linejoin="round"/>
<path d="M93 11L89 16L93 19L102 10L94 2L70 25" stroke="#C60F18" stroke-width="1.5" stroke-miterlimit="10" stroke-linecap="round" stroke-linejoin="round"/>
<path d="M93 33L89 28L93 25L102 34L94 42L70 19" stroke="#C60F18" stroke-width="1.5" stroke-miterlimit="10" stroke-linecap="round" stroke-linejoin="round"/>
<path d="M98 22L102 26L106 22L102 18L98 22Z" stroke="#C60F18" stroke-width="1.5" stroke-miterlimit="10" stroke-linecap="round" stroke-linejoin="round"/>
<path d="M63 11L67 16L63 19L54 10L62 2L86 25" stroke="#C60F18" stroke-width="1.5" stroke-miterlimit="10" stroke-linecap="round" stroke-linejoin="round"/>
<path d="M63 33L67 28L63 25L54 34L62 42L86 19" stroke="#C60F18" stroke-width="1.5" stroke-miterlimit="10" stroke-linecap="round" stroke-linejoin="round"/>
<path d="M45 11L41 16L45 19L54 10L46 2L22 25" stroke="#C60F18" stroke-width="1.5" stroke-miterlimit="10" stroke-linecap="round" stroke-linejoin="round"/>
<path d="M45 33L41 28L45 25L54 34L46 42L22 19" stroke="#C60F18" stroke-width="1.5" stroke-miterlimit="10" stroke-linecap="round" stroke-linejoin="round"/>
<path d="M50 22L54 26L58 22L54 18L50 22Z" stroke="#C60F18" stroke-width="1.5" stroke-miterlimit="10" stroke-linecap="round" stroke-linejoin="round"/>
<path d="M15 11L19 16L15 19L6 10L14 2L38 25" stroke="#C60F18" stroke-width="1.5" stroke-miterlimit="10" stroke-linecap="round" stroke-linejoin="round"/>
<path d="M15 33L19 28L15 25L6 34L14 42L38 19" stroke="#C60F18" stroke-width="1.5" stroke-miterlimit="10" stroke-linecap="round" stroke-linejoin="round"/>
<path d="M1 22L5 26L9 22L5 18L1 22Z" stroke="#C60F18" stroke-width="1.5" stroke-miterlimit="10" stroke-linecap="round" stroke-linejoin="round"/>
</svg>
