<svg width="184" height="44" viewBox="0 0 184 44" fill="none" xmlns="http://www.w3.org/2000/svg">
<path d="M24 11.0012L20 16.0012L24 19.0012L33 10.0012L25 2.00122L1 25.0012" stroke="#C60F18" stroke-width="1.5" stroke-miterlimit="10" stroke-linecap="round" stroke-linejoin="round"/>
<path d="M24 33.0012L20 28.0012L24 25.0012L33 34.0012L25 42.0012L1 19.0012" stroke="#C60F18" stroke-width="1.5" stroke-miterlimit="10" stroke-linecap="round" stroke-linejoin="round"/>
<path d="M42 11.0012L46 16.0012L42 19.0012L33 10.0012L41 2.00122L65 25.0012" stroke="#C60F18" stroke-width="1.5" stroke-miterlimit="10" stroke-linecap="round" stroke-linejoin="round"/>
<path d="M42 33.0012L46 28.0012L42 25.0012L33 34.0012L41 42.0012L65 19.0012" stroke="#C60F18" stroke-width="1.5" stroke-miterlimit="10" stroke-linecap="round" stroke-linejoin="round"/>
<path d="M37 22.0012L33 26.0012L29 22.0012L33 18.0012L37 22.0012Z" stroke="#C60F18" stroke-width="1.5" stroke-miterlimit="10" stroke-linecap="round" stroke-linejoin="round"/>
<path d="M61 5.00079L57 9.00079L53 5.00079L57 1.00079L61 5.00079Z" stroke="#C60F18" stroke-width="1.5" stroke-miterlimit="10" stroke-linecap="round" stroke-linejoin="round"/>
<path d="M61 39.0008L57 43.0008L53 39.0008L57 35.0008L61 39.0008Z" stroke="#C60F18" stroke-width="1.5" stroke-miterlimit="10" stroke-linecap="round" stroke-linejoin="round"/>
<path d="M110 5.00043L106 9.00043L102 5.00043L106 1.00043L110 5.00043Z" stroke="#C60F18" stroke-width="1.5" stroke-miterlimit="10" stroke-linecap="round" stroke-linejoin="round"/>
<path d="M110 39.0004L106 43.0004L102 39.0004L106 35.0004L110 39.0004Z" stroke="#C60F18" stroke-width="1.5" stroke-miterlimit="10" stroke-linecap="round" stroke-linejoin="round"/>
<path d="M158 5L154 9L150 5L154 1L158 5Z" stroke="#C60F18" stroke-width="1.5" stroke-miterlimit="10" stroke-linecap="round" stroke-linejoin="round"/>
<path d="M158 39L154 43L150 39L154 35L158 39Z" stroke="#C60F18" stroke-width="1.5" stroke-miterlimit="10" stroke-linecap="round" stroke-linejoin="round"/>
<path d="M72 11L68 16L72 19L81 10L73 2L49 25" stroke="#C60F18" stroke-width="1.5" stroke-miterlimit="10" stroke-linecap="round" stroke-linejoin="round"/>
<path d="M72 33L68 28L72 25L81 34L73 42L49 19" stroke="#C60F18" stroke-width="1.5" stroke-miterlimit="10" stroke-linecap="round" stroke-linejoin="round"/>
<path d="M91 11L95 16L91 19L82 10L90 2L114 25" stroke="#C60F18" stroke-width="1.5" stroke-miterlimit="10" stroke-linecap="round" stroke-linejoin="round"/>
<path d="M91 33L95 28L91 25L82 34L90 42L114 19" stroke="#C60F18" stroke-width="1.5" stroke-miterlimit="10" stroke-linecap="round" stroke-linejoin="round"/>
<path d="M86 22L82 26L78 22L82 18L86 22Z" stroke="#C60F18" stroke-width="1.5" stroke-miterlimit="10" stroke-linecap="round" stroke-linejoin="round"/>
<path d="M121 11L117 16L121 19L130 10L122 2L98 25" stroke="#C60F18" stroke-width="1.5" stroke-miterlimit="10" stroke-linecap="round" stroke-linejoin="round"/>
<path d="M121 33L117 28L121 25L130 34L122 42L98 19" stroke="#C60F18" stroke-width="1.5" stroke-miterlimit="10" stroke-linecap="round" stroke-linejoin="round"/>
<path d="M139 11L143 16L139 19L130 10L138 2L162 25" stroke="#C60F18" stroke-width="1.5" stroke-miterlimit="10" stroke-linecap="round" stroke-linejoin="round"/>
<path d="M139 33L143 28L139 25L130 34L138 42L162 19" stroke="#C60F18" stroke-width="1.5" stroke-miterlimit="10" stroke-linecap="round" stroke-linejoin="round"/>
<path d="M134 22L130 26L126 22L130 18L134 22Z" stroke="#C60F18" stroke-width="1.5" stroke-miterlimit="10" stroke-linecap="round" stroke-linejoin="round"/>
<path d="M169 11L165 16L169 19L178 10L170 2L146 25" stroke="#C60F18" stroke-width="1.5" stroke-miterlimit="10" stroke-linecap="round" stroke-linejoin="round"/>
<path d="M169 33L165 28L169 25L178 34L170 42L146 19" stroke="#C60F18" stroke-width="1.5" stroke-miterlimit="10" stroke-linecap="round" stroke-linejoin="round"/>
<path d="M183 22L179 26L175 22L179 18L183 22Z" stroke="#C60F18" stroke-width="1.5" stroke-miterlimit="10" stroke-linecap="round" stroke-linejoin="round"/>
</svg>
