<svg width="100" height="56" viewBox="0 0 100 56" fill="none" xmlns="http://www.w3.org/2000/svg">
<rect width="100" height="56" transform="translate(-0.000244141)" fill="#FF424E"/>
<path d="M78.1759 24.204H79.9998V32.1343H78.0852L75.2298 27.0361V32.1343H73.3945V24.204H75.309L78.1759 29.37V24.204ZM66.1554 24C68.7835 24 70.3471 25.994 70.3471 28.1692C70.3471 30.3443 68.7835 32.3384 66.1554 32.3384C63.5155 32.3384 61.9519 30.3443 61.9519 28.1692C61.9519 25.994 63.5155 24 66.1554 24ZM68.4781 28.1692C68.4781 26.8664 67.5939 25.6541 66.1554 25.6541C64.7051 25.6541 63.8329 26.8664 63.8329 28.1692C63.8329 29.472 64.7051 30.6842 66.1554 30.6842C67.5939 30.6842 68.4781 29.472 68.4781 28.1692ZM36.5182 25.79V24.204H41.9445V25.79H40.143V32.1343H38.3078V25.79H36.5182ZM55.9705 27.478H58.9726V28.9171H55.9705V30.6614H58.9726V32.1343H54.1351V24.204H58.9726V25.677H55.9705V27.478ZM48.1306 24.204C49.8864 24.204 51.0194 25.5297 51.0194 27.0704C51.0194 28.1806 50.4302 29.166 49.4443 29.6307L51.0307 32.1343H48.901L47.4956 29.9363H46.6346V32.1343H44.7994V24.204H48.1306ZM49.1612 27.0704C49.1612 26.3339 48.6626 25.6994 47.8922 25.6994H46.6346V28.4409H47.8922C48.6626 28.4409 49.1612 27.8068 49.1612 27.0704ZM32.9268 31.1714H30.1057L29.7997 32.1343H27.8395L30.672 24.204H32.36L35.2264 32.1343H33.2324L32.9268 31.1714ZM31.5215 26.4698L30.5472 29.7327H32.473L31.5215 26.4698ZM23.319 24.204C25.0752 24.204 26.2082 25.5297 26.2082 27.0704C26.2082 28.611 25.0752 29.9363 23.319 29.9363H21.835V32.1343H19.9998V24.204H23.319ZM24.3615 27.0704C24.3615 26.3339 23.8629 25.6994 23.0926 25.6994H21.835V28.4409H23.0926C23.8629 28.4409 24.3615 27.8068 24.3615 27.0704Z" fill="white"/>
</svg>
