<svg width="32" height="32" viewBox="0 0 32 32" fill="none" xmlns="http://www.w3.org/2000/svg">
<g clip-path="url(#clip0_1505_8504)">
<path d="M0 16C0 23.92 5.76 30.48 13.36 31.84L13.4546 31.7626C13.4497 31.7618 13.4449 31.7609 13.44 31.76V20.48H9.44V16H13.44V12.48C13.44 8.48 16 6.24 19.68 6.24C20.8 6.24 22.08 6.4 23.2 6.56V10.64H21.12C19.2 10.64 18.72 11.6 18.72 12.88V16H22.96L22.24 20.48H18.72V31.76C18.6713 31.7689 18.6225 31.7775 18.5738 31.7858L18.64 31.84C26.24 30.48 32 23.92 32 16C32 7.2 24.8 0 16 0C7.2 0 0 7.2 0 16Z" fill="white"/>
</g>
<defs>
<clipPath id="clip0_1505_8504">
<rect width="32" height="32" fill="white"/>
</clipPath>
</defs>
</svg>
