<svg width="16" height="11" viewBox="0 0 16 11" fill="none" xmlns="http://www.w3.org/2000/svg">
<g id="Group">
<path id="Vector" fill-rule="evenodd" clip-rule="evenodd" d="M4.9231 5.50014C4.9231 4.68975 5.24727 3.91256 5.82431 3.33953C6.40134 2.7665 7.18397 2.44458 8.00002 2.44458C8.81607 2.44458 9.5987 2.7665 10.1757 3.33953C10.7528 3.91256 11.0769 4.68975 11.0769 5.50014C11.0769 6.31052 10.7528 7.08771 10.1757 7.66074C9.5987 8.23377 8.81607 8.55569 8.00002 8.55569C7.18397 8.55569 6.40134 8.23377 5.82431 7.66074C5.24727 7.08771 4.9231 6.31052 4.9231 5.50014ZM8.00002 3.6668C7.51039 3.6668 7.04081 3.85996 6.69459 4.20377C6.34837 4.54759 6.15386 5.01391 6.15386 5.50014C6.15386 5.98637 6.34837 6.45268 6.69459 6.7965C7.04081 7.14031 7.51039 7.33347 8.00002 7.33347C8.48965 7.33347 8.95923 7.14031 9.30545 6.7965C9.65167 6.45268 9.84617 5.98637 9.84617 5.50014C9.84617 5.01391 9.65167 4.54759 9.30545 4.20377C8.95923 3.85996 8.48965 3.6668 8.00002 3.6668Z" fill="#7B7B7B"/>
<path id="Vector_2" fill-rule="evenodd" clip-rule="evenodd" d="M1.70092 4.39674C1.35713 4.88889 1.23077 5.2743 1.23077 5.5C1.23077 5.7257 1.35713 6.11111 1.70092 6.60326C2.03405 7.0783 2.528 7.59407 3.15323 8.07074C4.40615 9.0257 6.12349 9.77778 8 9.77778C9.87651 9.77778 11.5938 9.0257 12.8468 8.07074C13.472 7.59407 13.9659 7.0783 14.2991 6.60326C14.6429 6.11111 14.7692 5.7257 14.7692 5.5C14.7692 5.2743 14.6429 4.88889 14.2991 4.39674C13.9659 3.9217 13.472 3.40593 12.8468 2.92926C11.5938 1.9743 9.87651 1.22222 8 1.22222C6.12349 1.22222 4.40615 1.9743 3.15323 2.92926C2.528 3.40593 2.03405 3.9217 1.70092 4.39674ZM2.40328 1.95963C3.82359 0.877556 5.79774 0 8 0C10.2023 0 12.1764 0.877556 13.5959 1.95963C14.3073 2.50148 14.8948 3.10607 15.3099 3.70007C15.7136 4.27778 16 4.91089 16 5.5C16 6.08911 15.7128 6.72222 15.3099 7.29993C14.8948 7.89393 14.3073 8.4977 13.5967 9.04037C12.1772 10.1224 10.2023 11 8 11C5.79774 11 3.82359 10.1224 2.4041 9.04037C1.69272 8.49852 1.10523 7.89393 0.690051 7.29993C0.28718 6.72222 0 6.08911 0 5.5C0 4.91089 0.28718 4.27778 0.690051 3.70007C1.10523 3.10607 1.69272 2.5023 2.40328 1.95963Z" fill="#7B7B7B"/>
</g>
</svg>
