<svg width="16" height="17" viewBox="0 0 16 17" fill="none" xmlns="http://www.w3.org/2000/svg">
<g id="Icon/heart">
<path id="Vector (Stroke)" fill-rule="evenodd" clip-rule="evenodd" d="M9.71965 1.84258C10.2707 1.61641 10.8614 1.5 11.4579 1.5C12.0544 1.5 12.645 1.61641 13.1961 1.84258C13.747 2.06871 14.2476 2.40013 14.6693 2.81791C15.091 3.23556 15.4258 3.73164 15.6541 4.27738C15.8825 4.82322 16 5.40828 16 5.99913C16 6.58997 15.8825 7.17503 15.6541 7.72087C15.4258 8.26667 15.0912 8.76256 14.6694 9.18023C14.6693 9.18027 14.6694 9.18019 14.6694 9.18023L8.49379 15.2973C8.22098 15.5676 7.77865 15.5676 7.50583 15.2973L1.33025 9.18023C0.478506 8.33655 0 7.19227 0 5.99913C0 4.80598 0.478506 3.66171 1.33025 2.81803C2.182 1.97435 3.33722 1.50037 4.54177 1.50037C5.74632 1.50037 6.90154 1.97435 7.75328 2.81803L7.99981 3.06222L8.24623 2.81814C8.24619 2.81818 8.24627 2.8181 8.24623 2.81814C8.66789 2.40031 9.16864 2.06873 9.71965 1.84258ZM11.4579 2.88396C11.0449 2.88396 10.636 2.96455 10.2545 3.12113C9.87298 3.27771 9.52636 3.50721 9.23442 3.79652L8.49379 4.53013C8.22098 4.80036 7.77865 4.80036 7.50583 4.53013L6.76532 3.79663C6.1756 3.21249 5.37576 2.88433 4.54177 2.88433C3.70777 2.88433 2.90794 3.21249 2.31822 3.79663C1.72849 4.38077 1.39719 5.17303 1.39719 5.99913C1.39719 6.82522 1.72849 7.61749 2.31822 8.20162L7.99981 13.8294L13.6814 8.20162C13.9735 7.91245 14.2053 7.569 14.3634 7.1911C14.5214 6.81321 14.6028 6.40817 14.6028 5.99913C14.6028 5.59008 14.5214 5.18504 14.3634 4.80715C14.2053 4.42926 13.9736 4.08592 13.6815 3.79675C13.3896 3.50744 13.0427 3.27771 12.6612 3.12113C12.2797 2.96455 11.8708 2.88396 11.4579 2.88396Z" fill="#7B7B7B"/>
</g>
</svg>
