<svg width="32" height="32" viewBox="0 0 32 32" fill="none" xmlns="http://www.w3.org/2000/svg">
<g clip-path="url(#clip0_1505_8527)">
<path d="M16.0013 0C11.6559 0 11.1105 0.0190005 9.40385 0.096668C7.7005 0.174669 6.53782 0.444338 5.52048 0.840009C4.46814 1.24868 3.57546 1.79535 2.68612 2.68503C1.79611 3.57437 1.24944 4.46705 0.839431 5.51906C0.44276 6.53674 0.172758 7.69975 0.09609 9.40244C0.0197559 11.1091 -0.000244141 11.6548 -0.000244141 16.0002C-0.000244141 20.3456 0.0190897 20.8892 0.0964238 22.5959C0.174758 24.2993 0.444427 25.4619 0.839765 26.4793C1.24877 27.5316 1.79544 28.4243 2.68512 29.3137C3.57413 30.2037 4.4668 30.7517 5.51848 31.1603C6.53649 31.556 7.6995 31.8257 9.40252 31.9037C11.1092 31.9813 11.6542 32.0003 15.9993 32.0003C20.345 32.0003 20.8886 31.9813 22.5953 31.9037C24.2987 31.8257 25.4627 31.556 26.4807 31.1603C27.5327 30.7517 28.4241 30.2037 29.3131 29.3137C30.2031 28.4243 30.7497 27.5316 31.1597 26.4796C31.5531 25.4619 31.8231 24.2989 31.9031 22.5962C31.9798 20.8896 31.9998 20.3456 31.9998 16.0002C31.9998 11.6548 31.9798 11.1095 31.9031 9.40277C31.8231 7.69942 31.5531 6.53674 31.1597 5.51939C30.7497 4.46705 30.2031 3.57437 29.3131 2.68503C28.4231 1.79502 27.533 1.24835 26.4797 0.840009C25.4597 0.444338 24.2963 0.174669 22.593 0.096668C20.8863 0.0190005 20.343 0 15.9963 0H16.0013ZM14.5659 2.88336C14.9919 2.8827 15.4672 2.88336 16.0013 2.88336C20.2733 2.88336 20.7796 2.8987 22.4667 2.97537C24.0267 3.0467 24.8733 3.30737 25.4374 3.52637C26.184 3.81637 26.7164 4.16304 27.276 4.72305C27.836 5.28306 28.1827 5.8164 28.4734 6.56307C28.6924 7.12641 28.9534 7.97309 29.0244 9.5331C29.1011 11.2198 29.1177 11.7265 29.1177 15.9965C29.1177 20.2666 29.1011 20.7732 29.0244 22.4599C28.9531 24.0199 28.6924 24.8666 28.4734 25.4299C28.1834 26.1766 27.836 26.7083 27.276 27.268C26.716 27.828 26.1844 28.1746 25.4374 28.4646C24.874 28.6846 24.0267 28.9446 22.4667 29.016C20.78 29.0926 20.2733 29.1093 16.0013 29.1093C11.7289 29.1093 11.2225 29.0926 9.53586 29.016C7.97584 28.944 7.12916 28.6833 6.56482 28.4643C5.81815 28.1743 5.28481 27.8276 4.7248 27.2676C4.1648 26.7076 3.81813 26.1756 3.52746 25.4286C3.30846 24.8653 3.04745 24.0186 2.97645 22.4586C2.89979 20.7719 2.88445 20.2652 2.88445 15.9925C2.88445 11.7198 2.89979 11.2158 2.97645 9.5291C3.04779 7.96909 3.30846 7.12241 3.52746 6.5584C3.81746 5.81173 4.1648 5.27839 4.7248 4.71838C5.28481 4.15838 5.81815 3.81171 6.56482 3.52104C7.12883 3.30104 7.97584 3.04103 9.53586 2.96937C11.0119 2.9027 11.5839 2.8827 14.5659 2.87936V2.88336ZM24.542 5.54006C23.482 5.54006 22.622 6.39907 22.622 7.45941C22.622 8.51943 23.482 9.37944 24.542 9.37944C25.602 9.37944 26.462 8.51943 26.462 7.45941C26.462 6.3994 25.602 5.53939 24.542 5.53939V5.54006ZM16.0013 7.78342C11.4635 7.78342 7.7845 11.4625 7.7845 16.0002C7.7845 20.5379 11.4635 24.2153 16.0013 24.2153C20.539 24.2153 24.2167 20.5379 24.2167 16.0002C24.2167 11.4625 20.539 7.78342 16.0013 7.78342ZM16.0013 10.6668C18.9466 10.6668 21.3346 13.0545 21.3346 16.0002C21.3346 18.9455 18.9466 21.3336 16.0013 21.3336C13.0556 21.3336 10.6679 18.9455 10.6679 16.0002C10.6679 13.0545 13.0556 10.6668 16.0013 10.6668Z" fill="black"/>
</g>
<defs>
<clipPath id="clip0_1505_8527">
<rect width="32.001" height="32" fill="white"/>
</clipPath>
</defs>
</svg>
