<svg width="32" height="32" viewBox="0 0 32 32" fill="none" xmlns="http://www.w3.org/2000/svg">
<g clip-path="url(#clip0_1505_8506)">
<path d="M29.6963 13.446C26.8866 13.5085 24.2642 12.6343 22.0164 11.0109V22.1874C22.0164 26.4332 19.394 30.1795 15.398 31.678C11.4643 33.1765 6.96879 32.0526 4.2215 28.8683C1.41178 25.6215 0.912275 21.0635 2.9103 17.3172C4.90833 13.6333 9.02925 11.5729 13.2751 12.1348V17.7543C11.3395 17.1299 9.21657 17.8167 8.03024 19.4401C6.90635 21.1259 6.90635 23.3113 8.09268 24.9347C9.27901 26.5581 11.4019 27.2449 13.2751 26.6205C15.2106 25.9961 16.5219 24.1854 16.5219 22.1874V0.333984H22.0164C22.0164 0.833491 22.0164 1.27056 22.1413 1.77007C22.5159 3.83053 23.7023 5.64124 25.513 6.76513C26.6993 7.57683 28.1978 8.0139 29.6963 8.0139V13.446Z" fill="white"/>
</g>
<defs>
<clipPath id="clip0_1505_8506">
<rect width="32" height="32" fill="white" transform="translate(0.000976562)"/>
</clipPath>
</defs>
</svg>
