<svg width="32" height="32" viewBox="0 0 32 32" fill="none" xmlns="http://www.w3.org/2000/svg">
<path d="M22.9427 11.5269C25.0046 13 27.5304 13.8667 30.2584 13.8667V8.61992C29.7421 8.62003 29.2271 8.56622 28.722 8.45926V12.5892C25.9943 12.5892 23.4688 11.7225 21.4064 10.2495V20.9567C21.4064 26.313 17.0621 30.6548 11.7034 30.6548C9.70395 30.6548 7.84554 30.0506 6.30176 29.0144C8.06373 30.8151 10.5209 31.9321 13.2394 31.9321C18.5984 31.9321 22.943 27.5903 22.943 22.2338V11.5269H22.9427ZM24.838 6.23351C23.7843 5.08293 23.0924 3.59603 22.9427 1.95219V1.27734H21.4869C21.8533 3.36666 23.1033 5.15165 24.838 6.23351ZM9.69113 24.9042C9.10242 24.1327 8.78428 23.1889 8.7857 22.2185C8.7857 19.7687 10.7728 17.7824 13.2243 17.7824C13.6812 17.7823 14.1353 17.8522 14.5707 17.9903V12.6263C14.0619 12.5566 13.5483 12.527 13.035 12.5378V16.713C12.5993 16.5749 12.1449 16.5047 11.688 16.5052C9.23644 16.5052 7.24948 18.4913 7.24948 20.9413C7.24948 22.6737 8.24269 24.1736 9.69113 24.9042Z" fill="#FF004F"/>
<path d="M21.4063 10.2494C23.4686 11.7224 25.9941 12.5891 28.7219 12.5891V8.45915C27.1993 8.13499 25.8513 7.3397 24.8378 6.23351C23.103 5.15154 21.8532 3.36655 21.4867 1.27734H17.6625V22.2336C17.6538 24.6767 15.6702 26.6549 13.2239 26.6549C11.7824 26.6549 10.5017 25.9681 9.69065 24.9042C8.24232 24.1736 7.24912 22.6736 7.24912 20.9415C7.24912 18.4916 9.23608 16.5053 11.6876 16.5053C12.1573 16.5053 12.61 16.5784 13.0347 16.7131V12.5379C7.77011 12.6467 3.53613 16.9461 3.53613 22.2337C3.53613 24.8733 4.59049 27.2662 6.30172 29.0145C7.8455 30.0506 9.70391 30.6549 11.7034 30.6549C17.0622 30.6549 21.4064 26.3129 21.4064 20.9567V10.2494H21.4063Z" fill="black"/>
<path d="M28.722 8.45907V7.34236C27.3489 7.34444 26.0028 6.96011 24.8379 6.23332C25.8692 7.36175 27.2271 8.13984 28.722 8.45907ZM21.4868 1.27726C21.4518 1.07759 21.425 0.876603 21.4064 0.674849V0H16.1261V20.9565C16.1177 23.3992 14.1341 25.3774 11.6877 25.3774C10.9694 25.3774 10.2913 25.207 9.69074 24.9042C10.5018 25.968 11.7825 26.6547 13.224 26.6547C15.67 26.6547 17.654 24.6767 17.6626 22.2336V1.27726H21.4868ZM13.035 12.5379V11.349C12.5938 11.2888 12.1489 11.2585 11.7036 11.2587C6.34433 11.2586 2 15.6007 2 20.9565C2 24.3143 3.7074 27.2735 6.30192 29.0142C4.59069 27.266 3.53633 24.873 3.53633 22.2335C3.53633 16.946 7.77019 12.6466 13.035 12.5379Z" fill="#00F2EA"/>
</svg>
